<svg width="44" height="44" viewBox="0 0 44 44" fill="none" xmlns="http://www.w3.org/2000/svg">
<g clip-path="url(#clip0_103_3154)">
<path d="M10.5747 19.316L9.04937 14.344H15.3487L16.8667 19.0227L10.5747 19.316Z" fill="#F4F7F9" stroke="#004386" stroke-linejoin="round"/>
<path d="M3.81322 20.3133H9.03455L10.0539 18.0693H18.7219L19.5945 15.73H25.0139L28.3799 23.1953L27.7932 25.0946L7.12788 24.508L7.32588 24.0753H3.81322V20.3133Z" fill="#F4F7F9" stroke="#004386" stroke-linejoin="round"/>
<path d="M2.11928 23.606H25.7033C28.7833 23.606 30.9246 20.7533 30.9246 20.7533H41.8806L37.8033 27.1846H2.79395L2.11195 23.606H2.11928Z" fill="#F4F7F9" stroke="#004386" stroke-linejoin="round"/>
<path d="M37.8105 27.192L34.8919 31.394L3.59321 31.3793L2.80121 27.192H37.8105Z" fill="#F4F7F9" stroke="#004386" stroke-linejoin="round"/>
<path d="M22.7554 15.73V12.2394" stroke="#004386" stroke-linejoin="round"/>
<path d="M27.3533 20.6726H21.4866" stroke="#004386" stroke-linejoin="round"/>
<path d="M18.9199 20.6726H16.7199" stroke="#004386" stroke-linejoin="round"/>
<path d="M15.9866 20.6726H13.7866" stroke="#004386" stroke-linejoin="round"/>
<path d="M13.0532 20.6726H10.8532" stroke="#004386" stroke-linejoin="round"/>
<path d="M2.11211 30.0667C2.78678 30.9027 3.79877 31.4453 4.95744 31.4453C6.11611 31.4453 7.12811 30.9027 7.80278 30.0667C8.47744 30.9027 9.48944 31.4453 10.6481 31.4453C11.8068 31.4453 12.8188 30.9027 13.4934 30.0667C14.1681 30.9027 15.1801 31.4453 16.3388 31.4453C17.4974 31.4453 18.5094 30.9027 19.1841 30.0667C19.8588 30.9027 20.8708 31.4453 22.0294 31.4453C23.1881 31.4453 24.2001 30.9027 24.8748 30.0667C25.5494 30.9027 26.5614 31.4453 27.7201 31.4453C28.8788 31.4453 29.8908 30.9027 30.5654 30.0667C31.2401 30.9027 32.2521 31.4453 33.4108 31.4453C34.5694 31.4453 35.5814 30.9027 36.2561 30.0667C36.9308 30.9027 37.9428 31.4453 39.1014 31.4453C40.2601 31.4453 41.2721 30.9027 41.9468 30.0667V33.9753H2.16344V30.0667H2.11211Z" fill="#F4F7F9"/>
<path d="M41.8879 29.788C41.2133 30.624 40.2013 31.1666 39.0426 31.1666C37.8839 31.1666 36.8719 30.624 36.1973 29.788C35.5226 30.624 34.5106 31.1666 33.3519 31.1666C32.1933 31.1666 31.1813 30.624 30.5066 29.788C29.8319 30.624 28.8199 31.1666 27.6613 31.1666C26.5026 31.1666 25.4906 30.624 24.8159 29.788C24.1413 30.624 23.1293 31.1666 21.9706 31.1666C20.8119 31.1666 19.7999 30.624 19.1253 29.788C18.4506 30.624 17.4386 31.1666 16.2799 31.1666C15.1213 31.1666 14.1093 30.624 13.4346 29.788C12.7599 30.624 11.7479 31.1666 10.5893 31.1666C9.43061 31.1666 8.41861 30.624 7.74394 29.788C7.06927 30.624 6.05727 31.1666 4.89861 31.1666C3.73994 31.1666 2.72794 30.624 2.05327 29.788" stroke="#004386" stroke-linejoin="round"/>
</g>
<defs>
<clipPath id="clip0_103_3154">
<rect width="44" height="44" fill="white" transform="matrix(-1 0 0 1 44 0)"/>
</clipPath>
</defs>
</svg>
