<svg width="48" height="48" viewBox="0 0 48 48" fill="none" xmlns="http://www.w3.org/2000/svg">
<g clip-path="url(#clip0_24_410)">
<path d="M36.464 21.072L38.128 15.648H31.256L29.6 20.752L36.464 21.072Z" fill="#A7913A" stroke="white" stroke-linejoin="round"/>
<path d="M43.84 22.16H38.144L37.032 19.712H27.576L26.624 17.16H20.712L17.04 25.304L17.68 27.376L40.224 26.736L40.008 26.264H43.84V22.16Z" fill="#A7913A" stroke="white" stroke-linejoin="round"/>
<path d="M45.688 25.752H19.96C16.6 25.752 14.264 22.64 14.264 22.64H2.31201L6.76001 29.656H44.952L45.696 25.752H45.688Z" fill="#A7913A" stroke="white" stroke-linejoin="round"/>
<path d="M6.75195 29.664L9.93595 34.248L44.08 34.232L44.944 29.664H6.75195Z" fill="#A7913A" stroke="white" stroke-linejoin="round"/>
<path d="M23.176 17.16V13.352" stroke="white" stroke-linejoin="round"/>
<path d="M18.16 22.552H24.56" stroke="white" stroke-linejoin="round"/>
<path d="M27.36 22.552H29.76" stroke="white" stroke-linejoin="round"/>
<path d="M30.5601 22.552H32.9601" stroke="white" stroke-linejoin="round"/>
<path d="M33.76 22.552H36.16" stroke="white" stroke-linejoin="round"/>
<path d="M45.696 32.8C44.96 33.712 43.856 34.304 42.592 34.304C41.328 34.304 40.224 33.712 39.488 32.8C38.752 33.712 37.648 34.304 36.384 34.304C35.12 34.304 34.016 33.712 33.28 32.8C32.544 33.712 31.44 34.304 30.176 34.304C28.912 34.304 27.808 33.712 27.072 32.8C26.336 33.712 25.232 34.304 23.968 34.304C22.704 34.304 21.6 33.712 20.864 32.8C20.128 33.712 19.024 34.304 17.76 34.304C16.496 34.304 15.392 33.712 14.656 32.8C13.92 33.712 12.816 34.304 11.552 34.304C10.288 34.304 9.18399 33.712 8.44799 32.8C7.71199 33.712 6.60799 34.304 5.34399 34.304C4.07999 34.304 2.97599 33.712 2.23999 32.8V37.064H45.64V32.8H45.696Z" fill="#A7913A"/>
<path d="M2.30396 32.496C3.03996 33.408 4.14396 34 5.40796 34C6.67196 34 7.77596 33.408 8.51196 32.496C9.24796 33.408 10.352 34 11.616 34C12.88 34 13.984 33.408 14.72 32.496C15.456 33.408 16.56 34 17.824 34C19.088 34 20.192 33.408 20.928 32.496C21.664 33.408 22.768 34 24.032 34C25.296 34 26.4 33.408 27.136 32.496C27.872 33.408 28.976 34 30.24 34C31.504 34 32.608 33.408 33.344 32.496C34.08 33.408 35.184 34 36.448 34C37.712 34 38.816 33.408 39.552 32.496C40.288 33.408 41.392 34 42.656 34C43.92 34 45.024 33.408 45.76 32.496" stroke="white" stroke-linejoin="round"/>
</g>
<defs>
<clipPath id="clip0_24_410">
<rect width="48" height="48" fill="white"/>
</clipPath>
</defs>
</svg>
