<svg width="50" height="50" viewBox="0 0 50 50" fill="none" xmlns="http://www.w3.org/2000/svg">
<g clip-path="url(#clip0_124_244)">
<path d="M9.59998 26.7833H2.47498L5.41664 35.2917H41.7166L47.525 26.7833H26.25L25.275 29.4333C25.275 29.4333 25 30.175 24.6 30.175H11.5833C11.5833 30.175 11.0416 30.1417 10.7583 29.5C10.475 28.8583 9.59998 26.775 9.59998 26.775V26.7833Z" stroke="#081F36" stroke-linejoin="round"/>
<path d="M7.09167 26.9167L8.80001 21.5833H38.8667L40.5333 26.9167" stroke="#081F36" stroke-linejoin="round"/>
<path d="M10.7167 21.625L12.3583 16.875H35.3333L37 21.5833" stroke="#081F36" stroke-linejoin="round"/>
<path d="M29.7 16.875V14.0417" stroke="#081F36" stroke-linejoin="round"/>
<path d="M31.9333 16.875V12.6167" stroke="#081F36" stroke-linejoin="round"/>
<path d="M42.675 26.9167V24.0833" stroke="#081F36" stroke-linejoin="round"/>
<path d="M44.9083 26.9167V22.6583" stroke="#081F36" stroke-linejoin="round"/>
<path d="M10.1 28.1917H25.825" stroke="#081F36" stroke-linejoin="round"/>
<path d="M3.54163 30.225H45.25" stroke="#081F36" stroke-linejoin="round"/>
<path d="M13.4584 19.25H16.6417" stroke="#081F36" stroke-linejoin="round"/>
<path d="M17.8334 19.25H21.0167" stroke="#081F36" stroke-linejoin="round"/>
<path d="M22.2084 19.25H25.3917" stroke="#081F36" stroke-linejoin="round"/>
<path d="M26.5834 19.25H29.7667" stroke="#081F36" stroke-linejoin="round"/>
<path d="M30.95 19.25H34.1333" stroke="#081F36" stroke-linejoin="round"/>
<path d="M13.4584 24.075H16.6417" stroke="#081F36" stroke-linejoin="round"/>
<path d="M17.8334 24.075H21.0167" stroke="#081F36" stroke-linejoin="round"/>
<path d="M22.2084 24.075H25.3917" stroke="#081F36" stroke-linejoin="round"/>
<path d="M26.5834 24.075H29.7667" stroke="#081F36" stroke-linejoin="round"/>
<path d="M30.95 24.075H34.1333" stroke="#081F36" stroke-linejoin="round"/>
<path d="M47.6 34.1667C46.8334 35.1167 45.6834 35.7333 44.3667 35.7333C43.05 35.7333 41.9 35.1167 41.1334 34.1667C40.3667 35.1167 39.2167 35.7333 37.9 35.7333C36.5834 35.7333 35.4334 35.1167 34.6667 34.1667C33.9 35.1167 32.75 35.7333 31.4334 35.7333C30.1167 35.7333 28.9667 35.1167 28.2 34.1667C27.4334 35.1167 26.2834 35.7333 24.9667 35.7333C23.65 35.7333 22.5 35.1167 21.7334 34.1667C20.9667 35.1167 19.8167 35.7333 18.5 35.7333C17.1834 35.7333 16.0334 35.1167 15.2667 34.1667C14.5 35.1167 13.35 35.7333 12.0334 35.7333C10.7167 35.7333 9.56671 35.1167 8.80004 34.1667C8.03337 35.1167 6.88337 35.7333 5.56671 35.7333C4.25004 35.7333 3.10004 35.1167 2.33337 34.1667V38.6083H47.5417V34.1667H47.6Z" fill="white"/>
<path d="M2.40002 33.85C3.16669 34.8 4.31669 35.4167 5.63336 35.4167C6.95002 35.4167 8.10002 34.8 8.86669 33.85C9.63336 34.8 10.7834 35.4167 12.1 35.4167C13.4167 35.4167 14.5667 34.8 15.3334 33.85C16.1 34.8 17.25 35.4167 18.5667 35.4167C19.8834 35.4167 21.0334 34.8 21.8 33.85C22.5667 34.8 23.7167 35.4167 25.0334 35.4167C26.35 35.4167 27.5 34.8 28.2667 33.85C29.0334 34.8 30.1834 35.4167 31.5 35.4167C32.8167 35.4167 33.9667 34.8 34.7334 33.85C35.5 34.8 36.65 35.4167 37.9667 35.4167C39.2834 35.4167 40.4334 34.8 41.2 33.85C41.9667 34.8 43.1167 35.4167 44.4334 35.4167C45.75 35.4167 46.9 34.8 47.6667 33.85" stroke="#081F36" stroke-linejoin="round"/>
</g>
<defs>
<clipPath id="clip0_124_244">
<rect width="50" height="50" fill="white"/>
</clipPath>
</defs>
</svg>
