<svg width="40" height="40" viewBox="0 0 40 40" fill="none" xmlns="http://www.w3.org/2000/svg">
<g clip-path="url(#clip0_93_2010)">
<path d="M10.4599 34.1067H29.4599C28.5599 34.1067 27.8266 33.16 27.8266 32C27.8266 31.8067 27.8533 31.62 27.8933 31.44H8.89992C8.85992 31.62 8.83325 31.8067 8.83325 32C8.83325 33.1667 9.55992 34.1067 10.4666 34.1067H10.4599Z" stroke="#081F36" stroke-linejoin="round"/>
<path d="M12.4201 5.89334C11.7867 5.89334 11.2467 6.36667 10.9734 7.04667V34.1067H30.0867C30.8267 34.1067 31.4201 33.5067 31.4201 32.7733V5.89334H12.4201Z" fill="#EAEAE3"/>
<path d="M12.4201 5.89334C11.7867 5.89334 11.2467 6.36667 10.9734 7.04667V34.1067H30.0867C30.8267 34.1067 31.4201 33.5067 31.4201 32.7733V5.89334H12.4201Z" stroke="#081F36" stroke-linejoin="round"/>
<path d="M31.4199 5.89334H12.4199C13.3199 5.89334 14.0533 6.84001 14.0533 8.00001C14.0533 8.19334 14.0266 8.38001 13.9866 8.56001H32.9866C33.0266 8.38001 33.0533 8.19334 33.0533 8.00001C33.0533 6.83334 32.3266 5.89334 31.4199 5.89334Z" fill="#EAEAE3" stroke="#081F36" stroke-linejoin="round"/>
<path d="M14.5266 21.3333H27.8599" stroke="#081F36" stroke-linejoin="round"/>
<path d="M14.5266 24.6667H27.8599" stroke="#081F36" stroke-linejoin="round"/>
<path d="M14.5266 28H21.1933" stroke="#081F36" stroke-linejoin="round"/>
<path d="M14.5266 14.6667H27.8599" stroke="#081F36" stroke-linejoin="round"/>
<path d="M14.5266 18H27.8599" stroke="#081F36" stroke-linejoin="round"/>
<path d="M38.4732 19.8C38.8999 19.1467 39.1666 16.5933 39.1666 16.5933C39.1666 16.5933 36.6132 16.8667 35.9599 17.2867C35.3066 17.7067 30.3332 22.08 29.8332 22.66C29.3332 23.2333 30.0199 25.7333 30.0199 25.7333C30.0199 25.7333 32.5199 26.42 33.0932 25.92C33.6666 25.42 38.0399 20.4467 38.4666 19.7933L38.4732 19.8Z" fill="#EAEAE3" stroke="#081F36" stroke-linejoin="round"/>
<path d="M39.0067 16.76L26.9333 28.8333" stroke="#081F36" stroke-linejoin="round"/>
<path d="M35.3334 17.7667L34.8867 20.88L38.0001 20.44" stroke="#081F36" stroke-linejoin="round"/>
</g>
<defs>
<clipPath id="clip0_93_2010">
<rect width="40" height="40" fill="white"/>
</clipPath>
</defs>
</svg>
