<svg width="40" height="40" viewBox="0 0 40 40" fill="none" xmlns="http://www.w3.org/2000/svg">
<g clip-path="url(#clip0_439_6155)">
<path d="M6.35996 35.9867C4.28663 35.82 2.37996 35.62 0.666626 35.3733L2.29329 33.02L0.666626 30.5267C2.41996 30.8133 5.94663 31.1133 8.33996 31.3067V36.06L6.35996 35.9933V35.9867Z" stroke="#1C4C83" stroke-linecap="round" stroke-linejoin="round"/>
<path d="M4.69336 32.62C4.69336 32.62 6.53336 32.5267 8.34003 31.3V33.58L4.69336 32.62Z" stroke="#1C4C83" stroke-linecap="round" stroke-linejoin="round"/>
<path d="M33.64 35.9867C35.7134 35.82 37.62 35.62 39.3334 35.3733L37.7067 33.02L39.3334 30.5267C37.58 30.8133 34.0534 31.1133 31.66 31.3067V36.06L33.64 35.9933V35.9867Z" stroke="#1C4C83" stroke-linecap="round" stroke-linejoin="round"/>
<path d="M35.3067 32.62C35.3067 32.62 33.4667 32.5267 31.66 31.3V33.58L35.3067 32.62Z" stroke="#1C4C83" stroke-linecap="round" stroke-linejoin="round"/>
<path d="M20.0134 39.1667C23.7067 39.1667 27.1934 38.9933 30.2867 38.6933C32.12 38.5133 33.8134 38.2867 35.3334 38.0133V32.6267C33.78 32.94 31.8867 33.22 29.7667 33.4267C26.8734 33.7133 23.5467 33.8733 20.0134 33.8733C16.48 33.8733 13.1534 33.7067 10.26 33.4267C8.14003 33.22 6.24669 32.94 4.69336 32.6267V38.0133C6.21336 38.2867 7.90669 38.5133 9.74003 38.6933C12.8267 39 16.3134 39.1667 20.0134 39.1667Z" fill="white" stroke="#1C4C83" stroke-linecap="round" stroke-linejoin="round"/>
<path d="M20.0134 33.16C20.0134 33.16 31.6134 30.0467 31.6134 22.2933V6.14H8.38672V22.2933C8.38672 30.0467 19.9867 33.16 19.9867 33.16H20.0201H20.0134Z" stroke="#1C4C83" stroke-linecap="round" stroke-linejoin="round"/>
<path d="M16.34 18.1733L23.66 10.8533H16.34L23.66 18.1733" stroke="#1C4C83" stroke-linecap="round" stroke-linejoin="round"/>
<path d="M20 12.5933V27.8267" stroke="#1C4C83" stroke-linecap="round" stroke-linejoin="round"/>
<path d="M25.2667 21.2067L27.6933 18.9333C27.6933 18.9333 27.9 25.34 20 27.8667C12.1 25.3333 12.3067 18.9333 12.3067 18.9333L14.7333 21.2067" stroke="#1C4C83" stroke-linecap="round" stroke-linejoin="round"/>
<path d="M28.2267 1.30666C28.1467 1.83333 28.06 2.35333 27.98 2.88C27.6667 2.83333 27.3533 2.78666 27.04 2.74C27.1133 2.21333 27.1867 1.68666 27.26 1.16666C25.8733 0.973331 24.4733 0.839997 23.0733 0.753331C23.04 1.28 23.0133 1.81333 22.98 2.34C22.6667 2.32 22.3467 2.30666 22.0333 2.29333C22.0533 1.76666 22.0733 1.23333 22.0933 0.706664C20.6933 0.653331 19.2933 0.653331 17.8933 0.706664C17.9133 1.23333 17.9333 1.76666 17.9533 2.29333C17.64 2.30666 17.32 2.32 17.0067 2.34C16.9733 1.81333 16.9467 1.28 16.9133 0.753331C15.5133 0.833331 14.12 0.973331 12.7267 1.16666C12.8 1.69333 12.8733 2.22 12.9467 2.74C12.6333 2.78666 12.32 2.82666 12.0067 2.88C11.9267 2.35333 11.84 1.83333 11.76 1.30666C10.3733 1.52666 8.99333 1.8 7.62 2.12666C7.74666 2.64 7.86666 3.16 7.99333 3.67333C7.99333 3.68666 7.99333 3.69333 7.99999 3.70666C8.12666 4.22 8.24666 4.74 8.37333 5.25333C16.0067 3.42 23.9667 3.42 31.6067 5.25333C31.7333 4.74 31.8533 4.22 31.98 3.70666C31.98 3.69333 31.98 3.68666 31.9867 3.67333C32.1133 3.16 32.2333 2.64 32.36 2.12666C30.9867 1.8 29.6067 1.52666 28.22 1.30666H28.2267Z" stroke="#1C4C83" stroke-linecap="round" stroke-linejoin="round"/>
</g>
<defs>
<clipPath id="clip0_439_6155">
<rect width="40" height="40" fill="white"/>
</clipPath>
</defs>
</svg>
