<svg width="40" height="40" viewBox="0 0 40 40" fill="none" xmlns="http://www.w3.org/2000/svg">
<g clip-path="url(#clip0_93_2075)">
<path d="M29.2933 3.63333H3.61328V20.3533H29.2933V3.63333Z" stroke="#081F36" stroke-linejoin="round"/>
<path d="M30.4866 20.3533H2.41992V22.1467H30.4866V20.3533Z" stroke="#081F36" stroke-linejoin="round"/>
<path d="M33.4533 14.3333C34.926 14.3333 36.12 13.1394 36.12 11.6667C36.12 10.1939 34.926 9 33.4533 9C31.9805 9 30.7866 10.1939 30.7866 11.6667C30.7866 13.1394 31.9805 14.3333 33.4533 14.3333Z" stroke="#081F36" stroke-linejoin="round"/>
<path d="M29.7866 23.3333V19.3267C29.7866 19.12 29.6599 18.9333 29.4732 18.8467C29.2799 18.7667 29.0599 18.8067 28.9132 18.9467L26.6399 21.12C26.2866 21.3933 25.7932 21.38 25.4599 21.1L22.2199 18.22C21.8866 17.9333 21.8466 17.4267 22.1332 17.0933C22.3999 16.78 22.8732 16.7267 23.2066 16.9667L25.7066 18.7733C25.9132 18.92 26.1999 18.9 26.3799 18.72L28.3599 16.7267C29.2932 15.74 30.3666 15.3 31.8399 15.3H35.0399C36.4399 15.3 37.5799 16.44 37.5799 17.84V23.34" fill="#EAEAE3"/>
<path d="M29.7866 23.3333V19.3267C29.7866 19.12 29.6599 18.9333 29.4732 18.8467C29.2799 18.7667 29.0599 18.8067 28.9132 18.9467L26.6399 21.12C26.2866 21.3933 25.7932 21.38 25.4599 21.1L22.2199 18.22C21.8866 17.9333 21.8466 17.4267 22.1332 17.0933C22.3999 16.78 22.8732 16.7267 23.2066 16.9667L25.7066 18.7733C25.9132 18.92 26.1999 18.9 26.3799 18.72L28.3599 16.7267C29.2932 15.74 30.3666 15.3 31.8399 15.3H35.0399C36.4399 15.3 37.5799 16.44 37.5799 17.84V23.34" stroke="#081F36" stroke-linejoin="round"/>
<path d="M22.1335 17.1L19.1201 14.3333" stroke="#081F36" stroke-linejoin="round"/>
<path d="M8.66667 29.6667C10.1394 29.6667 11.3333 28.4728 11.3333 27C11.3333 25.5272 10.1394 24.3333 8.66667 24.3333C7.19391 24.3333 6 25.5272 6 27C6 28.4728 7.19391 29.6667 8.66667 29.6667Z" stroke="#081F36" stroke-linejoin="round"/>
<path d="M4 37.72V33.7933C4 32.22 5.27333 30.9467 6.84667 30.9467H10.4933C12.0667 30.9467 13.34 32.22 13.34 33.7933V37.72" stroke="#081F36" stroke-linejoin="round"/>
<path d="M19.9999 29.6667C21.4727 29.6667 22.6666 28.4728 22.6666 27C22.6666 25.5272 21.4727 24.3333 19.9999 24.3333C18.5272 24.3333 17.3333 25.5272 17.3333 27C17.3333 28.4728 18.5272 29.6667 19.9999 29.6667Z" stroke="#081F36" stroke-linejoin="round"/>
<path d="M15.3333 37.72V33.7933C15.3333 32.22 16.6066 30.9467 18.1799 30.9467H21.8266C23.3999 30.9467 24.6733 32.22 24.6733 33.7933V37.72" stroke="#081F36" stroke-linejoin="round"/>
<path d="M31.3334 29.6667C32.8062 29.6667 34.0001 28.4728 34.0001 27C34.0001 25.5272 32.8062 24.3333 31.3334 24.3333C29.8607 24.3333 28.6667 25.5272 28.6667 27C28.6667 28.4728 29.8607 29.6667 31.3334 29.6667Z" stroke="#081F36" stroke-linejoin="round"/>
<path d="M26.6667 37.72V33.7933C26.6667 32.22 27.9401 30.9467 29.5134 30.9467H33.1601C34.7334 30.9467 36.0067 32.22 36.0067 33.7933V37.72" stroke="#081F36" stroke-linejoin="round"/>
</g>
<defs>
<clipPath id="clip0_93_2075">
<rect width="40" height="40" fill="white"/>
</clipPath>
</defs>
</svg>
