<svg width="40" height="40" viewBox="0 0 40 40" fill="none" xmlns="http://www.w3.org/2000/svg">
<path d="M7.67998 21.4267H1.97998L4.33331 28.2333H33.3733L38.02 21.4267H21L20.22 23.5467C20.22 23.5467 20 24.14 19.68 24.14H9.26665C9.26665 24.14 8.83331 24.1133 8.60665 23.6C8.37998 23.0867 7.67998 21.42 7.67998 21.42V21.4267Z" stroke="#081F36" stroke-linejoin="round"/>
<path d="M5.67334 21.5333L7.04001 17.2667H31.0933L32.4267 21.5333" stroke="#081F36" stroke-linejoin="round"/>
<path d="M8.57324 17.3L9.88658 13.5H28.2666L29.5999 17.2667" stroke="#081F36" stroke-linejoin="round"/>
<path d="M23.76 13.5V11.2333" stroke="#081F36" stroke-linejoin="round"/>
<path d="M25.5466 13.5V10.0933" stroke="#081F36" stroke-linejoin="round"/>
<path d="M34.1399 21.5333V19.2667" stroke="#081F36" stroke-linejoin="round"/>
<path d="M35.9268 21.5333V18.1267" stroke="#081F36" stroke-linejoin="round"/>
<path d="M8.08008 22.5533H20.6601" stroke="#081F36" stroke-linejoin="round"/>
<path d="M2.83325 24.18H36.1999" stroke="#081F36" stroke-linejoin="round"/>
<path d="M10.7666 15.4H13.3133" stroke="#081F36" stroke-linejoin="round"/>
<path d="M14.2666 15.4H16.8133" stroke="#081F36" stroke-linejoin="round"/>
<path d="M17.7666 15.4H20.3133" stroke="#081F36" stroke-linejoin="round"/>
<path d="M21.2666 15.4H23.8133" stroke="#081F36" stroke-linejoin="round"/>
<path d="M24.76 15.4H27.3067" stroke="#081F36" stroke-linejoin="round"/>
<path d="M10.7666 19.26H13.3133" stroke="#081F36" stroke-linejoin="round"/>
<path d="M14.2666 19.26H16.8133" stroke="#081F36" stroke-linejoin="round"/>
<path d="M17.7666 19.26H20.3133" stroke="#081F36" stroke-linejoin="round"/>
<path d="M21.2666 19.26H23.8133" stroke="#081F36" stroke-linejoin="round"/>
<path d="M24.76 19.26H27.3067" stroke="#081F36" stroke-linejoin="round"/>
<path d="M38.08 27.3333C37.4667 28.0933 36.5467 28.5867 35.4934 28.5867C34.44 28.5867 33.52 28.0933 32.9067 27.3333C32.2934 28.0933 31.3734 28.5867 30.32 28.5867C29.2667 28.5867 28.3467 28.0933 27.7334 27.3333C27.12 28.0933 26.2 28.5867 25.1467 28.5867C24.0934 28.5867 23.1734 28.0933 22.56 27.3333C21.9467 28.0933 21.0267 28.5867 19.9734 28.5867C18.92 28.5867 18 28.0933 17.3867 27.3333C16.7734 28.0933 15.8534 28.5867 14.8 28.5867C13.7467 28.5867 12.8267 28.0933 12.2134 27.3333C11.6 28.0933 10.68 28.5867 9.6267 28.5867C8.57337 28.5867 7.65337 28.0933 7.04003 27.3333C6.4267 28.0933 5.5067 28.5867 4.45337 28.5867C3.40003 28.5867 2.48003 28.0933 1.8667 27.3333V30.8867H38.0334V27.3333H38.08Z" fill="#EAEAE3"/>
<path d="M1.91992 27.08C2.53326 27.84 3.45326 28.3333 4.50659 28.3333C5.55992 28.3333 6.47992 27.84 7.09326 27.08C7.70659 27.84 8.62659 28.3333 9.67992 28.3333C10.7333 28.3333 11.6533 27.84 12.2666 27.08C12.8799 27.84 13.7999 28.3333 14.8533 28.3333C15.9066 28.3333 16.8266 27.84 17.4399 27.08C18.0533 27.84 18.9733 28.3333 20.0266 28.3333C21.0799 28.3333 21.9999 27.84 22.6133 27.08C23.2266 27.84 24.1466 28.3333 25.1999 28.3333C26.2533 28.3333 27.1733 27.84 27.7866 27.08C28.3999 27.84 29.3199 28.3333 30.3733 28.3333C31.4266 28.3333 32.3466 27.84 32.9599 27.08C33.5733 27.84 34.4933 28.3333 35.5466 28.3333C36.5999 28.3333 37.5199 27.84 38.1333 27.08" stroke="#081F36" stroke-linejoin="round"/>
</svg>
