<svg width="40" height="40" viewBox="0 0 40 40" fill="none" xmlns="http://www.w3.org/2000/svg">
<g clip-path="url(#clip0_124_291)">
<path d="M10.46 34.1067H29.46C28.56 34.1067 27.8267 33.16 27.8267 32C27.8267 31.8067 27.8534 31.62 27.8934 31.44H8.90004C8.86004 31.62 8.83337 31.8067 8.83337 32C8.83337 33.1667 9.56004 34.1067 10.4667 34.1067H10.46Z" stroke="#081F36" stroke-linejoin="round"/>
<path d="M12.4199 5.89333C11.7866 5.89333 11.2466 6.36667 10.9733 7.04667V34.1067H30.0866C30.8266 34.1067 31.4199 33.5067 31.4199 32.7733V5.89333H12.4199Z" fill="white"/>
<path d="M12.4199 5.89333C11.7866 5.89333 11.2466 6.36667 10.9733 7.04667V34.1067H30.0866C30.8266 34.1067 31.4199 33.5067 31.4199 32.7733V5.89333H12.4199Z" stroke="#081F36" stroke-linejoin="round"/>
<path d="M31.42 5.89333H12.42C13.32 5.89333 14.0534 6.84 14.0534 8C14.0534 8.19333 14.0267 8.38 13.9867 8.56H32.9867C33.0267 8.38 33.0534 8.19333 33.0534 8C33.0534 6.83333 32.3267 5.89333 31.42 5.89333Z" fill="white" stroke="#081F36" stroke-linejoin="round"/>
<path d="M14.5267 21.3333H27.8601" stroke="#081F36" stroke-linejoin="round"/>
<path d="M14.5267 24.6667H27.8601" stroke="#081F36" stroke-linejoin="round"/>
<path d="M14.5267 28H21.1934" stroke="#081F36" stroke-linejoin="round"/>
<path d="M14.5267 14.6667H27.8601" stroke="#081F36" stroke-linejoin="round"/>
<path d="M14.5267 18H27.8601" stroke="#081F36" stroke-linejoin="round"/>
<path d="M38.4734 19.8C38.9 19.1467 39.1667 16.5933 39.1667 16.5933C39.1667 16.5933 36.6134 16.8667 35.96 17.2867C35.3067 17.7067 30.3334 22.08 29.8334 22.66C29.3334 23.2333 30.02 25.7333 30.02 25.7333C30.02 25.7333 32.52 26.42 33.0934 25.92C33.6667 25.42 38.04 20.4467 38.4667 19.7933L38.4734 19.8Z" fill="white" stroke="#081F36" stroke-linejoin="round"/>
<path d="M39.0067 16.76L26.9333 28.8333" stroke="#081F36" stroke-linejoin="round"/>
<path d="M35.3333 17.7667L34.8866 20.88L37.9999 20.44" stroke="#081F36" stroke-linejoin="round"/>
</g>
<defs>
<clipPath id="clip0_124_291">
<rect width="40" height="40" fill="white"/>
</clipPath>
</defs>
</svg>
