<svg width="40" height="40" viewBox="0 0 40 40" fill="none" xmlns="http://www.w3.org/2000/svg">
<g clip-path="url(#clip0_93_2027)">
<path d="M6.36008 35.9867C4.28675 35.82 2.38008 35.62 0.666748 35.3733L2.29341 33.02L0.666748 30.5267C2.42008 30.8133 5.94675 31.1133 8.34008 31.3067V36.06L6.36008 35.9933V35.9867Z" stroke="#081F36" stroke-linecap="round" stroke-linejoin="round"/>
<path d="M4.69336 32.62C4.69336 32.62 6.53336 32.5267 8.34003 31.3V33.58L4.69336 32.62Z" stroke="#081F36" stroke-linecap="round" stroke-linejoin="round"/>
<path d="M33.6399 35.9867C35.7132 35.82 37.6199 35.62 39.3332 35.3733L37.7066 33.02L39.3332 30.5267C37.5799 30.8133 34.0532 31.1133 31.6599 31.3067V36.06L33.6399 35.9933V35.9867Z" stroke="#081F36" stroke-linecap="round" stroke-linejoin="round"/>
<path d="M35.3066 32.62C35.3066 32.62 33.4666 32.5267 31.6599 31.3V33.58L35.3066 32.62Z" stroke="#081F36" stroke-linecap="round" stroke-linejoin="round"/>
<path d="M20.0134 39.1666C23.7067 39.1666 27.1934 38.9933 30.2867 38.6933C32.12 38.5133 33.8134 38.2866 35.3334 38.0133V32.6266C33.78 32.94 31.8867 33.22 29.7667 33.4266C26.8734 33.7133 23.5467 33.8733 20.0134 33.8733C16.48 33.8733 13.1534 33.7066 10.26 33.4266C8.14003 33.22 6.24669 32.94 4.69336 32.6266V38.0133C6.21336 38.2866 7.90669 38.5133 9.74003 38.6933C12.8267 39 16.3134 39.1666 20.0134 39.1666Z" fill="#EAEAE3" stroke="#081F36" stroke-linecap="round" stroke-linejoin="round"/>
<path d="M20.0134 33.16C20.0134 33.16 31.6134 30.0467 31.6134 22.2933V6.14001H8.38672V22.2933C8.38672 30.0467 19.9867 33.16 19.9867 33.16H20.0201H20.0134Z" stroke="#081F36" stroke-linecap="round" stroke-linejoin="round"/>
<path d="M16.3401 18.1733L23.6601 10.8533H16.3401L23.6601 18.1733" stroke="#081F36" stroke-linecap="round" stroke-linejoin="round"/>
<path d="M20 12.5933V27.8267" stroke="#081F36" stroke-linecap="round" stroke-linejoin="round"/>
<path d="M25.2667 21.2067L27.6933 18.9333C27.6933 18.9333 27.9 25.34 20 27.8667C12.1 25.3333 12.3067 18.9333 12.3067 18.9333L14.7333 21.2067" stroke="#081F36" stroke-linecap="round" stroke-linejoin="round"/>
<path d="M28.2268 1.30666C28.1468 1.83332 28.0601 2.35332 27.9801 2.87999C27.6668 2.83332 27.3535 2.78666 27.0401 2.73999C27.1135 2.21332 27.1868 1.68666 27.2601 1.16666C25.8734 0.973323 24.4734 0.83999 23.0734 0.753323C23.0401 1.27999 23.0135 1.81332 22.9801 2.33999C22.6668 2.31999 22.3468 2.30666 22.0334 2.29332C22.0534 1.76666 22.0734 1.23332 22.0934 0.706656C20.6934 0.653323 19.2934 0.653323 17.8934 0.706656C17.9134 1.23332 17.9334 1.76666 17.9534 2.29332C17.6401 2.30666 17.3201 2.31999 17.0068 2.33999C16.9734 1.81332 16.9468 1.27999 16.9135 0.753323C15.5135 0.833323 14.1201 0.973323 12.7268 1.16666C12.8001 1.69332 12.8735 2.21999 12.9468 2.73999C12.6335 2.78666 12.3201 2.82666 12.0068 2.87999C11.9268 2.35332 11.8401 1.83332 11.7601 1.30666C10.3734 1.52666 8.99345 1.79999 7.62012 2.12666C7.74678 2.63999 7.86678 3.15999 7.99345 3.67332C7.99345 3.68666 7.99345 3.69332 8.00012 3.70666C8.12678 4.21999 8.24678 4.73999 8.37345 5.25332C16.0068 3.41999 23.9668 3.41999 31.6068 5.25332C31.7334 4.73999 31.8534 4.21999 31.9801 3.70666C31.9801 3.69332 31.9801 3.68666 31.9868 3.67332C32.1134 3.15999 32.2334 2.63999 32.3601 2.12666C30.9868 1.79999 29.6068 1.52666 28.2201 1.30666H28.2268Z" stroke="#081F36" stroke-linecap="round" stroke-linejoin="round"/>
</g>
<defs>
<clipPath id="clip0_93_2027">
<rect width="40" height="40" fill="white"/>
</clipPath>
</defs>
</svg>
