<svg width="311" height="50" viewBox="0 0 311 50" fill="none" xmlns="http://www.w3.org/2000/svg">
<g clip-path="url(#clip0_229_87)">
<path d="M32.6604 26.6661C32.6604 26.7674 32.6466 26.864 32.6328 26.9514C32.6191 27.0389 32.5915 27.1217 32.5547 27.1999C32.518 27.2781 32.4674 27.3518 32.3985 27.4162C32.302 27.5128 32.1963 27.5864 32.0769 27.6371C31.9574 27.6877 31.8241 27.7153 31.6679 27.7153C31.5117 27.7153 31.3784 27.6923 31.259 27.6371C31.1395 27.5864 31.0338 27.5128 30.9373 27.4162C30.8684 27.3472 30.8179 27.2735 30.7811 27.1999C30.7444 27.1217 30.7168 27.0389 30.703 26.9514C30.6892 26.864 30.68 26.7674 30.6754 26.6661C30.6754 26.5649 30.6754 26.4545 30.6754 26.3394C30.6754 26.2244 30.6754 26.114 30.6754 26.0127C30.6754 25.9115 30.6846 25.8149 30.703 25.7274C30.7168 25.64 30.7444 25.5572 30.7811 25.479C30.8179 25.4007 30.8684 25.3271 30.9373 25.2581C31.0338 25.1614 31.1395 25.0878 31.259 25.0372C31.3784 24.9866 31.5163 24.959 31.6679 24.959C31.8196 24.959 31.9574 24.9866 32.0769 25.0372C32.1963 25.0878 32.302 25.1614 32.3985 25.2581C32.4674 25.3271 32.518 25.4007 32.5547 25.479C32.5915 25.5572 32.6191 25.64 32.6328 25.7274C32.6466 25.8149 32.6604 25.9115 32.6604 26.0127C32.6604 26.114 32.6604 26.2244 32.6604 26.3394C32.6604 26.4545 32.6604 26.5649 32.6604 26.6661ZM32.132 26.0173C32.132 25.9345 32.1228 25.8609 32.109 25.8057C32.0952 25.7504 32.0861 25.7044 32.0677 25.6722C32.0493 25.64 32.0309 25.6078 32.0034 25.5802C31.9666 25.5388 31.916 25.502 31.8609 25.4744C31.8058 25.4467 31.7368 25.4329 31.6679 25.4329C31.599 25.4329 31.5301 25.4467 31.4703 25.4744C31.4106 25.502 31.3647 25.5342 31.3279 25.5802C31.3049 25.6078 31.282 25.64 31.2636 25.6722C31.2452 25.7044 31.236 25.7504 31.2222 25.8057C31.2084 25.8609 31.2038 25.9299 31.1992 26.0173C31.1992 26.1002 31.1947 26.2106 31.1947 26.3394C31.1947 26.4683 31.1947 26.5741 31.1992 26.6615C31.1992 26.7444 31.2084 26.818 31.2222 26.8732C31.236 26.9284 31.2452 26.9744 31.2636 27.0067C31.282 27.0389 31.3003 27.0711 31.3279 27.0987C31.3647 27.1401 31.4152 27.1769 31.4703 27.2045C31.5301 27.2321 31.5944 27.2459 31.6679 27.2459C31.7414 27.2459 31.8058 27.2321 31.8609 27.2045C31.916 27.1769 31.9666 27.1447 32.0034 27.0987C32.0309 27.0711 32.0493 27.0389 32.0677 27.0067C32.0861 26.9744 32.0998 26.9284 32.109 26.8732C32.1182 26.818 32.1274 26.749 32.132 26.6615C32.132 26.5787 32.1366 26.4683 32.1366 26.3394C32.1366 26.2106 32.1366 26.1048 32.132 26.0173Z" fill="#004386"/>
<path d="M35.1692 27.352C35.1279 27.4348 35.0681 27.4992 34.99 27.5545C34.9119 27.6097 34.8246 27.6465 34.7235 27.6741C34.6224 27.7017 34.5122 27.7155 34.3973 27.7155C34.3192 27.7155 34.2411 27.7155 34.1675 27.7063C34.094 27.6971 34.0205 27.6879 33.9516 27.6649C33.8827 27.6465 33.8137 27.6143 33.7448 27.5775C33.6759 27.5406 33.6161 27.49 33.5518 27.4256L33.8735 27.1035C33.9562 27.1863 34.0435 27.2369 34.14 27.2554C34.2365 27.2784 34.3238 27.2876 34.4019 27.2876C34.4432 27.2876 34.4892 27.2876 34.5305 27.2784C34.5719 27.2692 34.6086 27.26 34.6408 27.2416C34.673 27.2231 34.7005 27.2047 34.7189 27.1771C34.7373 27.1495 34.7511 27.1219 34.7511 27.0805C34.7511 27.0299 34.7373 26.9885 34.7051 26.9563C34.673 26.924 34.6224 26.9056 34.5397 26.8964L34.2273 26.8642C34.0481 26.8458 33.9056 26.7952 33.8045 26.7124C33.7035 26.6296 33.6529 26.4961 33.6529 26.312C33.6529 26.2108 33.6759 26.1188 33.7172 26.0406C33.7586 25.9623 33.8137 25.8979 33.8827 25.8427C33.9516 25.7875 34.0343 25.7507 34.1262 25.7231C34.2181 25.6954 34.3146 25.6816 34.4157 25.6816C34.5719 25.6816 34.7097 25.7 34.8384 25.7323C34.967 25.7645 35.0773 25.8243 35.1738 25.9163L34.8706 26.2246C34.8108 26.174 34.7419 26.1372 34.6638 26.1188C34.5857 26.1004 34.4984 26.0912 34.4157 26.0912C34.3192 26.0912 34.2456 26.1096 34.1997 26.1464C34.1538 26.1832 34.1354 26.2292 34.1354 26.2798C34.1354 26.2982 34.1354 26.3166 34.1446 26.3351C34.1492 26.3535 34.1583 26.3719 34.1767 26.3857C34.1951 26.3995 34.2135 26.4133 34.2411 26.4271C34.2686 26.4409 34.3008 26.4455 34.3467 26.4501L34.6592 26.4823C34.8568 26.5007 35.0038 26.5605 35.1003 26.6618C35.1968 26.763 35.2473 26.8964 35.2473 27.0621C35.2473 27.1725 35.2244 27.2646 35.183 27.3474L35.1692 27.352Z" fill="#004386"/>
<path d="M37.2875 27.6921V27.5218C37.2231 27.5863 37.1542 27.6369 37.0807 27.6645C37.0072 27.6967 36.9153 27.7105 36.8004 27.7105C36.5799 27.7105 36.4144 27.6507 36.295 27.5356C36.2398 27.4804 36.2031 27.416 36.1755 27.3378C36.1479 27.2595 36.1342 27.1813 36.1342 27.0893C36.1342 27.0111 36.1479 26.9374 36.1755 26.8684C36.2031 26.7994 36.2444 26.7396 36.2996 26.6844C36.3547 26.6337 36.4236 26.5923 36.5109 26.5601C36.5936 26.5279 36.6947 26.5141 36.8096 26.5141H37.2783V26.4175C37.2783 26.307 37.2507 26.2288 37.191 26.1782C37.1358 26.1276 37.0393 26.1046 36.9061 26.1046C36.8601 26.1046 36.8142 26.1046 36.782 26.1138C36.7453 26.1184 36.7131 26.1276 36.6855 26.1414C36.658 26.1552 36.6304 26.169 36.6028 26.192C36.5799 26.2104 36.5523 26.238 36.5247 26.2702L36.2077 25.9619C36.3042 25.8561 36.4053 25.7825 36.5155 25.7456C36.6212 25.7088 36.7591 25.6904 36.9245 25.6904C37.2048 25.6904 37.4115 25.7502 37.554 25.8653C37.6964 25.9803 37.7653 26.1552 37.7653 26.3899V27.6921H37.2783H37.2875ZM37.2783 26.8546H36.8877C36.8004 26.8546 36.7315 26.873 36.6855 26.9144C36.6396 26.9558 36.612 27.0111 36.612 27.0801C36.612 27.1491 36.635 27.2043 36.6809 27.2457C36.7269 27.2872 36.8004 27.3102 36.8969 27.3102C36.9658 27.3102 37.021 27.3056 37.0715 27.2964C37.1221 27.2872 37.1634 27.2595 37.2094 27.2181C37.2553 27.1721 37.2829 27.0893 37.2829 26.965V26.8592L37.2783 26.8546Z" fill="#004386"/>
<path d="M40.049 27.692L39.5619 26.8683L39.3552 27.103V27.692H38.8589V24.9863H39.3552V26.5232L40.0122 25.7134H40.6096L39.902 26.5094L40.6601 27.692H40.049Z" fill="#004386"/>
<path d="M42.567 27.6921V27.5218C42.5027 27.5863 42.4337 27.6369 42.3602 27.6645C42.2867 27.6967 42.1948 27.7105 42.0799 27.7105C41.8594 27.7105 41.694 27.6507 41.5745 27.5356C41.5194 27.4804 41.4826 27.416 41.455 27.3378C41.4275 27.2595 41.4137 27.1813 41.4137 27.0893C41.4137 27.0111 41.4275 26.9374 41.455 26.8684C41.4826 26.7994 41.5239 26.7396 41.5791 26.6844C41.6342 26.6337 41.7031 26.5923 41.7904 26.5601C41.8732 26.5279 41.9742 26.5141 42.0891 26.5141H42.5578V26.4175C42.5578 26.307 42.5302 26.2288 42.4705 26.1782C42.4154 26.1276 42.3189 26.1046 42.1856 26.1046C42.1397 26.1046 42.0937 26.1046 42.0615 26.1138C42.0248 26.1184 41.9926 26.1276 41.9651 26.1414C41.9375 26.1552 41.9099 26.169 41.8823 26.192C41.8594 26.2104 41.8318 26.238 41.8042 26.2702L41.4872 25.9619C41.5837 25.8561 41.6848 25.7825 41.795 25.7456C41.9007 25.7088 42.0386 25.6904 42.204 25.6904C42.4843 25.6904 42.691 25.7502 42.8335 25.8653C42.9759 25.9803 43.0449 26.1552 43.0449 26.3899V27.6921H42.5578H42.567ZM42.5578 26.8546H42.1672C42.0799 26.8546 42.011 26.873 41.9651 26.9144C41.9191 26.9558 41.8915 27.0111 41.8915 27.0801C41.8915 27.1491 41.9145 27.2043 41.9605 27.2457C42.0064 27.2872 42.0799 27.3102 42.1764 27.3102C42.2453 27.3102 42.3005 27.3056 42.351 27.2964C42.4016 27.2872 42.4429 27.2595 42.4889 27.2181C42.5348 27.1721 42.5624 27.0893 42.5624 26.965V26.8592L42.5578 26.8546Z" fill="#004386"/>
<path d="M32.6328 30.1952C32.5915 30.2964 32.5318 30.3884 32.4582 30.4666C32.3847 30.5449 32.2882 30.6047 32.1779 30.6507C32.0677 30.6967 31.9436 30.7151 31.8058 30.7151H31.2865V31.7321H30.7581V29.0264H31.8058C31.9436 29.0264 32.0677 29.0494 32.1779 29.0908C32.2882 29.1368 32.3801 29.1966 32.4582 29.2748C32.5364 29.3531 32.5961 29.4405 32.6328 29.5463C32.6742 29.6476 32.6926 29.758 32.6926 29.873C32.6926 29.9881 32.6742 30.0939 32.6328 30.1997V30.1952ZM32.0631 29.6016C31.9942 29.5325 31.8977 29.5003 31.7782 29.5003H31.2865V30.2412H31.7782C31.8977 30.2412 31.9942 30.209 32.0631 30.1399C32.132 30.0709 32.1688 29.9835 32.1688 29.873C32.1688 29.7626 32.132 29.6706 32.0631 29.6016Z" fill="#004386"/>
<path d="M35.2152 31.1891C35.183 31.3088 35.1279 31.4146 35.036 31.5113C34.9762 31.5757 34.8935 31.6355 34.7924 31.6815C34.6914 31.7275 34.5673 31.7551 34.4203 31.7551C34.2732 31.7551 34.1492 31.7321 34.0527 31.6815C33.9516 31.6355 33.8735 31.5757 33.8137 31.5113C33.7264 31.4192 33.6667 31.3088 33.6345 31.1891C33.6024 31.0695 33.5886 30.9177 33.5886 30.7382C33.5886 30.5587 33.6024 30.4069 33.6345 30.2919C33.6667 30.1768 33.7264 30.0664 33.8137 29.9743C33.8735 29.9099 33.9562 29.8501 34.0527 29.8041C34.1537 29.7581 34.2732 29.7305 34.4203 29.7305C34.5673 29.7305 34.6914 29.7535 34.7924 29.8041C34.8935 29.8501 34.9762 29.9099 35.036 29.9743C35.1233 30.0664 35.183 30.1768 35.2152 30.2919C35.2473 30.4069 35.2611 30.5587 35.2611 30.7382C35.2611 30.9177 35.2473 31.0695 35.2152 31.1891ZM34.7465 30.4621C34.7327 30.3793 34.7005 30.3149 34.6546 30.2642C34.5949 30.2044 34.5213 30.1768 34.4248 30.1768C34.3284 30.1768 34.2548 30.2044 34.1997 30.2642C34.1492 30.3149 34.117 30.3793 34.1078 30.4621C34.094 30.5449 34.0894 30.637 34.0894 30.7428C34.0894 30.8486 34.094 30.9407 34.1078 31.0235C34.1216 31.1063 34.1537 31.1753 34.1997 31.226C34.2594 31.2858 34.3329 31.3134 34.4248 31.3134C34.5167 31.3134 34.5949 31.2858 34.6546 31.226C34.7051 31.1753 34.7373 31.1063 34.7465 31.0235C34.7603 30.9407 34.7649 30.8486 34.7649 30.7428C34.7649 30.637 34.7603 30.5449 34.7465 30.4621Z" fill="#004386"/>
<path d="M37.3702 30.2923C37.3334 30.2555 37.2921 30.2232 37.2553 30.2048C37.2185 30.1864 37.168 30.1726 37.1083 30.1726C37.0715 30.1726 37.0301 30.1818 36.9934 30.1956C36.9566 30.2094 36.9199 30.2324 36.8923 30.2601C36.8601 30.2923 36.8372 30.3291 36.8188 30.3751C36.8004 30.4211 36.7912 30.4763 36.7912 30.5361V31.7279H36.2996V29.7493H36.782V29.938C36.828 29.8781 36.8969 29.8275 36.9842 29.7861C37.0715 29.7447 37.168 29.7217 37.2783 29.7217C37.3748 29.7217 37.4575 29.7355 37.531 29.7631C37.6045 29.7907 37.6734 29.8413 37.7424 29.9057L37.3702 30.2831V30.2923Z" fill="#004386"/>
<path d="M39.346 31.7324C39.2449 31.7324 39.1576 31.714 39.0841 31.6818C39.0105 31.6496 38.9508 31.6036 38.9049 31.553C38.8589 31.4978 38.8221 31.4379 38.8038 31.3735C38.7808 31.3045 38.7716 31.2355 38.7716 31.1664V30.1863H38.5648V29.809H38.7716V29.2246H39.2679V29.809H39.6171V30.1863H39.2679V31.1342C39.2679 31.2539 39.323 31.3137 39.4379 31.3137H39.6171V31.7324H39.346Z" fill="#004386"/>
<path d="M32.6328 34.2352C32.5915 34.3364 32.5318 34.4285 32.4582 34.5067C32.3847 34.5849 32.2882 34.6447 32.1779 34.6907C32.0677 34.7368 31.9436 34.7552 31.8058 34.7552H31.2865V35.7721H30.7581V33.0664H31.8058C31.9436 33.0664 32.0677 33.0894 32.1779 33.1308C32.2882 33.1768 32.3801 33.2367 32.4582 33.3149C32.5364 33.3931 32.5961 33.4805 32.6328 33.5864C32.6742 33.6876 32.6926 33.798 32.6926 33.9131C32.6926 34.0281 32.6742 34.134 32.6328 34.2398V34.2352ZM32.0631 33.6416C31.9942 33.5726 31.8977 33.5404 31.7782 33.5404H31.2865V34.2812H31.7782C31.8977 34.2812 31.9942 34.249 32.0631 34.18C32.132 34.1109 32.1688 34.0235 32.1688 33.9131C32.1688 33.8026 32.132 33.7106 32.0631 33.6416Z" fill="#004386"/>
<path d="M34.7557 34.3323C34.7189 34.2955 34.6776 34.2633 34.6408 34.2449C34.6041 34.2265 34.5535 34.2127 34.4938 34.2127C34.457 34.2127 34.4157 34.2219 34.3789 34.2357C34.3421 34.2495 34.3054 34.2725 34.2778 34.3001C34.2456 34.3323 34.2227 34.3691 34.2043 34.4151C34.1859 34.4611 34.1767 34.5164 34.1767 34.5762V35.768H33.6851V33.7893H34.1675V33.978C34.2135 33.9182 34.2824 33.8676 34.3697 33.8261C34.457 33.7847 34.5535 33.7617 34.6638 33.7617C34.7603 33.7617 34.843 33.7755 34.9165 33.8031C34.99 33.8307 35.0589 33.8814 35.1279 33.9458L34.7557 34.3231V34.3323Z" fill="#004386"/>
<path d="M37.5172 35.2292C37.485 35.3488 37.4299 35.4547 37.338 35.5513C37.2783 35.6157 37.1956 35.6755 37.0945 35.7215C36.9934 35.7676 36.8693 35.7952 36.7223 35.7952C36.5753 35.7952 36.4512 35.7722 36.3547 35.7215C36.2536 35.6755 36.1755 35.6157 36.1158 35.5513C36.0285 35.4593 35.9687 35.3488 35.9366 35.2292C35.9044 35.1095 35.8906 34.9577 35.8906 34.7782C35.8906 34.5988 35.9044 34.4469 35.9366 34.3319C35.9687 34.2169 36.0285 34.1064 36.1158 34.0144C36.1755 33.95 36.2582 33.8901 36.3547 33.8441C36.4558 33.7981 36.5753 33.7705 36.7223 33.7705C36.8693 33.7705 36.9934 33.7935 37.0945 33.8441C37.1956 33.8901 37.2783 33.95 37.338 34.0144C37.4253 34.1064 37.485 34.2169 37.5172 34.3319C37.5494 34.4469 37.5632 34.5988 37.5632 34.7782C37.5632 34.9577 37.5494 35.1095 37.5172 35.2292ZM37.0485 34.5021C37.0347 34.4193 37.0026 34.3549 36.9566 34.3043C36.8969 34.2445 36.8234 34.2169 36.7269 34.2169C36.6304 34.2169 36.5569 34.2445 36.5017 34.3043C36.4512 34.3549 36.419 34.4193 36.4098 34.5021C36.3961 34.585 36.3915 34.677 36.3915 34.7828C36.3915 34.8887 36.3961 34.9807 36.4098 35.0635C36.4236 35.1464 36.4558 35.2154 36.5017 35.266C36.5615 35.3258 36.635 35.3534 36.7269 35.3534C36.8188 35.3534 36.8969 35.3258 36.9566 35.266C37.0072 35.2154 37.0393 35.1464 37.0485 35.0635C37.0623 34.9807 37.0669 34.8887 37.0669 34.7828C37.0669 34.677 37.0623 34.585 37.0485 34.5021Z" fill="#004386"/>
<path d="M40.899 35.7729V34.5765C40.899 34.5074 40.8898 34.4522 40.8715 34.4062C40.8531 34.3602 40.8255 34.3234 40.7934 34.2958C40.7612 34.2682 40.7244 34.2498 40.6877 34.236C40.6463 34.2222 40.6096 34.2176 40.5728 34.2176C40.536 34.2176 40.4947 34.2222 40.4579 34.236C40.4166 34.2498 40.3844 34.2682 40.3522 34.2958C40.3201 34.3234 40.2925 34.3602 40.2741 34.4062C40.2558 34.4522 40.242 34.5074 40.242 34.5673V35.7729H39.7457V34.5765C39.7457 34.5074 39.7365 34.4522 39.7182 34.4062C39.6998 34.3602 39.6722 34.3234 39.64 34.2958C39.6079 34.2682 39.5711 34.2498 39.5344 34.236C39.493 34.2222 39.4562 34.2176 39.4195 34.2176C39.3827 34.2176 39.3414 34.2222 39.3046 34.236C39.2633 34.2498 39.2311 34.2682 39.1989 34.2958C39.1668 34.3234 39.1438 34.3602 39.1208 34.4062C39.1024 34.4522 39.0887 34.5074 39.0887 34.5765V35.7729H38.597V33.7942H39.0795V33.9783C39.1438 33.9138 39.2219 33.8632 39.3092 33.8264C39.3965 33.7896 39.4838 33.7712 39.5757 33.7712C39.686 33.7712 39.7871 33.7896 39.8744 33.831C39.9617 33.8724 40.0352 33.9369 40.0995 34.0197C40.1822 33.9323 40.2741 33.8678 40.366 33.8264C40.4579 33.7896 40.5682 33.7666 40.6923 33.7666C40.7888 33.7666 40.8807 33.7804 40.968 33.8126C41.0553 33.8448 41.1242 33.8862 41.1793 33.9415C41.262 34.0243 41.3172 34.1071 41.3493 34.2037C41.3815 34.2958 41.3953 34.397 41.3953 34.5074V35.7729H40.899Z" fill="#004386"/>
<path d="M44.0374 35.2292C44.0052 35.3488 43.95 35.4547 43.8582 35.5513C43.7984 35.6157 43.7157 35.6755 43.6146 35.7215C43.5135 35.7676 43.3895 35.7952 43.2424 35.7952C43.0954 35.7952 42.9713 35.7722 42.8748 35.7215C42.7738 35.6755 42.6956 35.6157 42.6359 35.5513C42.5486 35.4593 42.4889 35.3488 42.4567 35.2292C42.4246 35.1095 42.4108 34.9577 42.4108 34.7782C42.4108 34.5988 42.4246 34.4469 42.4567 34.3319C42.4889 34.2169 42.5486 34.1064 42.6359 34.0144C42.6956 33.95 42.7784 33.8901 42.8748 33.8441C42.9759 33.7981 43.0954 33.7705 43.2424 33.7705C43.3895 33.7705 43.5135 33.7935 43.6146 33.8441C43.7157 33.8901 43.7984 33.95 43.8582 34.0144C43.9455 34.1064 44.0052 34.2169 44.0374 34.3319C44.0695 34.4469 44.0833 34.5988 44.0833 34.7782C44.0833 34.9577 44.0695 35.1095 44.0374 35.2292ZM43.5687 34.5021C43.5549 34.4193 43.5227 34.3549 43.4768 34.3043C43.417 34.2445 43.3435 34.2169 43.247 34.2169C43.1505 34.2169 43.077 34.2445 43.0219 34.3043C42.9713 34.3549 42.9392 34.4193 42.93 34.5021C42.9162 34.585 42.9116 34.677 42.9116 34.7828C42.9116 34.8887 42.9162 34.9807 42.93 35.0635C42.9438 35.1464 42.9759 35.2154 43.0219 35.266C43.0816 35.3258 43.1551 35.3534 43.247 35.3534C43.3389 35.3534 43.417 35.3258 43.4768 35.266C43.5273 35.2154 43.5595 35.1464 43.5687 35.0635C43.5825 34.9807 43.5871 34.8887 43.5871 34.7828C43.5871 34.677 43.5825 34.585 43.5687 34.5021Z" fill="#004386"/>
<path d="M45.765 35.7725C45.6639 35.7725 45.5766 35.7541 45.5031 35.7219C45.4296 35.6896 45.3699 35.6436 45.3239 35.593C45.278 35.5378 45.2412 35.478 45.2228 35.4136C45.1998 35.3445 45.1907 35.2755 45.1907 35.2065V34.2264H44.9839V33.849H45.1907V33.2646H45.6869V33.849H46.0361V34.2264H45.6869V35.1743C45.6869 35.2939 45.742 35.3537 45.8569 35.3537H46.0361V35.7725H45.765Z" fill="#004386"/>
<path d="M47.024 33.4538V33.0488H47.5295V33.4538H47.024ZM47.0286 35.7683V33.7897H47.5249V35.7683H47.0286Z" fill="#004386"/>
<path d="M50.1807 35.2292C50.1485 35.3488 50.0934 35.4547 50.0015 35.5513C49.9418 35.6157 49.8591 35.6755 49.758 35.7215C49.6569 35.7676 49.5328 35.7952 49.3858 35.7952C49.2387 35.7952 49.1147 35.7722 49.0182 35.7215C48.9171 35.6755 48.839 35.6157 48.7793 35.5513C48.692 35.4593 48.6322 35.3488 48.6001 35.2292C48.5679 35.1095 48.5541 34.9577 48.5541 34.7782C48.5541 34.5988 48.5679 34.4469 48.6001 34.3319C48.6322 34.2169 48.692 34.1064 48.7793 34.0144C48.839 33.95 48.9217 33.8901 49.0182 33.8441C49.1193 33.7981 49.2387 33.7705 49.3858 33.7705C49.5328 33.7705 49.6569 33.7935 49.758 33.8441C49.8591 33.8901 49.9418 33.95 50.0015 34.0144C50.0888 34.1064 50.1485 34.2169 50.1807 34.3319C50.2129 34.4469 50.2266 34.5988 50.2266 34.7782C50.2266 34.9577 50.2129 35.1095 50.1807 35.2292ZM49.712 34.5021C49.6982 34.4193 49.6661 34.3549 49.6201 34.3043C49.5604 34.2445 49.4869 34.2169 49.3904 34.2169C49.2939 34.2169 49.2204 34.2445 49.1652 34.3043C49.1147 34.3549 49.0825 34.4193 49.0733 34.5021C49.0595 34.585 49.055 34.677 49.055 34.7828C49.055 34.8887 49.0595 34.9807 49.0733 35.0635C49.0871 35.1464 49.1193 35.2154 49.1652 35.266C49.225 35.3258 49.2985 35.3534 49.3904 35.3534C49.4823 35.3534 49.5604 35.3258 49.6201 35.266C49.6707 35.2154 49.7028 35.1464 49.712 35.0635C49.7258 34.9807 49.7304 34.8887 49.7304 34.7828C49.7304 34.677 49.7258 34.585 49.712 34.5021Z" fill="#004386"/>
<path d="M52.4138 35.7722V34.5758C52.4138 34.5067 52.4046 34.4515 52.3862 34.4055C52.3679 34.3595 52.3403 34.3227 52.3081 34.2951C52.276 34.2675 52.2392 34.2491 52.2024 34.2353C52.1611 34.2215 52.1243 34.2169 52.0876 34.2169C52.0508 34.2169 52.0095 34.2215 51.9727 34.2353C51.9313 34.2491 51.8992 34.2675 51.867 34.2951C51.8349 34.3227 51.8119 34.3595 51.7889 34.4055C51.7705 34.4515 51.7567 34.5067 51.7567 34.5758V35.7722H51.2651V33.7935H51.7476V33.9776C51.8119 33.9086 51.89 33.8579 51.9773 33.8211C52.0646 33.7889 52.1519 33.7705 52.2438 33.7705C52.3403 33.7705 52.4322 33.7843 52.5103 33.8165C52.5884 33.8487 52.6573 33.8901 52.7125 33.9454C52.7952 34.0282 52.8457 34.111 52.8733 34.2076C52.9009 34.2997 52.9147 34.4009 52.9147 34.5114V35.7768H52.4184L52.4138 35.7722Z" fill="#004386"/>
<path d="M32.2928 39.8082L32.132 39.3297H31.1717L31.0063 39.8082H30.4549L31.4382 37.1025H31.8517L32.8396 39.8082H32.2882H32.2928ZM31.6633 37.8986L31.3233 38.8833H31.9942L31.6633 37.8986Z" fill="#004386"/>
<path d="M35.2519 39.4721C35.2106 39.5549 35.1508 39.6194 35.0727 39.6746C34.9946 39.7298 34.9073 39.7666 34.8062 39.7942C34.7051 39.8218 34.5949 39.8356 34.48 39.8356C34.4019 39.8356 34.3238 39.8356 34.2502 39.8264C34.1767 39.8172 34.1032 39.808 34.0343 39.785C33.9654 39.7666 33.8964 39.7344 33.8275 39.6976C33.7586 39.6608 33.6988 39.6102 33.6345 39.5457L33.9562 39.2236C34.0389 39.3064 34.1262 39.3571 34.2227 39.3755C34.3192 39.3985 34.4065 39.4077 34.4846 39.4077C34.5259 39.4077 34.5719 39.4077 34.6132 39.3985C34.6546 39.3893 34.6913 39.3801 34.7235 39.3617C34.7557 39.3433 34.7832 39.3249 34.8016 39.2972C34.82 39.2696 34.8338 39.242 34.8338 39.2006C34.8338 39.15 34.82 39.1086 34.7878 39.0764C34.7557 39.0442 34.7051 39.0258 34.6224 39.0166L34.31 38.9843C34.1308 38.9659 33.9883 38.9153 33.8872 38.8325C33.7862 38.7497 33.7356 38.6162 33.7356 38.4322C33.7356 38.3309 33.7586 38.2389 33.7999 38.1607C33.8413 38.0824 33.8964 38.018 33.9654 37.9628C34.0343 37.9076 34.117 37.8708 34.2089 37.8432C34.3008 37.8156 34.3973 37.8018 34.4984 37.8018C34.6546 37.8018 34.7924 37.8202 34.9211 37.8524C35.0497 37.8846 35.16 37.9444 35.2565 38.0364L34.9533 38.3447C34.8935 38.2941 34.8246 38.2573 34.7465 38.2389C34.6684 38.2205 34.5811 38.2113 34.4984 38.2113C34.4019 38.2113 34.3284 38.2297 34.2824 38.2665C34.2365 38.3033 34.2181 38.3493 34.2181 38.4C34.2181 38.4184 34.2181 38.4368 34.2273 38.4552C34.2319 38.4736 34.241 38.492 34.2594 38.5058C34.2778 38.5196 34.2962 38.5334 34.3238 38.5472C34.3513 38.561 34.3835 38.5656 34.4294 38.5702L34.7419 38.6024C34.9395 38.6208 35.0865 38.6806 35.183 38.7819C35.2795 38.8831 35.33 39.0166 35.33 39.1822C35.33 39.2926 35.3071 39.3847 35.2657 39.4675L35.2519 39.4721Z" fill="#004386"/>
<path d="M37.7791 39.4721C37.7378 39.5549 37.678 39.6194 37.5999 39.6746C37.5218 39.7298 37.4345 39.7666 37.3334 39.7942C37.2323 39.8218 37.122 39.8356 37.0072 39.8356C36.9291 39.8356 36.8509 39.8356 36.7774 39.8264C36.7039 39.8172 36.6304 39.808 36.5615 39.785C36.4925 39.7666 36.4236 39.7344 36.3547 39.6976C36.2858 39.6608 36.226 39.6102 36.1617 39.5457L36.4834 39.2236C36.5661 39.3064 36.6534 39.3571 36.7499 39.3755C36.8464 39.3985 36.9337 39.4077 37.0118 39.4077C37.0531 39.4077 37.0991 39.4077 37.1404 39.3985C37.1818 39.3893 37.2185 39.3801 37.2507 39.3617C37.2829 39.3433 37.3104 39.3249 37.3288 39.2972C37.3472 39.2696 37.361 39.242 37.361 39.2006C37.361 39.15 37.3472 39.1086 37.315 39.0764C37.2829 39.0442 37.2323 39.0258 37.1496 39.0166L36.8372 38.9843C36.658 38.9659 36.5155 38.9153 36.4144 38.8325C36.3133 38.7497 36.2628 38.6162 36.2628 38.4322C36.2628 38.3309 36.2858 38.2389 36.3271 38.1607C36.3685 38.0824 36.4236 38.018 36.4925 37.9628C36.5615 37.9076 36.6442 37.8708 36.7361 37.8432C36.828 37.8156 36.9245 37.8018 37.0256 37.8018C37.1818 37.8018 37.3196 37.8202 37.4483 37.8524C37.5769 37.8846 37.6872 37.9444 37.7837 38.0364L37.4804 38.3447C37.4207 38.2941 37.3518 38.2573 37.2737 38.2389C37.1956 38.2205 37.1083 38.2113 37.0256 38.2113C36.9291 38.2113 36.8555 38.2297 36.8096 38.2665C36.7636 38.3033 36.7453 38.3493 36.7453 38.4C36.7453 38.4184 36.7453 38.4368 36.7545 38.4552C36.759 38.4736 36.7682 38.492 36.7866 38.5058C36.805 38.5196 36.8234 38.5334 36.8509 38.5472C36.8785 38.561 36.9107 38.5656 36.9566 38.5702L37.2691 38.6024C37.4667 38.6208 37.6137 38.6806 37.7102 38.7819C37.8067 38.8831 37.8572 39.0166 37.8572 39.1822C37.8572 39.2926 37.8343 39.3847 37.7929 39.4675L37.7791 39.4721Z" fill="#004386"/>
<path d="M40.3982 39.2692C40.366 39.3889 40.3109 39.4947 40.219 39.5913C40.1593 39.6558 40.0766 39.7156 39.9755 39.7616C39.8744 39.8076 39.7503 39.8352 39.6033 39.8352C39.4562 39.8352 39.3322 39.8122 39.2357 39.7616C39.1346 39.7156 39.0565 39.6558 38.9968 39.5913C38.9095 39.4993 38.8497 39.3889 38.8176 39.2692C38.7854 39.1496 38.7716 38.9977 38.7716 38.8183C38.7716 38.6388 38.7854 38.487 38.8176 38.3719C38.8497 38.2569 38.9095 38.1465 38.9968 38.0544C39.0565 37.99 39.1392 37.9302 39.2357 37.8842C39.3368 37.8382 39.4562 37.8105 39.6033 37.8105C39.7503 37.8105 39.8744 37.8336 39.9755 37.8842C40.0766 37.9302 40.1593 37.99 40.219 38.0544C40.3063 38.1465 40.366 38.2569 40.3982 38.3719C40.4304 38.487 40.4441 38.6388 40.4441 38.8183C40.4441 38.9977 40.4304 39.1496 40.3982 39.2692ZM39.9295 38.5422C39.9157 38.4594 39.8836 38.3949 39.8376 38.3443C39.7779 38.2845 39.7044 38.2569 39.6079 38.2569C39.5114 38.2569 39.4379 38.2845 39.3827 38.3443C39.3322 38.3949 39.3 38.4594 39.2908 38.5422C39.277 38.625 39.2725 38.717 39.2725 38.8229C39.2725 38.9287 39.277 39.0207 39.2908 39.1036C39.3046 39.1864 39.3368 39.2554 39.3827 39.306C39.4425 39.3659 39.516 39.3935 39.6079 39.3935C39.6998 39.3935 39.7779 39.3659 39.8376 39.306C39.8882 39.2554 39.9203 39.1864 39.9295 39.1036C39.9433 39.0207 39.9479 38.9287 39.9479 38.8229C39.9479 38.717 39.9433 38.625 39.9295 38.5422Z" fill="#004386"/>
<path d="M42.6451 39.7666C42.5394 39.8126 42.4199 39.831 42.2821 39.831C42.1856 39.831 42.0799 39.8172 41.9742 39.785C41.8686 39.7528 41.7721 39.7022 41.6894 39.624C41.6021 39.5457 41.5331 39.4445 41.478 39.3111C41.4228 39.1822 41.3953 39.0166 41.3953 38.8141C41.3953 38.6116 41.4228 38.4506 41.478 38.3171C41.5331 38.1883 41.6021 38.0824 41.6894 38.0088C41.7767 37.9306 41.8686 37.88 41.9742 37.8478C42.0799 37.8156 42.181 37.8018 42.2821 37.8018C42.4199 37.8018 42.5394 37.8248 42.6451 37.8662C42.7508 37.9076 42.8473 37.9766 42.9346 38.0686L42.5991 38.4046C42.5486 38.3493 42.4981 38.3079 42.4521 38.2849C42.4062 38.2619 42.3464 38.2481 42.2821 38.2481C42.1672 38.2481 42.0707 38.2895 42.0018 38.3769C41.965 38.423 41.9375 38.4828 41.9191 38.5518C41.9007 38.6208 41.8915 38.7083 41.8915 38.8141C41.8915 39.0166 41.9283 39.1638 42.0018 39.2558C42.0707 39.3433 42.1672 39.3847 42.2821 39.3847C42.3464 39.3847 42.4062 39.3709 42.4521 39.3479C42.4981 39.3249 42.5486 39.2834 42.5991 39.2282L42.9346 39.5595C42.8473 39.6516 42.7508 39.7206 42.6451 39.762V39.7666Z" fill="#004386"/>
<path d="M43.8949 37.4938V37.0889H44.4003V37.4938H43.8949ZM43.8995 39.8084V37.8297H44.3957V39.8084H43.8995Z" fill="#004386"/>
<path d="M46.5232 39.8083V39.638C46.4588 39.7025 46.3899 39.7531 46.3164 39.7807C46.2429 39.8129 46.151 39.8267 46.0361 39.8267C45.8156 39.8267 45.6501 39.7669 45.5307 39.6518C45.4755 39.5966 45.4388 39.5322 45.4112 39.454C45.3836 39.3758 45.3699 39.2975 45.3699 39.2055C45.3699 39.1273 45.3836 39.0536 45.4112 38.9846C45.4388 38.9156 45.4801 38.8558 45.5353 38.8006C45.5904 38.7499 45.6593 38.7085 45.7466 38.6763C45.8293 38.6441 45.9304 38.6303 46.0453 38.6303H46.514V38.5337C46.514 38.4232 46.4864 38.345 46.4267 38.2944C46.3715 38.2438 46.275 38.2208 46.1418 38.2208C46.0958 38.2208 46.0499 38.2208 46.0177 38.23C45.981 38.2346 45.9488 38.2438 45.9212 38.2576C45.8937 38.2714 45.8661 38.2852 45.8385 38.3082C45.8156 38.3266 45.788 38.3542 45.7604 38.3864L45.4434 38.0781C45.5399 37.9723 45.641 37.8987 45.7512 37.8619C45.8569 37.825 45.9948 37.8066 46.1602 37.8066C46.4405 37.8066 46.6472 37.8665 46.7897 37.9815C46.9321 38.0965 47.001 38.2714 47.001 38.5061V39.8083H46.514H46.5232ZM46.514 38.9708H46.1234C46.0361 38.9708 45.9672 38.9892 45.9212 39.0306C45.8753 39.0721 45.8477 39.1273 45.8477 39.1963C45.8477 39.2653 45.8707 39.3205 45.9166 39.3619C45.9626 39.4034 46.0361 39.4264 46.1326 39.4264C46.2015 39.4264 46.2567 39.4218 46.3072 39.4126C46.3578 39.4034 46.3991 39.3758 46.4451 39.3343C46.491 39.2883 46.5186 39.2055 46.5186 39.0813V38.9754L46.514 38.9708Z" fill="#004386"/>
<path d="M48.7379 39.8076C48.6368 39.8076 48.5495 39.7892 48.476 39.757C48.4025 39.7248 48.3428 39.6788 48.2968 39.6282C48.2509 39.573 48.2141 39.5131 48.1957 39.4487C48.1727 39.3797 48.1636 39.3107 48.1636 39.2416V38.2615H47.9568V37.8842H48.1636V37.2998H48.6598V37.8842H49.009V38.2615H48.6598V39.2094C48.6598 39.3291 48.7149 39.3889 48.8298 39.3889H49.009V39.8076H48.7379Z" fill="#004386"/>
<path d="M49.9969 37.4938V37.0889H50.5023V37.4938H49.9969ZM50.0015 39.8084V37.8297H50.4977V39.8084H50.0015Z" fill="#004386"/>
<path d="M53.1536 39.2692C53.1214 39.3889 53.0663 39.4947 52.9744 39.5913C52.9147 39.6558 52.832 39.7156 52.7309 39.7616C52.6298 39.8076 52.5057 39.8352 52.3587 39.8352C52.2116 39.8352 52.0876 39.8122 51.9911 39.7616C51.89 39.7156 51.8119 39.6558 51.7522 39.5913C51.6649 39.4993 51.6051 39.3889 51.573 39.2692C51.5408 39.1496 51.527 38.9977 51.527 38.8183C51.527 38.6388 51.5408 38.487 51.573 38.3719C51.6051 38.2569 51.6649 38.1465 51.7522 38.0544C51.8119 37.99 51.8946 37.9302 51.9911 37.8842C52.0922 37.8382 52.2116 37.8105 52.3587 37.8105C52.5057 37.8105 52.6298 37.8336 52.7309 37.8842C52.832 37.9302 52.9147 37.99 52.9744 38.0544C53.0617 38.1465 53.1214 38.2569 53.1536 38.3719C53.1858 38.487 53.1995 38.6388 53.1995 38.8183C53.1995 38.9977 53.1858 39.1496 53.1536 39.2692ZM52.6849 38.5422C52.6711 38.4594 52.639 38.3949 52.593 38.3443C52.5333 38.2845 52.4598 38.2569 52.3633 38.2569C52.2668 38.2569 52.1933 38.2845 52.1381 38.3443C52.0876 38.3949 52.0554 38.4594 52.0462 38.5422C52.0324 38.625 52.0279 38.717 52.0279 38.8229C52.0279 38.9287 52.0324 39.0207 52.0462 39.1036C52.06 39.1864 52.0922 39.2554 52.1381 39.306C52.1979 39.3659 52.2714 39.3935 52.3633 39.3935C52.4552 39.3935 52.5333 39.3659 52.593 39.306C52.6436 39.2554 52.6757 39.1864 52.6849 39.1036C52.6987 39.0207 52.7033 38.9287 52.7033 38.8229C52.7033 38.717 52.6987 38.625 52.6849 38.5422Z" fill="#004386"/>
<path d="M55.3867 39.8083V38.6119C55.3867 38.5429 55.3775 38.4877 55.3591 38.4416C55.3408 38.3956 55.3132 38.3588 55.281 38.3312C55.2489 38.3036 55.2121 38.2852 55.1753 38.2714C55.134 38.2576 55.0972 38.253 55.0605 38.253C55.0237 38.253 54.9824 38.2576 54.9456 38.2714C54.9042 38.2852 54.8721 38.3036 54.8399 38.3312C54.8078 38.3588 54.7848 38.3956 54.7618 38.4416C54.7434 38.4877 54.7296 38.5429 54.7296 38.6119V39.8083H54.238V37.8296H54.7205V38.0137C54.7848 37.9447 54.8629 37.8941 54.9502 37.8573C55.0375 37.825 55.1248 37.8066 55.2167 37.8066C55.3132 37.8066 55.4051 37.8204 55.4832 37.8527C55.5613 37.8849 55.6302 37.9263 55.6854 37.9815C55.7681 38.0643 55.8186 38.1472 55.8462 38.2438C55.8738 38.3358 55.8876 38.437 55.8876 38.5475V39.8129H55.3913L55.3867 39.8083Z" fill="#004386"/>
<path d="M78.5863 17.4771V11.4629C78.5863 10.2067 79.0595 9.32324 80.4885 9.32324C82.083 9.32324 82.3908 10.377 82.3908 11.4629V19.1429H95.1186C95.6287 19.1429 96.0698 19.3821 96.0698 19.9251C96.0698 20.4681 95.6287 20.7074 95.1186 20.7074H82.4919C83.3052 28.6634 87.8541 35.4598 95.2197 38.7913C95.8308 39.0628 96.1019 39.2653 96.1019 39.707C96.1019 40.0797 95.7619 40.4893 95.3576 40.4893C95.2565 40.4893 95.0176 40.4202 94.8154 40.3512C92.4077 39.5368 90.1975 38.2759 88.1988 36.7804C84.9042 34.3693 82.2254 31.2724 80.5621 27.536C78.2187 32.1927 75.1998 35.5564 70.7198 38.2437C69.8054 38.7545 66.612 40.5215 65.6976 40.5215C65.2887 40.5215 64.9532 40.181 64.9532 39.7392C64.9532 39.2975 65.3254 39.0582 65.6976 38.8879C73.1965 35.1469 77.6443 29.0637 78.4576 20.7028H65.9687C65.4954 20.7028 65.0176 20.5003 65.0176 19.9205C65.0176 19.3775 65.4909 19.1383 65.9687 19.1383H78.5633C78.5954 18.5953 78.5955 18.0523 78.5955 17.4725L78.5863 17.4771Z" fill="#004386"/>
<path d="M105.779 38.7907C105.779 39.9457 105.306 40.7279 104.083 40.7279C102.861 40.7279 102.388 39.9457 102.388 38.7907V13.4318C102.388 11.0528 103.541 10.5742 105.682 10.5742H110.842C111.862 10.5742 113.048 10.9469 113.048 12.1709C113.048 12.6127 112.91 13.0544 112.74 13.464L109.142 21.2819C109.073 21.42 108.972 21.6224 108.972 21.6915C108.972 21.8295 109.073 21.963 109.28 22.2022C110.364 23.4262 111.316 24.6134 111.959 26.1779C112.501 27.471 112.91 28.8974 112.91 30.3239C112.91 32.7719 111.725 34.7782 109.041 34.7782H107.107C106.633 34.7782 106.224 34.4699 106.224 33.9959C106.224 33.5219 106.597 33.2136 107.038 33.2136H107.649C108.94 33.2136 109.312 31.7504 109.312 30.2549C109.312 26.9556 108.26 24.9171 106.459 22.2989C106.326 22.0964 106.22 21.8893 106.22 21.6547C106.22 21.3464 106.358 21.0104 106.528 20.5687L109.243 13.2937C109.413 12.852 109.445 12.7139 109.445 12.6127C109.445 12.2722 109.105 12.1387 108.802 12.1387H107.171C106.05 12.1387 105.779 12.447 105.779 13.5652V38.7861V38.7907ZM126.957 24.2407C127.127 23.187 127.297 22.101 127.297 21.0104C127.297 20.4997 126.888 20.3294 126.414 20.3294H117.997C117.895 26.7209 117.183 33.8579 112.598 38.717C112.156 39.191 110.833 40.5208 110.19 40.5208C109.818 40.5208 109.409 40.2494 109.409 39.8076C109.409 39.4349 109.717 39.1266 109.951 38.8919C114.192 34.2352 114.298 28.221 114.298 22.2713V14.1128C114.298 11.4255 115.552 10.7491 118.065 10.7491H131.506C131.979 10.7491 132.457 10.9884 132.457 11.5313C132.457 12.0743 131.983 12.3136 131.506 12.3136H119.591C118.369 12.3136 118.029 12.6863 118.029 13.9103V18.7695H128.551C129.773 18.7695 131.129 19.179 131.129 20.6377C131.129 21.2175 130.89 22.9155 130.55 24.5812C129.838 28.0461 128.514 31.5847 126.203 34.4054C127.664 36.4439 129.631 37.8704 131.804 38.9241C132.176 39.0944 132.617 39.3337 132.617 39.8076C132.617 40.2171 132.245 40.5899 131.836 40.5899C131.326 40.5899 129.53 39.6742 128.919 39.3337C127.356 38.4502 125.932 37.3274 124.678 36.0712C122.504 38.1096 119.857 39.6742 117.009 40.5577C116.466 40.7279 116.43 40.7279 116.264 40.7279C115.855 40.7279 115.52 40.3552 115.52 39.9457C115.52 39.4349 115.929 39.2646 116.434 39.0622C119.012 38.0084 121.323 36.3749 123.051 34.203C121.048 31.6215 119.756 28.7318 119.012 25.5337C118.773 24.5122 118.672 23.7667 118.672 23.4262C118.672 22.3725 119.522 21.6224 120.574 21.6224C121.627 21.6224 122.1 22.2667 122.205 23.2882C122.477 26.2792 123.189 29.1367 124.581 31.8194C125.803 29.4404 126.548 26.8912 126.957 24.2407Z" fill="#004386"/>
<path d="M137.483 19.2122C137.993 19.2122 139.386 19.792 140.438 20.2659C141.389 20.6754 142.474 21.2184 143.324 21.9639C143.631 22.2354 143.732 22.6081 143.732 22.9854C143.732 24.0069 142.951 24.9917 141.899 24.9917C141.256 24.9917 140.815 24.5821 140.438 24.076C139.455 22.8197 138.402 21.6648 137.111 20.6754C136.909 20.5052 136.702 20.3027 136.702 19.9944C136.702 19.5849 137.042 19.2122 137.483 19.2122ZM137.791 37.0568C139.795 33.9968 141.421 30.6653 142.814 27.2694C142.951 26.9289 143.186 26.6252 143.595 26.6252C144.004 26.6252 144.339 26.9979 144.339 27.4075C144.339 28.2909 141.862 35.8696 141.385 37.1949C141.146 37.9403 140.636 39.6429 139.992 40.1168C139.721 40.3193 139.381 40.4205 139.041 40.4205C138.09 40.4205 137.139 39.5048 137.139 38.5155C137.139 37.9725 137.479 37.494 137.782 37.0522L137.791 37.0568ZM139.046 9.52599C139.418 9.52599 141.32 10.4095 141.931 10.7132C142.781 11.1549 144.068 11.7669 144.716 12.4802C144.987 12.7885 145.157 13.1934 145.157 13.5661C145.157 14.5508 144.275 15.4711 143.324 15.4711C142.644 15.4711 142.239 15.0616 141.862 14.5554C140.943 13.2302 139.827 11.974 138.605 10.9202C138.402 10.75 138.265 10.5797 138.265 10.3082C138.265 9.8665 138.605 9.52599 139.046 9.52599ZM162.535 20.9147H167.153C167.626 20.9147 168.104 21.154 168.104 21.697C168.104 22.24 167.63 22.4792 167.153 22.4792H162.535C163.178 25.5024 165.351 28.2219 167.897 29.8877C168.168 30.0579 168.37 30.2604 168.37 30.6009C168.37 31.0104 168.062 31.3832 167.626 31.3832C167.387 31.3832 167.153 31.2819 166.946 31.1807C163.316 29.5149 160.122 26.2847 158.836 22.4792H154.154C153.579 24.0069 152.729 25.369 151.709 26.6252H158.873C160.908 26.6252 161.928 27.2694 161.928 29.3447V31.1117C161.928 33.1869 160.743 33.7989 158.873 33.7989H153.749C152.665 33.7989 152.357 34.1395 152.357 35.2254V37.4019C152.357 38.4879 152.665 38.7962 153.749 38.7962H161.184C163.596 38.7962 163.932 37.3007 164.409 35.2944C164.579 34.549 165.122 34.0382 165.935 34.0382C166.748 34.0382 167.837 34.549 167.837 35.5337C167.837 36.6565 167.194 38.0507 166.546 38.9342C165.494 40.3607 163.899 40.3607 162.268 40.3607H151.778C149.876 40.3607 148.69 39.8177 148.69 37.6734V34.9539C148.69 32.8786 149.88 32.2666 151.778 32.2666H157.108C158.262 32.2666 158.5 31.9261 158.5 30.8402V29.6162C158.5 28.4934 158.197 28.1897 157.108 28.1897H150.322C148.897 29.5472 147.335 30.7712 145.57 31.6224C145.437 31.6915 145.299 31.7605 145.129 31.7605C144.72 31.7605 144.348 31.3878 144.348 30.9782C144.348 30.6377 144.587 30.4352 144.821 30.2328C147.298 28.2633 149.37 25.5761 150.184 22.4838H145.635C145.162 22.4838 144.684 22.2446 144.684 21.7016C144.684 21.1586 145.157 20.9193 145.635 20.9193H150.285V15.2411H146.926C146.453 15.2411 145.975 15.0018 145.975 14.4588C145.975 13.9158 146.448 13.6766 146.926 13.6766H150.285V11.5368C150.285 10.3128 150.694 9.32812 152.049 9.32812C153.405 9.32812 153.85 10.3497 153.85 11.5368V13.6766H158.974V11.5368C158.974 10.3451 159.383 9.32812 160.738 9.32812C162.094 9.32812 162.539 10.3497 162.539 11.5368V13.6766H165.967C166.44 13.6766 166.918 13.9158 166.918 14.4588C166.918 15.0018 166.445 15.2411 165.967 15.2411H162.539V20.9193L162.535 20.9147ZM153.846 15.2365V20.9147H158.969V15.2365H153.846Z" fill="#004386"/>
<path d="M177.909 11.431C177.909 10.2761 178.35 9.39258 179.605 9.39258C180.859 9.39258 181.337 10.2761 181.337 11.431V16.5617H183.409C183.883 16.5617 184.36 16.7642 184.36 17.344C184.36 17.887 183.887 18.1262 183.409 18.1262H181.337V25.4012C181.645 25.2632 182.357 24.8905 182.968 24.619C183.34 24.4487 183.713 24.2785 183.883 24.2785C184.292 24.2785 184.627 24.6512 184.627 25.0607C184.627 25.4012 184.425 25.6037 184.154 25.8062C183.271 26.4872 182.288 27.0624 181.337 27.6422V37.8391C181.337 39.8776 180.152 40.5264 178.249 40.5264H175.332C174.858 40.5264 174.38 40.2871 174.38 39.7441C174.38 39.2012 174.854 38.9619 175.332 38.9619H176.517C177.638 38.9619 177.909 38.6582 177.909 37.5676V29.5472C176.958 30.0902 175.635 30.8402 175.024 30.8402C174.21 30.8402 173.631 30.058 173.631 29.2757C173.631 28.6637 173.939 28.1529 174.546 27.9183C175.598 27.5087 176.82 27.1728 177.905 26.7633V18.1308H174.817C174.344 18.1308 173.866 17.8916 173.866 17.3486C173.866 16.7688 174.339 16.5663 174.817 16.5663H177.905V11.4356L177.909 11.431ZM188.942 24.3153C188.739 29.446 187.618 34.342 184.563 38.5892C183.883 39.5739 183.308 40.2871 182.798 40.2871C182.389 40.2871 182.017 39.9144 182.017 39.5049C182.017 39.2656 182.155 39.0631 182.288 38.8606C183.749 36.6841 184.563 33.9002 185.004 31.0427C185.477 28.0517 185.514 24.9595 185.514 22.2722V13.672C185.514 11.1918 186.805 10.4417 189.079 10.4417H203.742C204.215 10.4417 204.693 10.681 204.693 11.224C204.693 11.767 204.22 12.0062 203.742 12.0062H190.541C189.35 12.0062 188.978 12.379 188.978 13.5707V22.7462H204.183C204.656 22.7462 205.134 22.9854 205.134 23.5284C205.134 24.0714 204.661 24.3107 204.183 24.3107H198.752C198.885 26.1467 199.161 28.0149 199.634 29.8187C200.415 29.1377 201.159 28.4244 201.77 27.6422C202.179 27.1682 202.552 26.6897 203.232 26.6897C204.114 26.6897 204.826 27.5041 204.826 28.3554C204.826 28.9674 204.385 29.3769 203.907 29.7174C202.786 30.5687 201.564 31.3142 200.309 31.9952C200.92 33.6931 201.43 34.8159 202.175 35.8697C202.887 36.8912 203.769 37.7379 204.991 38.8606C205.194 39.0631 205.364 39.2702 205.364 39.5739C205.364 39.9834 205.024 40.3561 204.619 40.3561C203.806 40.3561 201.633 38.2809 201.021 37.6689C199.188 35.8006 197.833 33.5551 196.882 31.1761C196.031 28.9674 195.521 26.6574 195.319 24.3107H193.794V36.2056C194.405 36.0353 196.509 35.3221 196.95 35.3221C197.392 35.3221 197.732 35.6948 197.732 36.1043C197.732 36.5461 197.359 36.7854 196.987 36.9556C195.696 37.5998 189.383 40.2549 188.266 40.2549C187.453 40.2549 186.943 39.6751 186.943 38.8606C186.943 38.2486 187.283 37.8069 187.857 37.6689C188.707 37.4664 189.691 37.2271 190.605 37.0246V24.3107H188.942V24.3153ZM190.637 17.9606C190.164 17.9606 189.686 17.7581 189.686 17.1783C189.686 16.6354 190.159 16.4329 190.637 16.4329H202.685C203.158 16.4329 203.636 16.6354 203.636 17.1783C203.636 17.7581 203.163 17.9606 202.685 17.9606H190.637Z" fill="#004386"/>
<path d="M212.394 13.2619C212.362 11.9366 213.207 11.3246 214.36 11.0163C215.482 10.708 216.465 10.2019 217.448 9.65889C217.756 9.48863 218.091 9.35059 218.432 9.35059C219.144 9.35059 219.617 10.0316 219.617 10.708C219.617 11.2188 219.378 11.5593 218.905 11.7296C218.193 11.9688 217.444 12.1023 216.497 12.2403C215.987 12.3094 215.684 12.6499 215.684 13.1928L215.753 17.0351H218.197C218.707 17.0351 219.148 17.2744 219.148 17.8174C219.148 18.2269 218.808 18.5996 218.404 18.5996H215.757L215.826 23.6659H218.202C218.712 23.6659 219.153 23.9052 219.153 24.4481C219.153 24.8899 218.813 25.2304 218.409 25.2304H215.863L215.932 30.7016H219.769V13.1284C219.769 11.09 220.954 10.4411 222.856 10.4411H228.931C230.833 10.4411 232.019 11.0854 232.019 13.1284V30.7016H235.754L235.823 25.2304H233.618C233.108 25.2304 232.666 24.9911 232.666 24.4481C232.666 24.0386 233.006 23.6659 233.448 23.6659H235.86L235.929 18.5996H233.622C233.112 18.5996 232.671 18.3603 232.671 17.8174C232.671 17.3756 233.011 17.0351 233.452 17.0351H235.929L235.998 13.4321C236.03 12.1759 235.658 12.0057 234.573 12.0057H233.622C233.112 12.0057 232.671 11.7664 232.671 11.2234C232.671 10.6804 233.112 10.4411 233.622 10.4411H236.306C238.171 10.4411 239.43 11.1222 239.393 13.1284L239.154 30.7016H240.616C241.089 30.7016 241.567 30.9409 241.567 31.4838C241.567 32.0268 241.093 32.2661 240.616 32.2661H211.19C210.717 32.2661 210.239 32.0268 210.239 31.4838C210.239 30.9409 210.712 30.7016 211.19 30.7016H212.651L212.412 13.2665L212.394 13.2619ZM221.625 36.343C220.642 37.1575 219.419 37.7373 218.298 38.2803C216.162 39.3018 214.19 39.9782 212.564 40.4568C211.751 40.6961 211.309 40.7605 211.103 40.7605C210.694 40.7605 210.39 40.3878 210.39 40.015C210.39 39.5043 210.799 39.334 211.172 39.1638C214.089 37.9076 216.603 36.274 218.707 33.757C219.047 33.3475 219.589 32.9747 220.168 32.9747C221.253 32.9747 222.305 33.8904 222.305 34.981C222.305 35.524 222.034 36.0025 221.625 36.343ZM229.331 13.4321C229.331 12.3462 229.023 12.0057 227.938 12.0057H223.798C222.714 12.0057 222.406 12.3462 222.406 13.4321V30.697H229.331V13.4321ZM223.932 16.7636C223.458 16.7636 222.98 16.5243 222.98 15.9814C222.98 15.4384 223.454 15.1991 223.932 15.1991H227.768C228.242 15.1991 228.719 15.4384 228.719 15.9814C228.719 16.5243 228.246 16.7636 227.768 16.7636H223.932ZM228.379 26.6569C228.379 27.7428 227.529 28.2904 226.514 28.2904H225.292C224.272 28.2904 223.389 27.7474 223.389 26.6569V20.9464C223.389 19.8926 224.341 19.3819 225.255 19.3819H226.509C227.529 19.3819 228.343 19.9249 228.375 21.0154V26.6569H228.379ZM225.765 20.9464C225.425 20.9464 225.255 21.1489 225.255 21.4572V26.2151C225.255 26.5556 225.425 26.7259 225.765 26.7259H226.004C226.344 26.7259 226.514 26.5556 226.514 26.2151V21.4572C226.514 21.1535 226.344 20.9464 226.004 20.9464H225.765ZM233.572 34.2355C235.304 36.274 237.643 37.9076 240.326 39.0947C240.698 39.265 241.071 39.4675 241.071 39.946C241.071 40.3187 240.767 40.6961 240.358 40.6961C240.05 40.6961 239.168 40.4936 238.594 40.2865C236.522 39.5411 234.454 38.7588 232.451 37.7373C231.228 37.1253 229.634 36.2418 229.634 35.0178C229.634 33.9318 230.654 33.0115 231.706 33.0115C232.418 33.0115 232.928 33.4533 233.572 34.2355Z" fill="#004386"/>
<path d="M254.419 17.5139C254.892 17.5139 255.37 17.7532 255.37 18.2962C255.37 18.8391 254.896 19.0784 254.419 19.0784H251.735V38.5888C251.735 39.7806 251.326 40.7653 249.971 40.7653C248.615 40.7653 248.238 39.7806 248.238 38.5888V19.0784H245.661C245.151 19.0784 244.71 18.8391 244.71 18.2962C244.71 17.7532 245.151 17.5139 245.661 17.5139H248.238V11.4997C248.238 10.3448 248.647 9.32323 249.971 9.32323C251.294 9.32323 251.735 10.3079 251.735 11.4997V17.5139H254.419ZM255.163 38.8603C254.754 39.3021 253.909 40.2224 253.431 40.2224C253.022 40.2224 252.65 39.8818 252.65 39.4723C252.65 39.2008 252.787 38.9984 253.059 38.6901C255.333 36.0396 256.247 32.5378 256.518 29.1741H253.84C253.366 29.1741 252.889 28.9349 252.889 28.3919C252.889 27.8121 253.362 27.6096 253.84 27.6096H256.587V26.3534C256.587 25.1984 257.029 24.2781 258.352 24.2781C259.266 24.2781 260.116 24.9223 260.116 25.8749C260.116 26.4546 260.047 27.0298 259.946 27.6096H261.747C262.97 27.6096 264.224 28.0836 264.224 29.5146C264.224 30.9457 264.054 32.8139 263.884 34.2404C263.714 35.5656 263.411 37.0611 263.002 38.1839C262.359 39.9509 261.201 40.3604 259.404 40.3604H257.603C257.13 40.3604 256.652 40.1211 256.652 39.5781C256.652 39.0352 257.125 38.7959 257.603 38.7959H258.214C259.739 38.7959 260.015 37.8112 260.286 36.5181C260.658 34.7834 260.966 31.5209 260.966 29.7539C260.966 29.3444 260.695 29.1741 260.323 29.1741H259.611C259 32.9152 257.709 36.0764 255.163 38.8603ZM258.729 22.9207C257.915 23.2934 256.794 23.8042 256.215 23.8042C255.806 23.8042 255.471 23.4315 255.471 23.0219C255.471 22.548 255.843 22.3409 256.215 22.1706C259.473 20.6751 261.476 18.3284 262.326 14.8634H256.964C256.491 14.8634 256.013 14.6242 256.013 14.0812C256.013 13.5382 256.486 13.2989 256.964 13.2989H262.597C262.597 12.5535 262.666 11.0534 262.836 10.4782C263.039 9.76497 263.958 9.29102 264.67 9.29102C265.653 9.29102 266.572 9.97204 266.572 11.0258C266.572 11.7712 266.434 12.5535 266.301 13.3035H271.291C272.683 13.3035 274.007 13.7131 274.007 15.3788C274.007 16.8743 273.497 20.0355 272.784 21.2918C272.104 22.4835 270.919 22.8195 269.628 22.8195H265.419C264.945 22.8195 264.468 22.617 264.468 22.0694C264.468 21.4896 264.941 21.2871 265.419 21.2871H267.422C268.507 21.2871 269.288 20.9466 269.664 19.8929C270.037 18.8714 270.446 16.4924 270.446 15.4386C270.446 15.0291 270.106 14.8588 269.766 14.8588H266.034C265.115 18.5999 262.097 21.3148 258.738 22.9161L258.729 22.9207ZM266.535 38.7269C265.621 39.7116 265.074 40.1533 264.734 40.1533C264.293 40.1533 263.953 39.8128 263.953 39.3711C263.953 39.1686 264.155 38.8281 264.362 38.5888C266.604 35.8693 267.248 32.5746 267.519 29.1741H266.094C265.584 29.1741 265.143 28.9349 265.143 28.3919C265.143 27.8489 265.584 27.6096 266.094 27.6096H267.588V25.8058C267.588 24.7199 268.199 23.9698 269.352 23.9698C270.266 23.9698 271.084 24.614 271.084 25.5666C271.084 26.2476 271.015 26.9286 270.951 27.605H273.294C274.687 27.605 275.771 28.079 275.771 29.6803C275.771 31.4151 275.362 35.9338 274.99 37.5995C274.48 39.9095 273.464 40.3512 271.222 40.3512H269.049C268.575 40.3512 268.098 40.1119 268.098 39.5689C268.098 39.026 268.571 38.7867 269.049 38.7867H269.899C270.781 38.7867 271.323 38.7867 271.663 37.8342C272.205 36.2697 272.476 31.5117 272.476 29.7125C272.476 29.3398 272.205 29.1695 271.865 29.1695H270.675C270.266 32.975 269.049 36.0028 266.535 38.7223V38.7269Z" fill="#004386"/>
<path d="M310.256 22.5753C310.086 22.5753 309.782 22.4741 309.474 22.3728C307.471 21.6596 305.367 20.7071 303.469 19.5843C300.413 17.7805 298.548 16.285 295.593 13.0916C295.423 12.9213 295.29 12.7879 295.051 12.7879C294.78 12.7879 294.61 13.0272 294.44 13.2296C291.485 16.8004 287.212 19.6533 283.003 21.4893C282.36 21.7608 280.559 22.6121 279.985 22.6121C279.576 22.6121 279.236 22.2394 279.236 21.8298C279.236 21.3559 279.677 21.1488 280.049 20.9786C284.63 18.7698 288.706 15.3371 291.757 11.2556C292.671 10.0316 293.489 9.28613 295.083 9.28613C296.678 9.28613 297.459 9.96716 298.341 11.1912C301.36 15.4061 305.399 18.8711 310.187 20.9141C310.559 21.0844 311 21.3237 311 21.7976C311 22.1704 310.66 22.5799 310.256 22.5799V22.5753ZM288.398 37.0885C293.016 36.9182 297.629 36.5777 302.247 36.2372C301.296 34.6404 300.243 33.145 299.058 31.6817C298.856 31.4424 298.649 31.2077 298.649 30.8672C298.649 30.4577 298.989 30.085 299.43 30.085C299.94 30.085 302.587 32.3305 303.841 33.4487C305.063 34.5346 306.217 35.6574 307.2 36.9504C307.54 37.3922 307.779 37.8339 307.779 38.4137C307.779 39.5365 306.658 40.4199 305.573 40.4199C304.723 40.4199 304.351 40.1485 303.942 39.334C303.671 38.8232 303.262 38.1422 303.028 37.636C299.228 38.248 295.524 38.7588 291.692 39.2328C290.098 39.4352 283.376 40.2175 283.072 40.2175C282.291 40.2175 281.781 39.5365 281.781 38.791C281.781 38.11 282.19 37.498 282.833 37.3645C283.376 37.2633 284.869 37.2265 285.687 37.1943C287.318 34.3368 288.775 31.3458 290.034 28.3226H281.312C280.77 28.3226 280.122 28.2213 280.122 27.5403C280.122 26.8593 280.766 26.7581 281.312 26.7581H308.941C309.484 26.7581 310.095 26.8593 310.095 27.5403C310.095 28.2213 309.484 28.3226 308.941 28.3226H294.752C292.786 31.3458 290.782 34.3368 288.407 37.0931L288.398 37.0885ZM302.417 20.0261C302.927 20.0261 303.57 20.1273 303.57 20.8083C303.57 21.4893 302.927 21.5906 302.417 21.5906H287.888C287.345 21.5906 286.734 21.4893 286.734 20.8083C286.734 20.1273 287.345 20.0261 287.888 20.0261H302.417Z" fill="#004386"/>
<path d="M32.3342 49.1307C32.711 49.37 33.074 49.4988 33.4278 49.5173V50.0004C32.0998 49.9498 30.4181 49.9268 28.3826 49.9268C26.1265 49.9268 24.4448 49.9498 23.3374 50.0004V49.5173C24.1783 49.485 24.7756 49.4068 25.1294 49.2872C25.4832 49.1675 25.6624 48.9513 25.6624 48.6476C25.6624 48.3577 25.5292 47.9711 25.2627 47.488L23.2685 43.5261L23.0341 43.0429L19.7488 36.5226L16.298 43.0429L16.0315 43.5261L15.5675 44.4234C16.3348 44.6903 17.1021 44.9434 17.9338 45.1458C19.5191 45.5277 21.0813 45.8176 22.6666 45.178L22.7676 45.3161C21.5913 46.7748 19.4042 47.0094 17.6581 46.8484C16.6381 46.7702 15.641 46.5355 14.6623 46.2456C14.382 46.9082 14.2349 47.4558 14.2349 47.8791C14.2349 48.4727 14.4831 48.8914 14.9839 49.1215C15.4802 49.3562 16.2153 49.4896 17.1895 49.5219V50.005C15.6823 49.9544 14.3131 49.9314 13.0724 49.9314C12.0524 49.9314 11.2115 49.9544 10.5498 50.005V49.5219C11.6342 49.3792 12.5854 48.5325 13.4033 46.9864L13.9225 46.0155C13.4768 45.8683 13.0311 45.7164 12.59 45.5646C9.47924 44.5936 6.16633 44.7409 2.99127 45.6658L2.90396 45.5185C4.25945 44.3728 5.96416 43.6825 7.73778 43.3374C9.516 43.0199 11.4045 43.0889 13.1689 43.6135C13.78 43.8022 14.3452 44 14.9012 44.1933L20.9756 32.8552C21.2192 32.8736 21.6051 32.8782 22.1381 32.8782C22.6711 32.8782 23.0433 32.869 23.2685 32.8552L31.3371 47.9711C31.6266 48.5003 31.9574 48.8868 32.3342 49.1307ZM18.8252 16.9478C17.6306 16.9478 16.5462 16.6119 15.5675 15.9308C14.5887 15.2544 13.8122 14.2927 13.2379 13.0503C12.6635 11.8079 12.3786 10.3676 12.3786 8.72948C12.3786 7.09134 12.6313 5.66947 13.1368 4.40866C13.6422 3.14785 14.3682 2.17233 15.3147 1.4683C16.2613 0.768866 17.3503 0.419151 18.5863 0.419151C19.8223 0.419151 20.8654 0.759663 21.8441 1.43608C22.8228 2.11251 23.5993 3.07422 24.1737 4.31663C24.748 5.55904 25.0329 6.99931 25.0329 8.63745C25.0329 9.90746 24.8767 11.067 24.5642 12.1116H25.4235C25.8738 12.0886 26.3884 12.084 26.9766 12.084C27.969 12.084 28.8788 12.13 29.7197 12.2174C30.3308 11.1085 30.6387 9.88446 30.6387 8.54082C30.6387 6.76463 30.1424 5.23233 29.1545 3.94851C28.162 2.66469 26.7744 1.68457 24.987 1.00814C23.1996 0.331723 21.1089 -0.00878906 18.7241 -0.00878906C16.3394 -0.00878906 14.3406 0.359332 12.5302 1.10017C10.7199 1.84102 9.30923 2.87636 8.29376 4.2154C7.28289 5.55444 6.77285 7.08674 6.77285 8.81691C6.77285 10.5471 7.2691 12.1254 8.257 13.4092C9.2449 14.693 10.6372 15.6732 12.4246 16.3496C14.212 17.026 16.298 17.3665 18.6874 17.3665C18.8206 17.3665 18.9493 17.3619 19.0779 17.3573V16.9294C18.9906 16.9294 18.9079 16.9386 18.8206 16.9386L18.8252 16.9478ZM16.5508 12.061V12.5349C17.2951 12.5671 17.8373 12.6316 18.1865 12.7236C18.5358 12.8202 18.7701 12.9997 18.8942 13.2666C19.0182 13.5335 19.0779 13.966 19.0779 14.5642V16.9386C20.2083 16.8926 21.2192 16.5474 22.0968 15.8986C23.0433 15.1992 23.7693 14.2191 24.2748 12.9583C24.385 12.6868 24.4815 12.4015 24.5642 12.1162L21.6787 12.1346C19.4042 12.1346 17.6949 12.1116 16.5462 12.0656L16.5508 12.061ZM36.3271 16.7361C36.3271 17.6012 36.0101 18.4341 35.3806 19.2255C34.7511 20.0216 33.6851 20.6842 32.1917 21.2226C30.6938 21.7563 28.7088 22.0232 26.2368 22.0232H25.0375C24.4999 22.0232 24.4494 22.6674 24.4494 22.6674V26.1324C24.4494 26.7628 24.5459 27.2229 24.7343 27.5128C24.9272 27.8027 25.2627 27.996 25.7451 28.0926C26.2276 28.1847 26.9949 28.2445 28.0518 28.2583C27.7715 28.3549 27.482 28.4193 27.1833 28.4561L27.0684 28.5988C27.0041 28.677 26.9352 28.7506 26.8617 28.8197C26.7744 28.9025 26.6825 28.9761 26.586 29.0497C26.1633 29.358 25.644 29.5743 25.1248 29.6893C23.1996 30.1081 21.2743 29.6295 19.4455 29.0405C19.4042 29.855 19.0963 30.6373 18.5266 31.3873C17.9063 32.2018 16.8586 32.8828 15.3883 33.4258C13.9179 33.9734 11.9651 34.2448 9.52978 34.2448H7.76994V38.446C7.76994 39.0902 7.86184 39.5596 8.05023 39.8587C8.23862 40.1578 8.56945 40.3557 9.04732 40.4523C9.52519 40.5489 10.2787 40.6041 11.3218 40.6225V41.1517C8.60162 41.1011 6.57527 41.0781 5.24735 41.0781C4.13999 41.0781 2.74774 41.0965 1.06601 41.1287L0.0045929 41.1517V40.6685C0.735179 40.6363 1.27278 40.5719 1.6128 40.4753C1.95742 40.3787 2.18716 40.1946 2.31122 39.9185C2.43069 39.647 2.49502 39.2007 2.49502 38.5887V26.6109C2.49502 25.9989 2.43529 25.5572 2.31122 25.2811C2.18716 25.0096 1.95742 24.821 1.6128 24.7243C1.26819 24.6277 0.735179 24.5633 0.0045929 24.5311V24.0479C1.13493 24.0985 2.81666 24.1215 5.04977 24.1215L8.73487 24.0985C9.17598 24.0801 9.68601 24.0755 10.2604 24.0755C13.247 24.0755 15.5261 24.5081 17.0976 25.3685C18.0303 25.8793 18.6782 26.4959 19.0596 27.2183C19.0963 27.2275 19.1331 27.2367 19.1698 27.246C21.4489 27.8994 24.4861 29.3534 26.8525 28.5344C26.8617 28.5344 26.8663 28.5298 26.8755 28.5252C26.9122 28.5114 26.949 28.5022 26.9857 28.4884C26.9857 28.4884 27.0133 28.4746 27.0317 28.47C24.8583 28.6862 22.3357 27.5312 20.3691 26.9699C19.9464 26.8502 19.5099 26.7674 19.0688 26.703C19.0779 26.5695 19.0825 26.4269 19.0825 26.2704V17.3619C21.0583 17.3251 22.8503 17.0122 24.4494 16.4232V20.9833C24.4494 21.5033 25.1156 21.5493 25.1156 21.5493H25.9013C27.7255 21.5493 28.9845 21.1397 29.6829 20.3207C30.3814 19.5016 30.7306 18.3926 30.7306 16.9938C30.7306 15.4661 30.4089 14.3433 29.7702 13.6163C29.6875 13.5196 29.591 13.4322 29.49 13.3494C29.4716 13.3356 29.4486 13.3218 29.4302 13.3034C29.3475 13.239 29.2602 13.1745 29.1683 13.1193C29.1637 13.1193 29.1591 13.1147 29.1499 13.1101C29.1499 13.1101 29.1316 13.1331 29.127 13.1423C28.1161 14.4814 26.7009 15.5167 24.8905 16.2575C24.748 16.3174 24.601 16.368 24.454 16.4232V14.5596C24.454 13.9936 24.5091 13.5703 24.624 13.285C24.7342 12.9997 24.9318 12.8064 25.2167 12.696C25.497 12.5855 25.9427 12.5303 26.5492 12.5303C26.7928 12.5303 27.0225 12.5441 27.2477 12.5625C27.3028 12.5671 27.3579 12.5717 27.4131 12.5809C27.6152 12.6039 27.8082 12.6316 27.9874 12.673C28.0012 12.673 28.0196 12.6776 28.0334 12.6822C28.231 12.7282 28.4147 12.7834 28.5848 12.8478C28.6215 12.8616 28.6537 12.8754 28.6858 12.8892C28.8375 12.9491 28.9799 13.0181 29.1132 13.0963C29.127 13.1009 29.1407 13.1055 29.1499 13.1147C29.3659 12.8248 29.5589 12.5303 29.7243 12.222C31.452 12.4061 32.858 12.7834 33.9332 13.3494C35.5322 14.1915 36.3317 15.3188 36.3317 16.7361H36.3271ZM13.9409 29.105C13.9409 28.8289 13.9271 28.5666 13.9087 28.3135C12.8657 28.3963 11.818 28.585 10.7934 28.8703L10.7199 28.7552C11.6113 28.0512 12.6497 27.5589 13.7479 27.2506C13.5917 26.5925 13.3435 26.0588 12.9943 25.6492C12.3648 24.9084 11.308 24.5403 9.82386 24.5403C9.22652 24.5403 8.79001 24.5955 8.51431 24.7105C8.23862 24.8256 8.04564 25.0234 7.93536 25.3133C7.82508 25.6032 7.76994 26.0358 7.76994 26.6155V33.7617H9.19895C10.991 33.7617 12.2316 33.3429 12.9162 32.5055C13.6008 31.668 13.9455 30.536 13.9455 29.1004L13.9409 29.105Z" fill="url(#paint0_linear_229_87)"/>
</g>
<defs>
<linearGradient id="paint0_linear_229_87" x1="31.8517" y1="7.99324" x2="9.92816" y2="45.9099" gradientUnits="userSpaceOnUse">
<stop stop-color="#82B7E4"/>
<stop offset="0.46" stop-color="#004190"/>
<stop offset="1" stop-color="#004386"/>
</linearGradient>
<clipPath id="clip0_229_87">
<rect width="311" height="50" fill="white"/>
</clipPath>
</defs>
</svg>
