<svg width="374" height="60" viewBox="0 0 374 60" fill="none" xmlns="http://www.w3.org/2000/svg">
<g clip-path="url(#clip0_124_359)">
<path d="M39.2765 31.9989C39.2765 32.1204 39.2599 32.2363 39.2434 32.3412C39.2268 32.4462 39.1936 32.5456 39.1494 32.6394C39.1052 32.7333 39.0444 32.8216 38.9615 32.899C38.8455 33.0149 38.7184 33.1033 38.5747 33.164C38.4311 33.2247 38.2708 33.2579 38.083 33.2579C37.8951 33.2579 37.7348 33.2303 37.5912 33.164C37.4475 33.1033 37.3204 33.0149 37.2044 32.899C37.1215 32.8161 37.0607 32.7278 37.0165 32.6394C36.9723 32.5456 36.9391 32.4462 36.9226 32.3412C36.906 32.2363 36.8949 32.1204 36.8894 31.9989C36.8894 31.8774 36.8894 31.7449 36.8894 31.6068C36.8894 31.4688 36.8894 31.3363 36.8894 31.2148C36.8894 31.0933 36.9005 30.9774 36.9226 30.8724C36.9391 30.7675 36.9723 30.6681 37.0165 30.5743C37.0607 30.4804 37.1215 30.392 37.2044 30.3092C37.3204 30.1933 37.4475 30.1049 37.5912 30.0442C37.7348 29.9834 37.9006 29.9503 38.083 29.9503C38.2653 29.9503 38.4311 29.9834 38.5747 30.0442C38.7184 30.1049 38.8455 30.1933 38.9615 30.3092C39.0444 30.392 39.1052 30.4804 39.1494 30.5743C39.1936 30.6681 39.2268 30.7675 39.2434 30.8724C39.2599 30.9774 39.2765 31.0933 39.2765 31.2148C39.2765 31.3363 39.2765 31.4688 39.2765 31.6068C39.2765 31.7449 39.2765 31.8774 39.2765 31.9989ZM38.6411 31.2203C38.6411 31.1209 38.63 31.0326 38.6134 30.9663C38.5969 30.9001 38.5858 30.8448 38.5637 30.8062C38.5416 30.7675 38.5195 30.7289 38.4863 30.6957C38.4421 30.6461 38.3813 30.6019 38.315 30.5687C38.2487 30.5356 38.1658 30.5191 38.083 30.5191C38.0001 30.5191 37.9172 30.5356 37.8454 30.5687C37.7735 30.6019 37.7183 30.6405 37.6741 30.6957C37.6464 30.7289 37.6188 30.7675 37.5967 30.8062C37.5746 30.8448 37.5635 30.9001 37.547 30.9663C37.5304 31.0326 37.5249 31.1154 37.5193 31.2203C37.5193 31.3197 37.5138 31.4522 37.5138 31.6068C37.5138 31.7615 37.5138 31.8885 37.5193 31.9934C37.5193 32.0928 37.5304 32.1811 37.547 32.2474C37.5635 32.3136 37.5746 32.3689 37.5967 32.4075C37.6188 32.4462 37.6409 32.4848 37.6741 32.5179C37.7183 32.5676 37.7791 32.6118 37.8454 32.6449C37.9172 32.6781 37.9946 32.6946 38.083 32.6946C38.1714 32.6946 38.2487 32.6781 38.315 32.6449C38.3813 32.6118 38.4421 32.5732 38.4863 32.5179C38.5195 32.4848 38.5416 32.4462 38.5637 32.4075C38.5858 32.3689 38.6024 32.3136 38.6134 32.2474C38.6245 32.1811 38.6355 32.0983 38.6411 31.9934C38.6411 31.894 38.6466 31.7615 38.6466 31.6068C38.6466 31.4522 38.6466 31.3252 38.6411 31.2203Z" fill="#004386"/>
<path d="M42.2935 32.8216C42.2438 32.921 42.172 32.9983 42.078 33.0646C41.9841 33.1309 41.8791 33.175 41.7575 33.2082C41.636 33.2413 41.5034 33.2579 41.3652 33.2579C41.2713 33.2579 41.1773 33.2579 41.0889 33.2468C41.0005 33.2358 40.9121 33.2247 40.8292 33.1971C40.7463 33.175 40.6635 33.1364 40.5806 33.0922C40.4977 33.048 40.4259 32.9873 40.3485 32.91L40.7353 32.5235C40.8348 32.6229 40.9397 32.6836 41.0558 32.7057C41.1718 32.7333 41.2768 32.7443 41.3707 32.7443C41.4205 32.7443 41.4757 32.7443 41.5255 32.7333C41.5752 32.7223 41.6194 32.7112 41.6581 32.6891C41.6968 32.667 41.7299 32.6449 41.752 32.6118C41.7741 32.5787 41.7907 32.5456 41.7907 32.4959C41.7907 32.4351 41.7741 32.3854 41.7354 32.3468C41.6968 32.3081 41.636 32.286 41.5365 32.275L41.1608 32.2363C40.9453 32.2142 40.774 32.1535 40.6524 32.0541C40.5308 31.9547 40.4701 31.7946 40.4701 31.5737C40.4701 31.4522 40.4977 31.3418 40.5474 31.2479C40.5972 31.1541 40.6635 31.0768 40.7463 31.0105C40.8292 30.9442 40.9287 30.9001 41.0392 30.8669C41.1497 30.8338 41.2658 30.8172 41.3873 30.8172C41.5752 30.8172 41.741 30.8393 41.8957 30.878C42.0504 30.9166 42.183 30.9884 42.2991 31.0988L41.9344 31.4688C41.8625 31.4081 41.7796 31.3639 41.6857 31.3418C41.5918 31.3197 41.4868 31.3087 41.3873 31.3087C41.2713 31.3087 41.1829 31.3308 41.1276 31.3749C41.0724 31.4191 41.0503 31.4743 41.0503 31.5351C41.0503 31.5572 41.0503 31.5792 41.0613 31.6013C41.0668 31.6234 41.0779 31.6455 41.1 31.6621C41.1221 31.6786 41.1442 31.6952 41.1773 31.7118C41.2105 31.7283 41.2492 31.7338 41.3044 31.7394L41.6802 31.778C41.9178 31.8001 42.0946 31.8719 42.2107 31.9934C42.3267 32.1149 42.3875 32.275 42.3875 32.4738C42.3875 32.6063 42.3598 32.7167 42.3101 32.8161L42.2935 32.8216Z" fill="#004386"/>
<path d="M44.8409 33.2303V33.026C44.7635 33.1033 44.6806 33.164 44.5922 33.1971C44.5038 33.2358 44.3933 33.2523 44.2552 33.2523C43.9899 33.2523 43.791 33.1806 43.6473 33.0425C43.581 32.9763 43.5368 32.899 43.5037 32.8051C43.4705 32.7112 43.4539 32.6173 43.4539 32.5069C43.4539 32.413 43.4705 32.3247 43.5037 32.2419C43.5368 32.159 43.5866 32.0872 43.6529 32.021C43.7192 31.9602 43.8021 31.9105 43.907 31.8719C44.0065 31.8332 44.1281 31.8167 44.2662 31.8167H44.8298V31.7007C44.8298 31.5682 44.7967 31.4743 44.7248 31.4136C44.6585 31.3528 44.5425 31.3252 44.3822 31.3252C44.327 31.3252 44.2717 31.3252 44.2331 31.3363C44.1889 31.3418 44.1502 31.3528 44.117 31.3694C44.0839 31.386 44.0507 31.4025 44.0176 31.4301C43.9899 31.4522 43.9568 31.4854 43.9236 31.524L43.5423 31.1541C43.6584 31.0271 43.7799 30.9387 43.9126 30.8945C44.0397 30.8504 44.2054 30.8283 44.4044 30.8283C44.7414 30.8283 44.9901 30.9001 45.1614 31.0381C45.3327 31.1761 45.4156 31.386 45.4156 31.6676V33.2303H44.8298H44.8409ZM44.8298 32.2253H44.3601C44.2552 32.2253 44.1723 32.2474 44.117 32.2971C44.0618 32.3468 44.0286 32.413 44.0286 32.4959C44.0286 32.5787 44.0562 32.6449 44.1115 32.6946C44.1667 32.7443 44.2552 32.7719 44.3712 32.7719C44.4541 32.7719 44.5204 32.7664 44.5812 32.7554C44.642 32.7443 44.6917 32.7112 44.7469 32.6615C44.8022 32.6063 44.8354 32.5069 44.8354 32.3578V32.2308L44.8298 32.2253Z" fill="#004386"/>
<path d="M48.1618 33.2303L47.5761 32.2419L47.3274 32.5235V33.2303H46.7307V29.9834H47.3274V31.8277L48.1176 30.8559H48.8359L47.985 31.8112L48.8967 33.2303H48.1618Z" fill="#004386"/>
<path d="M51.1899 33.2303V33.026C51.1125 33.1033 51.0296 33.164 50.9412 33.1971C50.8528 33.2358 50.7423 33.2523 50.6042 33.2523C50.3389 33.2523 50.14 33.1806 49.9963 33.0425C49.93 32.9763 49.8858 32.899 49.8527 32.8051C49.8195 32.7112 49.8029 32.6173 49.8029 32.5069C49.8029 32.413 49.8195 32.3247 49.8527 32.2419C49.8858 32.159 49.9355 32.0872 50.0019 32.021C50.0682 31.9602 50.1511 31.9105 50.256 31.8719C50.3555 31.8332 50.4771 31.8167 50.6152 31.8167H51.1788V31.7007C51.1788 31.5682 51.1457 31.4743 51.0738 31.4136C51.0075 31.3528 50.8915 31.3252 50.7312 31.3252C50.676 31.3252 50.6207 31.3252 50.5821 31.3363C50.5378 31.3418 50.4992 31.3528 50.466 31.3694C50.4329 31.386 50.3997 31.4025 50.3666 31.4301C50.3389 31.4522 50.3058 31.4854 50.2726 31.524L49.8913 31.1541C50.0074 31.0271 50.1289 30.9387 50.2616 30.8945C50.3887 30.8504 50.5544 30.8283 50.7534 30.8283C51.0904 30.8283 51.3391 30.9001 51.5104 31.0381C51.6817 31.1761 51.7646 31.386 51.7646 31.6676V33.2303H51.1788H51.1899ZM51.1788 32.2253H50.7091C50.6042 32.2253 50.5213 32.2474 50.466 32.2971C50.4108 32.3468 50.3776 32.413 50.3776 32.4959C50.3776 32.5787 50.4052 32.6449 50.4605 32.6946C50.5157 32.7443 50.6042 32.7719 50.7202 32.7719C50.8031 32.7719 50.8694 32.7664 50.9302 32.7554C50.991 32.7443 51.0407 32.7112 51.0959 32.6615C51.1512 32.6063 51.1844 32.5069 51.1844 32.3578V32.2308L51.1788 32.2253Z" fill="#004386"/>
<path d="M39.2434 36.2341C39.1936 36.3556 39.1218 36.466 39.0334 36.5599C38.945 36.6538 38.8289 36.7256 38.6963 36.7808C38.5637 36.836 38.4145 36.8581 38.2487 36.8581H37.6243V38.0784H36.9889V34.8316H38.2487C38.4145 34.8316 38.5637 34.8592 38.6963 34.9089C38.8289 34.9641 38.9395 35.0359 39.0334 35.1298C39.1273 35.2236 39.1992 35.3285 39.2434 35.4555C39.2931 35.577 39.3152 35.7095 39.3152 35.8476C39.3152 35.9856 39.2931 36.1126 39.2434 36.2396V36.2341ZM38.5582 35.5218C38.4753 35.439 38.3593 35.4003 38.2156 35.4003H37.6243V36.2893H38.2156C38.3593 36.2893 38.4753 36.2507 38.5582 36.1679C38.6411 36.085 38.6853 35.9801 38.6853 35.8476C38.6853 35.7151 38.6411 35.6046 38.5582 35.5218Z" fill="#004386"/>
<path d="M42.3488 37.4268C42.3101 37.5704 42.2438 37.6974 42.1333 37.8134C42.0615 37.8907 41.962 37.9624 41.8404 38.0177C41.7189 38.0729 41.5697 38.106 41.3929 38.106C41.216 38.106 41.0668 38.0784 40.9508 38.0177C40.8292 37.9624 40.7353 37.8907 40.6635 37.8134C40.5585 37.7029 40.4866 37.5704 40.448 37.4268C40.4093 37.2833 40.3927 37.101 40.3927 36.8857C40.3927 36.6703 40.4093 36.4881 40.448 36.3501C40.4866 36.212 40.5585 36.0795 40.6635 35.9691C40.7353 35.8918 40.8348 35.82 40.9508 35.7648C41.0724 35.7095 41.216 35.6764 41.3929 35.6764C41.5697 35.6764 41.7189 35.704 41.8404 35.7648C41.962 35.82 42.0615 35.8918 42.1333 35.9691C42.2383 36.0795 42.3101 36.212 42.3488 36.3501C42.3875 36.4881 42.404 36.6703 42.404 36.8857C42.404 37.101 42.3875 37.2833 42.3488 37.4268ZM41.7852 36.5544C41.7686 36.455 41.7299 36.3777 41.6747 36.3169C41.6028 36.2452 41.5144 36.212 41.3984 36.212C41.2823 36.212 41.1939 36.2452 41.1276 36.3169C41.0668 36.3777 41.0282 36.455 41.0171 36.5544C41.0005 36.6538 40.995 36.7642 40.995 36.8912C40.995 37.0182 41.0005 37.1287 41.0171 37.228C41.0337 37.3274 41.0724 37.4103 41.1276 37.471C41.1995 37.5428 41.2879 37.5759 41.3984 37.5759C41.5089 37.5759 41.6028 37.5428 41.6747 37.471C41.7354 37.4103 41.7741 37.3274 41.7852 37.228C41.8018 37.1287 41.8073 37.0182 41.8073 36.8912C41.8073 36.7642 41.8018 36.6538 41.7852 36.5544Z" fill="#004386"/>
<path d="M44.9403 36.3501C44.8961 36.3059 44.8464 36.2673 44.8022 36.2452C44.758 36.2231 44.6972 36.2065 44.6254 36.2065C44.5812 36.2065 44.5314 36.2176 44.4872 36.2341C44.443 36.2507 44.3988 36.2783 44.3657 36.3114C44.327 36.3501 44.2994 36.3943 44.2773 36.4495C44.2552 36.5047 44.2441 36.571 44.2441 36.6427V38.0729H43.6529V35.6985H44.2331V35.9249C44.2883 35.8531 44.3712 35.7924 44.4762 35.7427C44.5812 35.693 44.6972 35.6654 44.8298 35.6654C44.9459 35.6654 45.0453 35.6819 45.1337 35.7151C45.2221 35.7482 45.305 35.8089 45.3879 35.8862L44.9403 36.339V36.3501Z" fill="#004386"/>
<path d="M47.3164 38.0784C47.1948 38.0784 47.0898 38.0563 47.0014 38.0177C46.913 37.979 46.8412 37.9238 46.7859 37.8631C46.7307 37.7968 46.6865 37.725 46.6643 37.6477C46.6367 37.5649 46.6257 37.4821 46.6257 37.3992V36.2231H46.377V35.7703H46.6257V35.069H47.2224V35.7703H47.6424V36.2231H47.2224V37.3606C47.2224 37.5041 47.2888 37.5759 47.4269 37.5759H47.6424V38.0784H47.3164Z" fill="#004386"/>
<path d="M39.2434 41.0823C39.1936 41.2038 39.1218 41.3142 39.0334 41.4081C38.945 41.5019 38.8289 41.5737 38.6963 41.6289C38.5637 41.6841 38.4145 41.7062 38.2487 41.7062H37.6243V42.9266H36.9889V39.6797H38.2487C38.4145 39.6797 38.5637 39.7073 38.6963 39.757C38.8289 39.8123 38.9395 39.884 39.0334 39.9779C39.1273 40.0718 39.1992 40.1767 39.2434 40.3037C39.2931 40.4252 39.3152 40.5577 39.3152 40.6957C39.3152 40.8338 39.2931 40.9608 39.2434 41.0878V41.0823ZM38.5582 40.37C38.4753 40.2871 38.3593 40.2485 38.2156 40.2485H37.6243V41.1375H38.2156C38.3593 41.1375 38.4753 41.0988 38.5582 41.016C38.6411 40.9332 38.6853 40.8283 38.6853 40.6957C38.6853 40.5632 38.6411 40.4528 38.5582 40.37Z" fill="#004386"/>
<path d="M41.7962 41.1982C41.752 41.1541 41.7023 41.1154 41.6581 41.0933C41.6139 41.0712 41.5531 41.0547 41.4813 41.0547C41.4371 41.0547 41.3873 41.0657 41.3431 41.0823C41.2989 41.0988 41.2547 41.1265 41.2216 41.1596C41.1829 41.1982 41.1553 41.2424 41.1331 41.2976C41.111 41.3528 41.1 41.4191 41.1 41.4909V42.921H40.5087V40.5467H41.0889V40.7731C41.1442 40.7013 41.2271 40.6405 41.3321 40.5908C41.4371 40.5411 41.5531 40.5135 41.6857 40.5135C41.8018 40.5135 41.9012 40.5301 41.9896 40.5632C42.078 40.5964 42.1609 40.6571 42.2438 40.7344L41.7962 41.1872V41.1982Z" fill="#004386"/>
<path d="M45.1172 42.275C45.0785 42.4185 45.0122 42.5456 44.9017 42.6615C44.8298 42.7388 44.7304 42.8106 44.6088 42.8658C44.4872 42.921 44.338 42.9542 44.1612 42.9542C43.9844 42.9542 43.8352 42.9266 43.7192 42.8658C43.5976 42.8106 43.5037 42.7388 43.4318 42.6615C43.3268 42.5511 43.255 42.4185 43.2163 42.275C43.1776 42.1314 43.1611 41.9492 43.1611 41.7338C43.1611 41.5185 43.1776 41.3363 43.2163 41.1982C43.255 41.0602 43.3268 40.9277 43.4318 40.8172C43.5037 40.7399 43.6031 40.6681 43.7192 40.6129C43.8407 40.5577 43.9844 40.5246 44.1612 40.5246C44.338 40.5246 44.4872 40.5522 44.6088 40.6129C44.7304 40.6681 44.8298 40.7399 44.9017 40.8172C45.0066 40.9277 45.0785 41.0602 45.1172 41.1982C45.1558 41.3363 45.1724 41.5185 45.1724 41.7338C45.1724 41.9492 45.1558 42.1314 45.1172 42.275ZM44.5535 41.4025C44.537 41.3031 44.4983 41.2258 44.443 41.1651C44.3712 41.0933 44.2828 41.0602 44.1667 41.0602C44.0507 41.0602 43.9623 41.0933 43.896 41.1651C43.8352 41.2258 43.7965 41.3031 43.7855 41.4025C43.7689 41.5019 43.7634 41.6124 43.7634 41.7394C43.7634 41.8664 43.7689 41.9768 43.7855 42.0762C43.802 42.1756 43.8407 42.2584 43.896 42.3192C43.9678 42.3909 44.0562 42.4241 44.1667 42.4241C44.2773 42.4241 44.3712 42.3909 44.443 42.3192C44.5038 42.2584 44.5425 42.1756 44.5535 42.0762C44.5701 41.9768 44.5756 41.8664 44.5756 41.7394C44.5756 41.6124 44.5701 41.5019 44.5535 41.4025Z" fill="#004386"/>
<path d="M49.1841 42.9266V41.4909C49.1841 41.4081 49.173 41.3418 49.1509 41.2866C49.1288 41.2314 49.0956 41.1872 49.057 41.1541C49.0183 41.1209 48.9741 41.0988 48.9299 41.0823C48.8801 41.0657 48.8359 41.0602 48.7917 41.0602C48.7475 41.0602 48.6978 41.0657 48.6536 41.0823C48.6039 41.0988 48.5652 41.1209 48.5265 41.1541C48.4878 41.1872 48.4547 41.2314 48.4326 41.2866C48.4105 41.3418 48.3939 41.4081 48.3939 41.4798V42.9266H47.7971V41.4909C47.7971 41.4081 47.7861 41.3418 47.764 41.2866C47.7419 41.2314 47.7087 41.1872 47.67 41.1541C47.6313 41.1209 47.5871 41.0988 47.5429 41.0823C47.4932 41.0657 47.449 41.0602 47.4048 41.0602C47.3606 41.0602 47.3109 41.0657 47.2667 41.0823C47.2169 41.0988 47.1782 41.1209 47.1396 41.1541C47.1009 41.1872 47.0733 41.2314 47.0456 41.2866C47.0235 41.3418 47.0069 41.4081 47.0069 41.4909V42.9266H46.4157V40.5522H46.9959V40.773C47.0733 40.6957 47.1672 40.635 47.2722 40.5908C47.3772 40.5467 47.4821 40.5246 47.5927 40.5246C47.7253 40.5246 47.8468 40.5467 47.9518 40.5963C48.0568 40.646 48.1452 40.7234 48.2226 40.8227C48.3221 40.7178 48.4326 40.6405 48.5431 40.5908C48.6536 40.5467 48.7862 40.519 48.9354 40.519C49.0514 40.519 49.162 40.5356 49.2669 40.5743C49.3719 40.6129 49.4548 40.6626 49.5211 40.7289C49.6206 40.8283 49.6869 40.9277 49.7256 41.0436C49.7643 41.1541 49.7808 41.2755 49.7808 41.4081V42.9266H49.1841Z" fill="#004386"/>
<path d="M52.9581 42.275C52.9194 42.4185 52.8531 42.5456 52.7426 42.6615C52.6708 42.7388 52.5713 42.8106 52.4497 42.8658C52.3282 42.921 52.179 42.9542 52.0022 42.9542C51.8253 42.9542 51.6761 42.9266 51.5601 42.8658C51.4385 42.8106 51.3446 42.7388 51.2728 42.6615C51.1678 42.5511 51.0959 42.4185 51.0573 42.275C51.0186 42.1314 51.002 41.9492 51.002 41.7338C51.002 41.5185 51.0186 41.3363 51.0573 41.1982C51.0959 41.0602 51.1678 40.9277 51.2728 40.8172C51.3446 40.7399 51.4441 40.6681 51.5601 40.6129C51.6817 40.5577 51.8253 40.5246 52.0022 40.5246C52.179 40.5246 52.3282 40.5522 52.4497 40.6129C52.5713 40.6681 52.6708 40.7399 52.7426 40.8172C52.8476 40.9277 52.9194 41.0602 52.9581 41.1982C52.9968 41.3363 53.0134 41.5185 53.0134 41.7338C53.0134 41.9492 52.9968 42.1314 52.9581 42.275ZM52.3945 41.4025C52.3779 41.3031 52.3392 41.2258 52.284 41.1651C52.2121 41.0933 52.1237 41.0602 52.0077 41.0602C51.8916 41.0602 51.8032 41.0933 51.7369 41.1651C51.6761 41.2258 51.6375 41.3031 51.6264 41.4025C51.6098 41.5019 51.6043 41.6124 51.6043 41.7394C51.6043 41.8664 51.6098 41.9768 51.6264 42.0762C51.643 42.1756 51.6817 42.2584 51.7369 42.3192C51.8088 42.3909 51.8972 42.4241 52.0077 42.4241C52.1182 42.4241 52.2121 42.3909 52.284 42.3192C52.3448 42.2584 52.3834 42.1756 52.3945 42.0762C52.4111 41.9768 52.4166 41.8664 52.4166 41.7394C52.4166 41.6124 52.4111 41.5019 52.3945 41.4025Z" fill="#004386"/>
<path d="M55.0358 42.9266C54.9142 42.9266 54.8092 42.9045 54.7208 42.8658C54.6324 42.8272 54.5605 42.772 54.5053 42.7112C54.45 42.6449 54.4058 42.5732 54.3837 42.4959C54.3561 42.413 54.345 42.3302 54.345 42.2474V41.0712H54.0964V40.6184H54.345V39.9172H54.9418V40.6184H55.3618V41.0712H54.9418V42.2087C54.9418 42.3523 55.0081 42.4241 55.1463 42.4241H55.3618V42.9266H55.0358Z" fill="#004386"/>
<path d="M56.5498 40.1436V39.6577H57.1576V40.1436H56.5498ZM56.5553 42.921V40.5467H57.1521V42.921H56.5553Z" fill="#004386"/>
<path d="M60.3459 42.275C60.3073 42.4185 60.2409 42.5456 60.1304 42.6615C60.0586 42.7388 59.9591 42.8106 59.8376 42.8658C59.716 42.921 59.5668 42.9542 59.39 42.9542C59.2132 42.9542 59.064 42.9266 58.9479 42.8658C58.8264 42.8106 58.7324 42.7388 58.6606 42.6615C58.5556 42.5511 58.4838 42.4185 58.4451 42.275C58.4064 42.1314 58.3898 41.9492 58.3898 41.7338C58.3898 41.5185 58.4064 41.3363 58.4451 41.1982C58.4838 41.0602 58.5556 40.9277 58.6606 40.8172C58.7324 40.7399 58.8319 40.6681 58.9479 40.6129C59.0695 40.5577 59.2132 40.5246 59.39 40.5246C59.5668 40.5246 59.716 40.5522 59.8376 40.6129C59.9591 40.6681 60.0586 40.7399 60.1304 40.8172C60.2354 40.9277 60.3073 41.0602 60.3459 41.1982C60.3846 41.3363 60.4012 41.5185 60.4012 41.7338C60.4012 41.9492 60.3846 42.1314 60.3459 42.275ZM59.7823 41.4025C59.7657 41.3031 59.7271 41.2258 59.6718 41.1651C59.6 41.0933 59.5116 41.0602 59.3955 41.0602C59.2795 41.0602 59.1911 41.0933 59.1248 41.1651C59.064 41.2258 59.0253 41.3031 59.0142 41.4025C58.9977 41.5019 58.9921 41.6124 58.9921 41.7394C58.9921 41.8664 58.9977 41.9768 59.0142 42.0762C59.0308 42.1756 59.0695 42.2584 59.1248 42.3192C59.1966 42.3909 59.285 42.4241 59.3955 42.4241C59.506 42.4241 59.6 42.3909 59.6718 42.3192C59.7326 42.2584 59.7713 42.1756 59.7823 42.0762C59.7989 41.9768 59.8044 41.8664 59.8044 41.7394C59.8044 41.6124 59.7989 41.5019 59.7823 41.4025Z" fill="#004386"/>
<path d="M63.0314 42.9266V41.4909C63.0314 41.4081 63.0204 41.3418 62.9983 41.2866C62.9762 41.2314 62.943 41.1872 62.9043 41.1541C62.8656 41.1209 62.8214 41.0988 62.7772 41.0823C62.7275 41.0657 62.6833 41.0602 62.6391 41.0602C62.5949 41.0602 62.5451 41.0657 62.5009 41.0823C62.4512 41.0988 62.4125 41.1209 62.3738 41.1541C62.3352 41.1872 62.3075 41.2314 62.2799 41.2866C62.2578 41.3418 62.2412 41.4081 62.2412 41.4909V42.9266H61.65V40.5522H62.2302V40.773C62.3075 40.6902 62.4015 40.6295 62.5065 40.5853C62.6115 40.5467 62.7164 40.5246 62.827 40.5246C62.943 40.5246 63.0535 40.5411 63.1474 40.5798C63.2414 40.6184 63.3243 40.6681 63.3906 40.7344C63.49 40.8338 63.5508 40.9332 63.584 41.0491C63.6171 41.1596 63.6337 41.2811 63.6337 41.4136V42.9321H63.0369L63.0314 42.9266Z" fill="#004386"/>
<path d="M38.8345 47.7692L38.6411 47.1949H37.4862L37.2873 47.7692H36.6242L37.8067 44.5224H38.304L39.492 47.7692H38.8289H38.8345ZM38.0774 45.4776L37.6685 46.6593H38.4753L38.0774 45.4776Z" fill="#004386"/>
<path d="M42.393 47.3661C42.3433 47.4655 42.2714 47.5428 42.1775 47.6091C42.0836 47.6753 41.9786 47.7195 41.857 47.7526C41.7354 47.7858 41.6028 47.8023 41.4647 47.8023C41.3708 47.8023 41.2768 47.8023 41.1884 47.7913C41.1 47.7802 41.0116 47.7692 40.9287 47.7416C40.8458 47.7195 40.7629 47.6808 40.68 47.6367C40.5972 47.5925 40.5253 47.5318 40.448 47.4544L40.8348 47.0679C40.9342 47.1673 41.0392 47.228 41.1553 47.2501C41.2713 47.2777 41.3763 47.2888 41.4702 47.2888C41.5199 47.2888 41.5752 47.2888 41.6249 47.2777C41.6747 47.2667 41.7189 47.2557 41.7575 47.2336C41.7962 47.2115 41.8294 47.1894 41.8515 47.1563C41.8736 47.1231 41.8902 47.09 41.8902 47.0403C41.8902 46.9796 41.8736 46.9299 41.8349 46.8912C41.7962 46.8526 41.7354 46.8305 41.636 46.8194L41.2602 46.7808C41.0447 46.7587 40.8734 46.698 40.7519 46.5986C40.6303 46.4992 40.5695 46.339 40.5695 46.1182C40.5695 45.9967 40.5972 45.8863 40.6469 45.7924C40.6966 45.6985 40.7629 45.6212 40.8458 45.5549C40.9287 45.4887 41.0282 45.4445 41.1387 45.4114C41.2492 45.3782 41.3652 45.3617 41.4868 45.3617C41.6747 45.3617 41.8404 45.3838 41.9952 45.4224C42.1499 45.4611 42.2825 45.5329 42.3985 45.6433L42.0338 46.0133C41.962 45.9525 41.8791 45.9083 41.7852 45.8862C41.6912 45.8642 41.5863 45.8531 41.4868 45.8531C41.3708 45.8531 41.2823 45.8752 41.2271 45.9194C41.1718 45.9636 41.1497 46.0188 41.1497 46.0795C41.1497 46.1016 41.1497 46.1237 41.1608 46.1458C41.1663 46.1679 41.1773 46.1899 41.1995 46.2065C41.2216 46.2231 41.2437 46.2396 41.2768 46.2562C41.31 46.2728 41.3486 46.2783 41.4039 46.2838L41.7797 46.3225C42.0173 46.3446 42.1941 46.4163 42.3101 46.5378C42.4262 46.6593 42.4869 46.8194 42.4869 47.0182C42.4869 47.1507 42.4593 47.2612 42.4096 47.3606L42.393 47.3661Z" fill="#004386"/>
<path d="M45.4321 47.3661C45.3824 47.4655 45.3106 47.5428 45.2166 47.6091C45.1227 47.6753 45.0177 47.7195 44.8961 47.7526C44.7746 47.7858 44.642 47.8023 44.5038 47.8023C44.4099 47.8023 44.3159 47.8023 44.2275 47.7913C44.1391 47.7802 44.0507 47.7692 43.9678 47.7416C43.8849 47.7195 43.8021 47.6808 43.7192 47.6367C43.6363 47.5925 43.5645 47.5318 43.4871 47.4544L43.8739 47.0679C43.9734 47.1673 44.0783 47.228 44.1944 47.2501C44.3104 47.2777 44.4154 47.2888 44.5093 47.2888C44.5591 47.2888 44.6143 47.2888 44.6641 47.2777C44.7138 47.2667 44.758 47.2557 44.7967 47.2336C44.8354 47.2115 44.8685 47.1894 44.8906 47.1563C44.9127 47.1231 44.9293 47.09 44.9293 47.0403C44.9293 46.9796 44.9127 46.9299 44.874 46.8912C44.8354 46.8526 44.7746 46.8305 44.6751 46.8194L44.2994 46.7808C44.0839 46.7587 43.9126 46.698 43.791 46.5986C43.6694 46.4992 43.6087 46.339 43.6087 46.1182C43.6087 45.9967 43.6363 45.8863 43.686 45.7924C43.7357 45.6985 43.8021 45.6212 43.8849 45.5549C43.9678 45.4887 44.0673 45.4445 44.1778 45.4114C44.2883 45.3782 44.4044 45.3617 44.5259 45.3617C44.7138 45.3617 44.8796 45.3838 45.0343 45.4224C45.189 45.4611 45.3216 45.5329 45.4377 45.6433L45.073 46.0133C45.0011 45.9525 44.9182 45.9083 44.8243 45.8862C44.7304 45.8642 44.6254 45.8531 44.5259 45.8531C44.4099 45.8531 44.3215 45.8752 44.2662 45.9194C44.211 45.9636 44.1889 46.0188 44.1889 46.0795C44.1889 46.1016 44.1889 46.1237 44.1999 46.1458C44.2054 46.1679 44.2165 46.1899 44.2386 46.2065C44.2607 46.2231 44.2828 46.2396 44.3159 46.2562C44.3491 46.2728 44.3878 46.2783 44.443 46.2838L44.8188 46.3225C45.0564 46.3446 45.2332 46.4163 45.3492 46.5378C45.4653 46.6593 45.5261 46.8194 45.5261 47.0182C45.5261 47.1507 45.4984 47.2612 45.4487 47.3606L45.4321 47.3661Z" fill="#004386"/>
<path d="M48.5818 47.1231C48.5431 47.2667 48.4768 47.3937 48.3663 47.5097C48.2944 47.587 48.195 47.6587 48.0734 47.714C47.9518 47.7692 47.8026 47.8023 47.6258 47.8023C47.449 47.8023 47.2998 47.7747 47.1838 47.714C47.0622 47.6587 46.9683 47.587 46.8964 47.5097C46.7914 47.3992 46.7196 47.2667 46.6809 47.1231C46.6423 46.9796 46.6257 46.7973 46.6257 46.582C46.6257 46.3666 46.6423 46.1844 46.6809 46.0464C46.7196 45.9083 46.7914 45.7758 46.8964 45.6654C46.9683 45.5881 47.0677 45.5163 47.1838 45.4611C47.3053 45.4058 47.449 45.3727 47.6258 45.3727C47.8026 45.3727 47.9518 45.4003 48.0734 45.4611C48.195 45.5163 48.2944 45.5881 48.3663 45.6654C48.4712 45.7758 48.5431 45.9083 48.5818 46.0464C48.6204 46.1844 48.637 46.3666 48.637 46.582C48.637 46.7973 48.6204 46.9796 48.5818 47.1231ZM48.0181 46.2507C48.0016 46.1513 47.9629 46.074 47.9076 46.0132C47.8358 45.9415 47.7474 45.9083 47.6313 45.9083C47.5153 45.9083 47.4269 45.9415 47.3606 46.0132C47.2998 46.074 47.2611 46.1513 47.2501 46.2507C47.2335 46.3501 47.228 46.4605 47.228 46.5875C47.228 46.7145 47.2335 46.825 47.2501 46.9243C47.2667 47.0237 47.3053 47.1066 47.3606 47.1673C47.4324 47.2391 47.5208 47.2722 47.6313 47.2722C47.7419 47.2722 47.8358 47.2391 47.9076 47.1673C47.9684 47.1066 48.0071 47.0237 48.0181 46.9243C48.0347 46.825 48.0402 46.7145 48.0402 46.5875C48.0402 46.4605 48.0347 46.3501 48.0181 46.2507Z" fill="#004386"/>
<path d="M51.2838 47.7195C51.1567 47.7747 51.013 47.7968 50.8473 47.7968C50.7312 47.7968 50.6041 47.7802 50.4771 47.7416C50.35 47.7029 50.2339 47.6422 50.1345 47.5483C50.0295 47.4544 49.9466 47.333 49.8803 47.1728C49.814 47.0182 49.7808 46.8194 49.7808 46.5765C49.7808 46.3335 49.814 46.1403 49.8803 45.9801C49.9466 45.8255 50.0295 45.6985 50.1345 45.6102C50.2395 45.5163 50.35 45.4555 50.4771 45.4169C50.6041 45.3782 50.7257 45.3617 50.8473 45.3617C51.013 45.3617 51.1567 45.3893 51.2838 45.439C51.4109 45.4887 51.5269 45.5715 51.6319 45.6819L51.2286 46.085C51.1678 46.0188 51.107 45.9691 51.0517 45.9415C50.9965 45.9139 50.9246 45.8973 50.8473 45.8973C50.7091 45.8973 50.5931 45.947 50.5102 46.0519C50.466 46.1071 50.4329 46.1789 50.4108 46.2617C50.3887 46.3446 50.3776 46.4495 50.3776 46.5765C50.3776 46.8194 50.4218 46.9961 50.5102 47.1066C50.5931 47.2115 50.7091 47.2612 50.8473 47.2612C50.9246 47.2612 50.9965 47.2446 51.0517 47.217C51.107 47.1894 51.1678 47.1397 51.2286 47.0734L51.6319 47.471C51.5269 47.5814 51.4109 47.6643 51.2838 47.714V47.7195Z" fill="#004386"/>
<path d="M52.7868 44.9917V44.5058H53.3946V44.9917H52.7868ZM52.7923 47.7692V45.3948H53.3891V47.7692H52.7923Z" fill="#004386"/>
<path d="M55.9475 47.7692V47.5649C55.8701 47.6422 55.7873 47.7029 55.6988 47.7361C55.6104 47.7747 55.4999 47.7913 55.3618 47.7913C55.0965 47.7913 54.8976 47.7195 54.7539 47.5814C54.6876 47.5152 54.6434 47.4379 54.6103 47.344C54.5771 47.2501 54.5605 47.1563 54.5605 47.0458C54.5605 46.952 54.5771 46.8636 54.6103 46.7808C54.6434 46.698 54.6932 46.6262 54.7595 46.5599C54.8258 46.4992 54.9087 46.4495 55.0137 46.4108C55.1131 46.3722 55.2347 46.3556 55.3728 46.3556H55.9364V46.2396C55.9364 46.1071 55.9033 46.0133 55.8315 45.9525C55.7651 45.8918 55.6491 45.8642 55.4889 45.8642C55.4336 45.8642 55.3783 45.8642 55.3397 45.8752C55.2955 45.8807 55.2568 45.8918 55.2236 45.9083C55.1905 45.9249 55.1573 45.9415 55.1242 45.9691C55.0965 45.9912 55.0634 46.0243 55.0302 46.0629L54.649 45.693C54.765 45.566 54.8866 45.4776 55.0192 45.4335C55.1463 45.3893 55.312 45.3672 55.511 45.3672C55.848 45.3672 56.0967 45.439 56.268 45.577C56.4393 45.7151 56.5222 45.9249 56.5222 46.2065V47.7692H55.9364H55.9475ZM55.9364 46.7642H55.4668C55.3618 46.7642 55.2789 46.7863 55.2236 46.836C55.1684 46.8857 55.1352 46.952 55.1352 47.0348C55.1352 47.1176 55.1628 47.1839 55.2181 47.2336C55.2734 47.2833 55.3618 47.3109 55.4778 47.3109C55.5607 47.3109 55.627 47.3054 55.6878 47.2943C55.7486 47.2833 55.7983 47.2501 55.8536 47.2004C55.9088 47.1452 55.942 47.0458 55.942 46.8967V46.7697L55.9364 46.7642Z" fill="#004386"/>
<path d="M58.6109 47.7692C58.4893 47.7692 58.3843 47.7471 58.2959 47.7084C58.2075 47.6698 58.1357 47.6146 58.0804 47.5538C58.0252 47.4876 57.9809 47.4158 57.9588 47.3385C57.9312 47.2557 57.9202 47.1728 57.9202 47.09V45.9139H57.6715V45.4611H57.9202V44.7598H58.5169V45.4611H58.9369V45.9139H58.5169V47.0513C58.5169 47.1949 58.5832 47.2667 58.7214 47.2667H58.9369V47.7692H58.6109Z" fill="#004386"/>
<path d="M60.1249 44.9917V44.5058H60.7327V44.9917H60.1249ZM60.1304 47.7692V45.3948H60.7272V47.7692H60.1304Z" fill="#004386"/>
<path d="M63.921 47.1231C63.8824 47.2667 63.8161 47.3937 63.7055 47.5097C63.6337 47.587 63.5342 47.6587 63.4127 47.714C63.2911 47.7692 63.1419 47.8023 62.9651 47.8023C62.7883 47.8023 62.6391 47.7747 62.523 47.714C62.4015 47.6587 62.3075 47.587 62.2357 47.5097C62.1307 47.3992 62.0589 47.2667 62.0202 47.1231C61.9815 46.9796 61.965 46.7973 61.965 46.582C61.965 46.3666 61.9815 46.1844 62.0202 46.0464C62.0589 45.9083 62.1307 45.7758 62.2357 45.6654C62.3075 45.5881 62.407 45.5163 62.523 45.4611C62.6446 45.4058 62.7883 45.3727 62.9651 45.3727C63.1419 45.3727 63.2911 45.4003 63.4127 45.4611C63.5342 45.5163 63.6337 45.5881 63.7055 45.6654C63.8105 45.7758 63.8824 45.9083 63.921 46.0464C63.9597 46.1844 63.9763 46.3666 63.9763 46.582C63.9763 46.7973 63.9597 46.9796 63.921 47.1231ZM63.3574 46.2507C63.3408 46.1513 63.3022 46.074 63.2469 46.0132C63.1751 45.9415 63.0867 45.9083 62.9706 45.9083C62.8546 45.9083 62.7662 45.9415 62.6999 46.0132C62.6391 46.074 62.6004 46.1513 62.5894 46.2507C62.5728 46.3501 62.5673 46.4605 62.5673 46.5875C62.5673 46.7145 62.5728 46.825 62.5894 46.9243C62.6059 47.0237 62.6446 47.1066 62.6999 47.1673C62.7717 47.2391 62.8601 47.2722 62.9706 47.2722C63.0811 47.2722 63.1751 47.2391 63.2469 47.1673C63.3077 47.1066 63.3464 47.0237 63.3574 46.9243C63.374 46.825 63.3795 46.7145 63.3795 46.5875C63.3795 46.4605 63.374 46.3501 63.3574 46.2507Z" fill="#004386"/>
<path d="M66.6065 47.7692V46.3335C66.6065 46.2507 66.5955 46.1844 66.5734 46.1292C66.5513 46.074 66.5181 46.0298 66.4794 45.9967C66.4408 45.9636 66.3966 45.9415 66.3524 45.9249C66.3026 45.9083 66.2584 45.9028 66.2142 45.9028C66.17 45.9028 66.1203 45.9083 66.0761 45.9249C66.0263 45.9415 65.9877 45.9636 65.949 45.9967C65.9103 46.0298 65.8827 46.074 65.855 46.1292C65.8329 46.1844 65.8164 46.2507 65.8164 46.3335V47.7692H65.2251V45.3948H65.8053V45.6157C65.8827 45.5329 65.9766 45.4721 66.0816 45.4279C66.1866 45.3893 66.2916 45.3672 66.4021 45.3672C66.5181 45.3672 66.6286 45.3838 66.7226 45.4224C66.8165 45.4611 66.8994 45.5108 66.9657 45.577C67.0652 45.6764 67.1259 45.7758 67.1591 45.8918C67.1923 46.0022 67.2088 46.1237 67.2088 46.2562V47.7747H66.6121L66.6065 47.7692Z" fill="#004386"/>
<path d="M94.5057 20.9718V13.7548C94.5057 12.2474 95.0748 11.1872 96.7933 11.1872C98.7107 11.1872 99.0809 12.4517 99.0809 13.7548V22.9707H114.387C115 22.9707 115.531 23.2579 115.531 23.9094C115.531 24.561 115 24.8482 114.387 24.8482H99.2025C100.181 34.3954 105.651 42.5511 114.509 46.5489C115.244 46.8747 115.57 47.1176 115.57 47.6477C115.57 48.095 115.161 48.5864 114.674 48.5864C114.553 48.5864 114.266 48.5036 114.022 48.4208C111.127 47.4434 108.469 45.9304 106.065 44.1358C102.103 41.2424 98.882 37.5262 96.8817 33.0425C94.0636 38.6306 90.4333 42.667 85.0457 45.8918C83.9461 46.5047 80.1058 48.6251 79.0061 48.6251C78.5144 48.6251 78.111 48.2165 78.111 47.6864C78.111 47.1563 78.5586 46.8691 79.0061 46.6648C88.0241 42.1756 93.3729 34.8758 94.351 24.8426H79.3322C78.763 24.8426 78.1884 24.5997 78.1884 23.9039C78.1884 23.2523 78.7575 22.9652 79.3322 22.9652H94.478C94.5167 22.3136 94.5167 21.6621 94.5167 20.9663L94.5057 20.9718Z" fill="#004386"/>
<path d="M127.207 46.5489C127.207 47.9348 126.637 48.8735 125.168 48.8735C123.698 48.8735 123.129 47.9348 123.129 46.5489V16.1182C123.129 13.2634 124.516 12.6891 127.091 12.6891H133.296C134.523 12.6891 135.948 13.1364 135.948 14.6052C135.948 15.1353 135.782 15.6654 135.578 16.1568L131.251 25.5384C131.169 25.704 131.047 25.947 131.047 26.0298C131.047 26.1955 131.169 26.3556 131.417 26.6427C132.721 28.1115 133.865 29.5362 134.639 31.4136C135.291 32.9652 135.782 34.677 135.782 36.3887C135.782 39.3263 134.357 41.7338 131.13 41.7338H128.804C128.234 41.7338 127.743 41.3639 127.743 40.7951C127.743 40.2264 128.19 39.8564 128.721 39.8564H129.456C131.008 39.8564 131.456 38.1005 131.456 36.3059C131.456 32.3468 130.191 29.9006 128.024 26.7587C127.864 26.5157 127.737 26.2673 127.737 25.9856C127.737 25.6157 127.903 25.2126 128.107 24.6825L131.373 15.9525C131.577 15.4224 131.616 15.2568 131.616 15.1353C131.616 14.7267 131.207 14.5665 130.843 14.5665H128.881C127.533 14.5665 127.207 14.9365 127.207 16.2783V46.5433V46.5489ZM152.674 29.0889C152.879 27.8244 153.083 26.5213 153.083 25.2126C153.083 24.5997 152.592 24.3954 152.022 24.3954H141.899C141.778 32.0652 140.921 40.6295 135.407 46.4605C134.876 47.0293 133.285 48.6251 132.511 48.6251C132.064 48.6251 131.572 48.2993 131.572 47.7692C131.572 47.3219 131.942 46.952 132.224 46.6703C137.324 41.0823 137.451 33.8653 137.451 26.7256V16.9354C137.451 13.7107 138.96 12.899 141.982 12.899H158.145C158.714 12.899 159.289 13.1861 159.289 13.8377C159.289 14.4892 158.72 14.7764 158.145 14.7764H143.817C142.347 14.7764 141.938 15.2236 141.938 16.6924V22.5235H154.592C156.062 22.5235 157.692 23.0149 157.692 24.7653C157.692 25.4611 157.404 27.4986 156.996 29.4975C156.139 33.6554 154.548 37.9017 151.768 41.2866C153.525 43.7327 155.89 45.4445 158.504 46.709C158.952 46.9133 159.482 47.2004 159.482 47.7692C159.482 48.2606 159.035 48.7079 158.543 48.7079C157.929 48.7079 155.769 47.6091 155.034 47.2004C153.155 46.1403 151.442 44.7929 149.934 43.2855C147.32 45.7316 144.137 47.6091 140.711 48.6692C140.059 48.8735 140.015 48.8735 139.816 48.8735C139.324 48.8735 138.921 48.4263 138.921 47.9348C138.921 47.3219 139.413 47.1176 140.021 46.8746C143.121 45.6102 145.9 43.6499 147.978 41.0436C145.568 37.9459 144.016 34.4782 143.121 30.6405C142.833 29.4147 142.712 28.5202 142.712 28.1115C142.712 26.847 143.734 25.947 144.999 25.947C146.265 25.947 146.834 26.72 146.961 27.9459C147.287 31.5351 148.143 34.9641 149.818 38.1833C151.288 35.3285 152.183 32.2695 152.674 29.0889Z" fill="#004386"/>
<path d="M165.334 23.0536C165.947 23.0536 167.621 23.7493 168.887 24.3181C170.031 24.8095 171.335 25.4611 172.357 26.3556C172.727 26.6814 172.849 27.1287 172.849 27.5814C172.849 28.8073 171.909 29.989 170.644 29.989C169.87 29.989 169.34 29.4975 168.887 28.8901C167.704 27.3827 166.439 25.9967 164.886 24.8095C164.643 24.6052 164.394 24.3622 164.394 23.9923C164.394 23.5008 164.803 23.0536 165.334 23.0536ZM165.704 44.4671C168.113 40.7951 170.069 36.7973 171.744 32.7222C171.909 32.3136 172.191 31.9492 172.683 31.9492C173.175 31.9492 173.578 32.3965 173.578 32.8879C173.578 33.9481 170.6 43.0425 170.025 44.6328C169.738 45.5273 169.124 47.5704 168.351 48.1391C168.025 48.3821 167.616 48.5036 167.207 48.5036C166.063 48.5036 164.919 47.4047 164.919 46.2176C164.919 45.566 165.328 44.9917 165.693 44.4616L165.704 44.4671ZM167.213 11.4301C167.66 11.4301 169.948 12.4903 170.683 12.8548C171.705 13.3849 173.252 14.1193 174.031 14.9752C174.357 15.3451 174.562 15.831 174.562 16.2783C174.562 17.46 173.501 18.5643 172.357 18.5643C171.539 18.5643 171.053 18.0729 170.6 17.4655C169.495 15.8752 168.152 14.3678 166.682 13.1033C166.439 12.8989 166.273 12.6946 166.273 12.3689C166.273 11.8388 166.682 11.4301 167.213 11.4301ZM195.46 25.0966H201.013C201.582 25.0966 202.157 25.3838 202.157 26.0353C202.157 26.6869 201.588 26.974 201.013 26.974H195.46C196.233 30.6019 198.847 33.8653 201.908 35.8642C202.234 36.0685 202.477 36.3114 202.477 36.72C202.477 37.2115 202.107 37.6587 201.582 37.6587C201.295 37.6587 201.013 37.5373 200.764 37.4158C196.399 35.4169 192.559 31.5406 191.012 26.974H185.381C184.69 28.8073 183.668 30.4417 182.441 31.9492H191.056C193.504 31.9492 194.73 32.7222 194.73 35.2126V37.333C194.73 39.8233 193.305 40.5577 191.056 40.5577H184.895C183.591 40.5577 183.22 40.9663 183.22 42.2695V44.8813C183.22 46.1844 183.591 46.5544 184.895 46.5544H193.835C196.736 46.5544 197.14 44.7598 197.714 42.3523C197.919 41.4578 198.571 40.8448 199.549 40.8448C200.527 40.8448 201.836 41.4578 201.836 42.6394C201.836 43.9867 201.063 45.6599 200.284 46.72C199.018 48.4318 197.101 48.4318 195.139 48.4318H182.524C180.237 48.4318 178.811 47.7802 178.811 45.2071V41.9437C178.811 39.4533 180.242 38.7189 182.524 38.7189H188.934C190.321 38.7189 190.608 38.3103 190.608 37.0072V35.5384C190.608 34.1911 190.244 33.8266 188.934 33.8266H180.773C179.06 35.4555 177.181 36.9243 175.059 37.9459C174.899 38.0287 174.733 38.1115 174.529 38.1115C174.037 38.1115 173.589 37.6643 173.589 37.1728C173.589 36.7642 173.877 36.5213 174.158 36.2783C177.137 33.915 179.629 30.6902 180.607 26.9796H175.136C174.567 26.9796 173.993 26.6924 173.993 26.0409C173.993 25.3893 174.562 25.1022 175.136 25.1022H180.728V18.2882H176.689C176.12 18.2882 175.545 18.0011 175.545 17.3495C175.545 16.698 176.114 16.4108 176.689 16.4108H180.728V13.8432C180.728 12.3744 181.22 11.1927 182.85 11.1927C184.48 11.1927 185.016 12.4186 185.016 13.8432V16.4108H191.177V13.8432C191.177 12.413 191.669 11.1927 193.299 11.1927C194.929 11.1927 195.465 12.4186 195.465 13.8432V16.4108H199.588C200.157 16.4108 200.731 16.698 200.731 17.3495C200.731 18.0011 200.162 18.2882 199.588 18.2882H195.465V25.1022L195.46 25.0966ZM185.011 18.2827V25.0966H191.172V18.2827H185.011Z" fill="#004386"/>
<path d="M213.949 13.7162C213.949 12.3302 214.479 11.27 215.988 11.27C217.496 11.27 218.071 12.3302 218.071 13.7162V19.873H220.563C221.132 19.873 221.707 20.116 221.707 20.8117C221.707 21.4633 221.138 21.7504 220.563 21.7504H218.071V30.4804C218.441 30.3147 219.298 29.8675 220.032 29.5417C220.48 29.3374 220.928 29.1331 221.132 29.1331C221.624 29.1331 222.027 29.5803 222.027 30.0718C222.027 30.4804 221.784 30.7234 221.458 30.9663C220.397 31.7835 219.215 32.4738 218.071 33.1695V45.4059C218.071 47.852 216.645 48.6306 214.358 48.6306H210.849C210.28 48.6306 209.705 48.3435 209.705 47.6919C209.705 47.0403 210.274 46.7532 210.849 46.7532H212.274C213.623 46.7532 213.949 46.3887 213.949 45.0801V35.4555C212.805 36.1071 211.214 37.0072 210.479 37.0072C209.501 37.0072 208.804 36.0685 208.804 35.1298C208.804 34.3954 209.175 33.7824 209.904 33.5008C211.169 33.0094 212.639 32.6063 213.943 32.1149V21.7559H210.23C209.661 21.7559 209.086 21.4688 209.086 20.8172C209.086 20.1215 209.655 19.8785 210.23 19.8785H213.943V13.7217L213.949 13.7162ZM227.216 29.1772C226.973 35.3341 225.624 41.2093 221.95 46.3059C221.132 47.4876 220.441 48.3435 219.828 48.3435C219.336 48.3435 218.889 47.8962 218.889 47.4048C218.889 47.1176 219.054 46.8746 219.215 46.6317C220.972 44.0199 221.95 40.6792 222.48 37.2501C223.05 33.661 223.094 29.9503 223.094 26.7256V16.4053C223.094 13.429 224.646 12.529 227.382 12.529H245.014C245.583 12.529 246.158 12.8161 246.158 13.4677C246.158 14.1193 245.589 14.4064 245.014 14.4064H229.139C227.708 14.4064 227.26 14.8537 227.26 16.2838V27.2943H245.545C246.114 27.2943 246.688 27.5814 246.688 28.233C246.688 28.8846 246.119 29.1717 245.545 29.1717H239.013C239.173 31.3749 239.505 33.6168 240.074 35.7813C241.013 34.9641 241.909 34.1082 242.644 33.1695C243.135 32.6008 243.583 32.0265 244.401 32.0265C245.462 32.0265 246.318 33.0039 246.318 34.0254C246.318 34.7598 245.788 35.2512 245.213 35.6599C243.865 36.6814 242.395 37.5759 240.886 38.3932C241.621 40.4307 242.235 41.778 243.13 43.0425C243.986 44.2684 245.047 45.2844 246.517 46.6317C246.76 46.8746 246.965 47.1231 246.965 47.4876C246.965 47.979 246.556 48.4263 246.069 48.4263C245.091 48.4263 242.478 45.9359 241.743 45.2015C239.538 42.9597 237.908 40.265 236.764 37.4103C235.742 34.7598 235.129 31.9879 234.885 29.1717H233.051V43.4456C233.786 43.2413 236.317 42.3854 236.847 42.3854C237.378 42.3854 237.786 42.8327 237.786 43.3241C237.786 43.8542 237.339 44.1414 236.891 44.3457C235.339 45.1187 227.746 48.3048 226.404 48.3048C225.426 48.3048 224.812 47.6091 224.812 46.6317C224.812 45.8973 225.221 45.3672 225.912 45.2015C226.934 44.9586 228.117 44.6715 229.216 44.4285V29.1717H227.216V29.1772ZM229.255 21.5516C228.686 21.5516 228.111 21.3087 228.111 20.6129C228.111 19.9613 228.68 19.7184 229.255 19.7184H243.743C244.312 19.7184 244.887 19.9613 244.887 20.6129C244.887 21.3087 244.318 21.5516 243.743 21.5516H229.255Z" fill="#004386"/>
<path d="M255.419 15.9139C255.38 14.3236 256.397 13.5892 257.784 13.2192C259.132 12.8493 260.315 12.2419 261.497 11.5903C261.867 11.386 262.271 11.2203 262.68 11.2203C263.536 11.2203 264.105 12.0376 264.105 12.8493C264.105 13.4622 263.818 13.8708 263.249 14.0751C262.392 14.3622 261.492 14.5224 260.353 14.688C259.74 14.7708 259.375 15.1795 259.375 15.831L259.458 20.4417H262.398C263.011 20.4417 263.542 20.7289 263.542 21.3805C263.542 21.8719 263.133 22.3192 262.647 22.3192H259.464L259.547 28.3987H262.403C263.017 28.3987 263.547 28.6858 263.547 29.3374C263.547 29.8675 263.138 30.2761 262.652 30.2761H259.591L259.674 36.8415H264.288V15.7537C264.288 13.3076 265.713 12.529 268.001 12.529H275.306C277.593 12.529 279.019 13.302 279.019 15.7537V36.8415H283.511L283.594 30.2761H280.942C280.329 30.2761 279.798 29.989 279.798 29.3374C279.798 28.8459 280.207 28.3987 280.738 28.3987H283.639L283.721 22.3192H280.948C280.334 22.3192 279.804 22.032 279.804 21.3805C279.804 20.8504 280.213 20.4417 280.743 20.4417H283.721L283.804 16.1182C283.843 14.6107 283.395 14.4064 282.091 14.4064H280.948C280.334 14.4064 279.804 14.1193 279.804 13.4677C279.804 12.8161 280.334 12.529 280.948 12.529H284.175C286.418 12.529 287.932 13.3462 287.888 15.7537L287.6 36.8415H289.358C289.927 36.8415 290.501 37.1287 290.501 37.7802C290.501 38.4318 289.932 38.7189 289.358 38.7189H253.971C253.402 38.7189 252.827 38.4318 252.827 37.7802C252.827 37.1287 253.397 36.8415 253.971 36.8415H255.728L255.441 15.9194L255.419 15.9139ZM266.52 43.6113C265.338 44.5886 263.868 45.2844 262.519 45.936C259.95 47.1618 257.579 47.9735 255.623 48.5478C254.645 48.8349 254.115 48.9122 253.866 48.9122C253.374 48.9122 253.01 48.4649 253.01 48.0177C253.01 47.4048 253.502 47.2004 253.949 46.9961C257.458 45.4887 260.48 43.5284 263.011 40.508C263.42 40.0166 264.072 39.5693 264.768 39.5693C266.072 39.5693 267.338 40.6681 267.338 41.9768C267.338 42.6284 267.012 43.2027 266.52 43.6113ZM275.787 16.1182C275.787 14.815 275.416 14.4064 274.112 14.4064H269.134C267.83 14.4064 267.459 14.815 267.459 16.1182V36.836H275.787V16.1182ZM269.294 20.116C268.725 20.116 268.15 19.8288 268.15 19.1773C268.15 18.5257 268.719 18.2385 269.294 18.2385H273.908C274.477 18.2385 275.052 18.5257 275.052 19.1773C275.052 19.8288 274.483 20.116 273.908 20.116H269.294ZM274.643 31.9879C274.643 33.291 273.621 33.9481 272.399 33.9481H270.93C269.703 33.9481 268.642 33.2965 268.642 31.9879V25.1353C268.642 23.8708 269.786 23.2579 270.885 23.2579H272.394C273.621 23.2579 274.599 23.9094 274.637 25.2181V31.9879H274.643ZM271.499 25.1353C271.09 25.1353 270.885 25.3782 270.885 25.7482V31.4578C270.885 31.8664 271.09 32.0707 271.499 32.0707H271.786C272.195 32.0707 272.399 31.8664 272.399 31.4578V25.7482C272.399 25.3838 272.195 25.1353 271.786 25.1353H271.499ZM280.887 41.0823C282.97 43.5284 285.783 45.4887 289.01 46.9133C289.457 47.1176 289.905 47.3606 289.905 47.9348C289.905 48.3821 289.54 48.8349 289.048 48.8349C288.678 48.8349 287.617 48.5919 286.926 48.3435C284.434 47.4489 281.948 46.5102 279.539 45.2844C278.069 44.55 276.151 43.4898 276.151 42.021C276.151 40.7178 277.378 39.6135 278.643 39.6135C279.5 39.6135 280.113 40.1436 280.887 41.0823Z" fill="#004386"/>
<path d="M305.957 21.016C306.526 21.016 307.101 21.3031 307.101 21.9547C307.101 22.6063 306.531 22.8934 305.957 22.8934H302.73V46.3059C302.73 47.7361 302.238 48.9177 300.608 48.9177C298.978 48.9177 298.525 47.7361 298.525 46.3059V22.8934H295.425C294.812 22.8934 294.281 22.6063 294.281 21.9547C294.281 21.3031 294.812 21.016 295.425 21.016H298.525V13.799C298.525 12.413 299.017 11.1872 300.608 11.1872C302.199 11.1872 302.73 12.3689 302.73 13.799V21.016H305.957ZM306.852 46.6317C306.36 47.1618 305.343 48.2662 304.769 48.2662C304.277 48.2662 303.829 47.8575 303.829 47.3661C303.829 47.0403 303.995 46.7973 304.321 46.4274C307.056 43.2468 308.156 39.0447 308.482 35.0083H305.261C304.691 35.0083 304.117 34.7211 304.117 34.0696C304.117 33.3738 304.686 33.1309 305.261 33.1309H308.565V31.6234C308.565 30.2374 309.095 29.1331 310.687 29.1331C311.786 29.1331 312.809 29.9061 312.809 31.0491C312.809 31.7449 312.726 32.4351 312.604 33.1309H314.77C316.24 33.1309 317.749 33.6996 317.749 35.4169C317.749 37.1342 317.544 39.376 317.34 41.0878C317.135 42.6781 316.771 44.4727 316.279 45.82C315.505 47.9404 314.113 48.4318 311.952 48.4318H309.786C309.217 48.4318 308.642 48.1447 308.642 47.4931C308.642 46.8415 309.211 46.5544 309.786 46.5544H310.521C312.356 46.5544 312.687 45.3727 313.013 43.8211C313.461 41.7394 313.831 37.8244 313.831 35.704C313.831 35.2126 313.505 35.0083 313.057 35.0083H312.201C311.466 39.4975 309.913 43.291 306.852 46.6317ZM311.14 27.5041C310.162 27.9514 308.814 28.5643 308.117 28.5643C307.626 28.5643 307.222 28.1171 307.222 27.6256C307.222 27.0569 307.67 26.8084 308.117 26.6041C312.035 24.8095 314.444 21.9934 315.466 17.8354H309.018C308.449 17.8354 307.874 17.5483 307.874 16.8967C307.874 16.2452 308.443 15.958 309.018 15.958H315.792C315.792 15.0635 315.875 13.2634 316.08 12.5732C316.323 11.7173 317.428 11.1485 318.285 11.1485C319.467 11.1485 320.572 11.9658 320.572 13.2303C320.572 14.1248 320.406 15.0635 320.246 15.9636H326.247C327.921 15.9636 329.513 16.455 329.513 18.4539C329.513 20.2485 328.899 24.042 328.043 25.5494C327.225 26.9796 325.799 27.3827 324.247 27.3827H319.185C318.616 27.3827 318.041 27.1397 318.041 26.4826C318.041 25.7869 318.611 25.5439 319.185 25.5439H321.594C322.899 25.5439 323.838 25.1353 324.291 23.8708C324.739 22.6449 325.23 19.7902 325.23 18.5257C325.23 18.0342 324.821 17.8299 324.413 17.8299H319.926C318.821 22.3192 315.19 25.577 311.151 27.4986L311.14 27.5041ZM320.528 46.4716C319.428 47.6532 318.771 48.1833 318.362 48.1833C317.831 48.1833 317.423 47.7747 317.423 47.2446C317.423 47.0017 317.666 46.593 317.914 46.3059C320.611 43.0425 321.384 39.0889 321.711 35.0083H319.998C319.384 35.0083 318.854 34.7211 318.854 34.0696C318.854 33.418 319.384 33.1309 319.998 33.1309H321.793V30.9663C321.793 29.6632 322.528 28.7631 323.915 28.7631C325.015 28.7631 325.998 29.5362 325.998 30.6792C325.998 31.4964 325.916 32.3136 325.838 33.1253H328.656C330.331 33.1253 331.635 33.6941 331.635 35.6157C331.635 37.6974 331.143 43.1198 330.695 45.1187C330.082 47.8907 328.861 48.4208 326.164 48.4208H323.551C322.981 48.4208 322.407 48.1336 322.407 47.4821C322.407 46.8305 322.976 46.5433 323.551 46.5433H324.573C325.634 46.5433 326.286 46.5433 326.695 45.4003C327.347 43.5229 327.673 37.8134 327.673 35.6543C327.673 35.2071 327.347 35.0028 326.938 35.0028H325.507C325.015 39.5693 323.551 43.2027 320.528 46.466V46.4716Z" fill="#004386"/>
<path d="M373.105 27.09C372.9 27.09 372.536 26.9685 372.165 26.847C369.756 25.9912 367.225 24.8481 364.943 23.5008C361.269 21.3363 359.025 19.5417 355.472 15.7096C355.268 15.5052 355.108 15.3451 354.82 15.3451C354.494 15.3451 354.29 15.6322 354.085 15.8752C350.532 20.1601 345.394 23.5837 340.332 25.7869C339.558 26.1126 337.392 27.1342 336.702 27.1342C336.21 27.1342 335.801 26.6869 335.801 26.1955C335.801 25.6267 336.331 25.3782 336.779 25.1739C342.288 22.5235 347.189 18.4042 350.858 13.5063C351.958 12.0375 352.942 11.143 354.859 11.143C356.776 11.143 357.716 11.9602 358.777 13.429C362.407 18.487 367.264 22.6449 373.022 25.0966C373.47 25.3009 374 25.5881 374 26.1568C374 26.6041 373.591 27.0955 373.105 27.0955V27.09ZM346.819 44.5058C352.372 44.3015 357.92 43.8929 363.474 43.4843C362.33 41.5682 361.064 39.7736 359.639 38.0177C359.396 37.7305 359.147 37.4489 359.147 37.0403C359.147 36.5489 359.556 36.1016 360.086 36.1016C360.7 36.1016 363.882 38.7962 365.391 40.138C366.861 41.4412 368.248 42.7885 369.43 44.3401C369.839 44.8702 370.126 45.4003 370.126 46.0961C370.126 47.4434 368.778 48.5036 367.474 48.5036C366.452 48.5036 366.004 48.1778 365.513 47.2004C365.186 46.5875 364.695 45.7703 364.413 45.1629C359.843 45.8973 355.389 46.5102 350.781 47.079C348.864 47.3219 340.78 48.2606 340.415 48.2606C339.476 48.2606 338.862 47.4434 338.862 46.5489C338.862 45.7316 339.354 44.9972 340.128 44.8371C340.78 44.7156 342.575 44.6715 343.559 44.6328C345.521 41.2038 347.272 37.6146 348.786 33.9867H338.299C337.647 33.9867 336.867 33.8653 336.867 33.048C336.867 32.2308 337.641 32.1093 338.299 32.1093H371.524C372.176 32.1093 372.911 32.2308 372.911 33.048C372.911 33.8653 372.176 33.9867 371.524 33.9867H354.461C352.096 37.6146 349.687 41.2038 346.83 44.5113L346.819 44.5058ZM363.678 24.0309C364.291 24.0309 365.065 24.1524 365.065 24.9696C365.065 25.7869 364.291 25.9083 363.678 25.9083H346.206C345.554 25.9083 344.819 25.7869 344.819 24.9696C344.819 24.1524 345.554 24.0309 346.206 24.0309H363.678Z" fill="#004386"/>
<path d="M38.8842 58.9564C39.3373 59.2435 39.7738 59.3981 40.1993 59.4202V60C38.6024 59.9393 36.58 59.9117 34.1321 59.9117C31.419 59.9117 29.3966 59.9393 28.0649 60V59.4202C29.0761 59.3816 29.7945 59.2877 30.2199 59.1441C30.6454 59.0006 30.8609 58.741 30.8609 58.3766C30.8609 58.0287 30.7007 57.5649 30.3802 56.9851L27.982 52.2308L27.7002 51.651L23.7494 43.8266L19.5996 51.651L19.2791 52.2308L18.721 53.3076C19.6438 53.6278 20.5666 53.9315 21.5667 54.1745C23.4731 54.6328 25.3518 54.9807 27.2582 54.2131L27.3797 54.3788C25.9652 56.1292 23.3349 56.4108 21.2352 56.2176C20.0085 56.1237 18.8094 55.8421 17.6324 55.4942C17.2954 56.2893 17.1186 56.9464 17.1186 57.4544C17.1186 58.1668 17.4169 58.6692 18.0192 58.9453C18.616 59.2269 19.5001 59.3871 20.6716 59.4257V60.0055C18.8591 59.9448 17.2125 59.9172 15.7206 59.9172C14.4939 59.9172 13.4827 59.9448 12.687 60.0055V59.4257C13.991 59.2546 15.1348 58.2385 16.1184 56.3832L16.7428 55.2181C16.2068 55.0414 15.6708 54.8592 15.1404 54.677C11.3995 53.5119 7.41546 53.6886 3.59722 54.7985L3.49223 54.6218C5.12231 53.2468 7.17233 52.4186 9.30524 52.0044C11.4437 51.6234 13.7147 51.7062 15.8366 52.3357C16.5715 52.5621 17.2512 52.7996 17.9198 53.0315L25.2247 39.4257C25.5176 39.4478 25.9817 39.4533 26.6227 39.4533C27.2637 39.4533 27.7113 39.4423 27.982 39.4257L37.6851 57.5649C38.0332 58.1999 38.4311 58.6637 38.8842 58.9564ZM22.6387 20.3368C21.202 20.3368 19.898 19.9337 18.721 19.1165C17.544 18.3048 16.6102 17.1507 15.9195 15.6599C15.2288 14.169 14.8862 12.4406 14.8862 10.4749C14.8862 8.50911 15.1901 6.80287 15.7979 5.2899C16.4057 3.77692 17.2788 2.60629 18.4171 1.76146C19.5554 0.922143 20.865 0.502485 22.3514 0.502485C23.8378 0.502485 25.0921 0.911099 26.2691 1.72281C27.446 2.53451 28.3799 3.68857 29.0706 5.17946C29.7613 6.67035 30.1039 8.39868 30.1039 10.3644C30.1039 11.8885 29.916 13.28 29.5403 14.5334H30.5736C31.1151 14.5058 31.734 14.5003 32.4413 14.5003C33.6348 14.5003 34.7289 14.5555 35.7401 14.6604C36.475 13.3297 36.8452 11.8609 36.8452 10.2485C36.8452 8.11706 36.2485 6.2783 35.0604 4.73771C33.8669 3.19713 32.1981 2.02098 30.0486 1.20928C27.8992 0.39757 25.385 -0.0110435 22.5171 -0.0110435C19.6493 -0.0110435 17.2456 0.430701 15.0685 1.31971C12.8914 2.20872 11.195 3.45113 9.97385 5.05798C8.7582 6.66483 8.14485 8.50359 8.14485 10.5798C8.14485 12.656 8.74162 14.55 9.92965 16.0906C11.1177 17.6311 12.7919 18.8073 14.9414 19.619C17.0909 20.4307 19.5996 20.8393 22.4729 20.8393C22.6332 20.8393 22.7879 20.8338 22.9426 20.8283V20.3147C22.8376 20.3147 22.7382 20.3258 22.6332 20.3258L22.6387 20.3368ZM19.9035 14.4727V15.0414C20.7987 15.0801 21.4507 15.1574 21.8706 15.2678C22.2906 15.3838 22.5724 15.5991 22.7216 15.9194C22.8708 16.2396 22.9426 16.7587 22.9426 17.4765V20.3258C24.3019 20.2706 25.5176 19.8564 26.573 19.0779C27.7113 18.2385 28.5843 17.0624 29.1922 15.5494C29.3248 15.2236 29.4408 14.8813 29.5403 14.5389L26.0702 14.561C23.3349 14.561 21.2794 14.5334 19.898 14.4782L19.9035 14.4727ZM43.686 20.0828C43.686 21.1209 43.3047 22.1204 42.5477 23.0701C41.7907 24.0254 40.5087 24.8205 38.7129 25.4666C36.9115 26.1071 34.5244 26.4274 31.5516 26.4274H30.1094C29.4629 26.4274 29.4021 27.2004 29.4021 27.2004V31.3584C29.4021 32.1149 29.5182 32.667 29.7447 33.0149C29.9768 33.3628 30.3802 33.5947 30.9604 33.7107C31.5406 33.8211 32.4634 33.8929 33.7343 33.9094C33.3972 34.0254 33.0491 34.1027 32.6899 34.1469L32.5518 34.3181C32.4744 34.4119 32.3915 34.5003 32.3031 34.5831C32.1981 34.6825 32.0876 34.7708 31.9716 34.8592C31.4632 35.2292 30.8388 35.4887 30.2144 35.6267C27.8992 36.1292 25.5839 35.5549 23.3847 34.8482C23.3349 35.8255 22.9647 36.7642 22.2795 37.6643C21.5336 38.6416 20.2737 39.4589 18.5055 40.1104C16.7373 40.7675 14.3889 41.0933 11.4603 41.0933H9.34392V46.1347C9.34392 46.9078 9.45444 47.471 9.68099 47.8299C9.90754 48.1888 10.3054 48.4263 10.8801 48.5422C11.4547 48.6582 12.3609 48.7245 13.6153 48.7465V49.3816C10.3441 49.3208 7.90725 49.2932 6.31033 49.2932C4.97864 49.2932 3.30436 49.3153 1.28196 49.3539L0.0055275 49.3816V48.8018C0.88411 48.7631 1.53061 48.6858 1.93951 48.5699C2.35394 48.4539 2.63022 48.233 2.77942 47.9017C2.92309 47.5759 3.00044 47.0403 3.00044 46.3059V31.9326C3.00044 31.1982 2.92861 30.6681 2.77942 30.3368C2.63022 30.011 2.35394 29.7847 1.93951 29.6687C1.52509 29.5527 0.88411 29.4754 0.0055275 29.4368V28.857C1.36484 28.9177 3.38724 28.9453 6.07272 28.9453L10.5043 28.9177C11.0348 28.8956 11.6481 28.8901 12.3388 28.8901C15.9305 28.8901 18.6713 29.4092 20.5611 30.4417C21.6828 31.0547 22.4619 31.7946 22.9205 32.6615C22.9647 32.6726 23.0089 32.6836 23.0531 32.6946C25.7939 33.4787 29.4463 35.2236 32.2921 34.2407C32.3031 34.2407 32.3086 34.2352 32.3197 34.2297C32.3639 34.2131 32.4081 34.2021 32.4523 34.1855C32.4523 34.1855 32.4855 34.169 32.5076 34.1634C29.8939 34.423 26.8603 33.037 24.4953 32.3633C23.987 32.2198 23.462 32.1204 22.9316 32.0431C22.9426 31.8829 22.9481 31.7118 22.9481 31.524V20.8338C25.3242 20.7896 27.4792 20.4141 29.4021 19.7073V25.1795C29.4021 25.8034 30.2034 25.8586 30.2034 25.8586H31.1483C33.3419 25.8586 34.856 25.3672 35.6959 24.3843C36.5358 23.4014 36.9557 22.0707 36.9557 20.392C36.9557 18.5588 36.5689 17.2115 35.8009 16.339C35.7014 16.2231 35.5854 16.1182 35.4638 16.0188C35.4417 16.0022 35.4141 15.9856 35.392 15.9636C35.2925 15.8863 35.1875 15.8089 35.077 15.7427C35.0715 15.7427 35.066 15.7372 35.0549 15.7316C35.0549 15.7316 35.0328 15.7592 35.0273 15.7703C33.8116 17.3771 32.1097 18.6195 29.9326 19.5086C29.7613 19.5803 29.5845 19.6411 29.4077 19.7073V17.471C29.4077 16.7918 29.474 16.2838 29.6121 15.9415C29.7447 15.5991 29.9823 15.3672 30.3249 15.2347C30.662 15.1022 31.198 15.0359 31.9274 15.0359C32.2202 15.0359 32.4965 15.0525 32.7673 15.0745C32.8336 15.0801 32.8999 15.0856 32.9662 15.0966C33.2093 15.1242 33.4414 15.1574 33.6569 15.2071C33.6735 15.2071 33.6956 15.2126 33.7122 15.2181C33.9498 15.2733 34.1708 15.3396 34.3752 15.4169C34.4195 15.4335 34.4581 15.45 34.4968 15.4666C34.6792 15.5384 34.8505 15.6212 35.0107 15.7151C35.0273 15.7206 35.0439 15.7261 35.0549 15.7372C35.3146 15.3893 35.5467 15.0359 35.7456 14.6659C37.8233 14.8868 39.5141 15.3396 40.8071 16.0188C42.7301 17.0293 43.6915 18.3821 43.6915 20.0828H43.686ZM16.7649 34.9255C16.7649 34.5941 16.7483 34.2794 16.7262 33.9757C15.4719 34.0751 14.212 34.3015 12.9798 34.6438L12.8914 34.5058C13.9634 33.661 15.2122 33.0701 16.5328 32.7002C16.345 31.9105 16.0466 31.27 15.6266 30.7786C14.8696 29.8896 13.5987 29.4478 11.8139 29.4478C11.0956 29.4478 10.5706 29.5141 10.2391 29.6521C9.90754 29.7902 9.67546 30.0276 9.54285 30.3755C9.41023 30.7234 9.34392 31.2424 9.34392 31.9382V40.5135H11.0624C13.2174 40.5135 14.7094 40.011 15.5327 39.0061C16.356 38.0011 16.7704 36.6427 16.7704 34.9199L16.7649 34.9255Z" fill="url(#paint0_linear_124_359)"/>
</g>
<defs>
<linearGradient id="paint0_linear_124_359" x1="38.304" y1="9.59139" x2="12.0239" y2="55.1402" gradientUnits="userSpaceOnUse">
<stop stop-color="#82B7E4"/>
<stop offset="0.46" stop-color="#004190"/>
<stop offset="1" stop-color="#004386"/>
</linearGradient>
<clipPath id="clip0_124_359">
<rect width="374" height="60" fill="white"/>
</clipPath>
</defs>
</svg>
