<svg width="40" height="40" viewBox="0 0 40 40" fill="none" xmlns="http://www.w3.org/2000/svg">
<g clip-path="url(#clip0_108_3344)">
<path d="M29.2933 3.63333H3.61328V20.3533H29.2933V3.63333Z" fill="#A7913A" stroke="white" stroke-linejoin="round"/>
<path d="M30.4866 20.3533H2.41992V22.1467H30.4866V20.3533Z" stroke="white" stroke-linejoin="round"/>
<path d="M33.4538 14.3333C34.9265 14.3333 36.1204 13.1394 36.1204 11.6667C36.1204 10.1939 34.9265 9 33.4538 9C31.981 9 30.7871 10.1939 30.7871 11.6667C30.7871 13.1394 31.981 14.3333 33.4538 14.3333Z" stroke="white" stroke-linejoin="round"/>
<path d="M29.7863 23.3333V19.3267C29.7863 19.12 29.6597 18.9333 29.473 18.8467C29.2797 18.7667 29.0597 18.8067 28.913 18.9467L26.6397 21.12C26.2863 21.3933 25.793 21.38 25.4597 21.1L22.2197 18.22C21.8863 17.9333 21.8463 17.4267 22.133 17.0933C22.3997 16.78 22.873 16.7267 23.2063 16.9667L25.7063 18.7733C25.913 18.92 26.1997 18.9 26.3797 18.72L28.3597 16.7267C29.293 15.74 30.3663 15.3 31.8397 15.3H35.0397C36.4397 15.3 37.5797 16.44 37.5797 17.84V23.34" fill="#A7913A"/>
<path d="M29.7863 23.3333V19.3267C29.7863 19.12 29.6597 18.9333 29.473 18.8467C29.2797 18.7667 29.0597 18.8067 28.913 18.9467L26.6397 21.12C26.2863 21.3933 25.793 21.38 25.4597 21.1L22.2197 18.22C21.8863 17.9333 21.8463 17.4267 22.133 17.0933C22.3997 16.78 22.873 16.7267 23.2063 16.9667L25.7063 18.7733C25.913 18.92 26.1997 18.9 26.3797 18.72L28.3597 16.7267C29.293 15.74 30.3663 15.3 31.8397 15.3H35.0397C36.4397 15.3 37.5797 16.44 37.5797 17.84V23.34" stroke="white" stroke-linejoin="round"/>
<path d="M22.1335 17.1L19.1201 14.3333" stroke="white" stroke-linejoin="round"/>
<path d="M8.66667 29.6667C10.1394 29.6667 11.3333 28.4728 11.3333 27C11.3333 25.5273 10.1394 24.3333 8.66667 24.3333C7.19391 24.3333 6 25.5273 6 27C6 28.4728 7.19391 29.6667 8.66667 29.6667Z" stroke="white" stroke-linejoin="round"/>
<path d="M4 37.72V33.7933C4 32.22 5.27333 30.9467 6.84667 30.9467H10.4933C12.0667 30.9467 13.34 32.22 13.34 33.7933V37.72" stroke="white" stroke-linejoin="round"/>
<path d="M19.9997 29.6667C21.4724 29.6667 22.6663 28.4728 22.6663 27C22.6663 25.5273 21.4724 24.3333 19.9997 24.3333C18.5269 24.3333 17.333 25.5273 17.333 27C17.333 28.4728 18.5269 29.6667 19.9997 29.6667Z" stroke="white" stroke-linejoin="round"/>
<path d="M15.333 37.72V33.7933C15.333 32.22 16.6063 30.9467 18.1797 30.9467H21.8263C23.3997 30.9467 24.673 32.22 24.673 33.7933V37.72" stroke="white" stroke-linejoin="round"/>
<path d="M31.3337 29.6667C32.8064 29.6667 34.0003 28.4728 34.0003 27C34.0003 25.5273 32.8064 24.3333 31.3337 24.3333C29.8609 24.3333 28.667 25.5273 28.667 27C28.667 28.4728 29.8609 29.6667 31.3337 29.6667Z" stroke="white" stroke-linejoin="round"/>
<path d="M26.667 37.72V33.7933C26.667 32.22 27.9403 30.9467 29.5137 30.9467H33.1603C34.7337 30.9467 36.007 32.22 36.007 33.7933V37.72" stroke="white" stroke-linejoin="round"/>
</g>
<defs>
<clipPath id="clip0_108_3344">
<rect width="40" height="40" fill="white"/>
</clipPath>
</defs>
</svg>
