<svg width="30" height="30" viewBox="0 0 30 30" fill="none" xmlns="http://www.w3.org/2000/svg">
<path d="M6.5 4H15H18L20.75 6.75L23.5 9.5V26.5H6.5V4Z" stroke="#244668" stroke-linejoin="round"/>
<path d="M18 9.5V4L23.5 9.5H18Z" stroke="#244668" stroke-linejoin="round"/>
<path d="M18.7626 18.983H18.0029V14.1284H18.7626V18.983ZM20.943 17.0305H18.436V16.3924H20.943V17.0305ZM21 14.7666H18.2232V14.1284H21V14.7666Z" fill="#244668"/>
<path d="M15.0844 18.983H13.9069V18.341H15.0578C15.458 18.341 15.7581 18.2321 15.9581 18.0144C16.1607 17.7966 16.262 17.4851 16.262 17.0799V16.0239C16.262 15.6162 16.1607 15.3047 15.9581 15.0895C15.7581 14.8717 15.458 14.7628 15.0578 14.7628H13.9031V14.1284H15.0844C15.7277 14.1284 16.2126 14.2918 16.5393 14.6184C16.866 14.9426 17.0293 15.4098 17.0293 16.0201V17.0837C17.0293 17.694 16.866 18.1638 16.5393 18.493C16.2126 18.8197 15.7277 18.983 15.0844 18.983ZM14.1386 18.983H13.3865V14.1284H14.1386V18.983Z" fill="#244668"/>
<path d="M10.8613 17.4256H9.50141V16.795H10.8423C11.1462 16.795 11.3665 16.7203 11.5033 16.5709C11.6425 16.419 11.7122 16.2088 11.7122 15.9403V15.6099C11.7122 15.3338 11.6438 15.1224 11.5071 14.9755C11.3703 14.8286 11.1513 14.7552 10.8499 14.7552H9.49761V14.1284H10.8651C11.4222 14.1284 11.8287 14.2576 12.0844 14.5159C12.3427 14.7716 12.4719 15.13 12.4719 15.5909V15.9593C12.4719 16.4202 12.3427 16.7798 12.0844 17.0381C11.8261 17.2964 11.4184 17.4256 10.8613 17.4256ZM9.75212 18.983H9V14.1284H9.74832V16.9811L9.75212 17.323V18.983Z" fill="#244668"/>
</svg>
