<svg width="30" height="30" viewBox="0 0 30 30" fill="none" xmlns="http://www.w3.org/2000/svg">
<path d="M6.5 4H15H18L20.75 6.75L23.5 9.5V26.5H6.5V4Z" stroke="white" stroke-linejoin="round"/>
<path d="M18 9.5V4L23.5 9.5H18Z" stroke="white" stroke-linejoin="round"/>
<path d="M18.7617 18.9832H18.002V14.1287H18.7617V18.9832ZM20.9421 17.0308H18.435V16.3926H20.9421V17.0308ZM20.999 14.7668H18.2223V14.1287H20.999V14.7668Z" fill="white"/>
<path d="M15.0847 18.9832H13.9071V18.3413H15.0581C15.4582 18.3413 15.7583 18.2324 15.9584 18.0146C16.1609 17.7968 16.2622 17.4853 16.2622 17.0802V16.0242C16.2622 15.6164 16.1609 15.305 15.9584 15.0897C15.7583 14.8719 15.4582 14.763 15.0581 14.763H13.9033V14.1287H15.0847C15.7279 14.1287 16.2129 14.292 16.5395 14.6187C16.8662 14.9428 17.0296 15.41 17.0296 16.0204V17.084C17.0296 17.6943 16.8662 18.164 16.5395 18.4932C16.2129 18.8199 15.7279 18.9832 15.0847 18.9832ZM14.1388 18.9832H13.3867V14.1287H14.1388V18.9832Z" fill="white"/>
<path d="M10.8613 17.4258H9.50141V16.7953H10.8423C11.1462 16.7953 11.3665 16.7206 11.5033 16.5711C11.6425 16.4192 11.7122 16.209 11.7122 15.9406V15.6101C11.7122 15.3341 11.6438 15.1226 11.5071 14.9757C11.3703 14.8289 11.1513 14.7554 10.8499 14.7554H9.49761V14.1287H10.8651C11.4222 14.1287 11.8287 14.2578 12.0844 14.5161C12.3427 14.7719 12.4719 15.1302 12.4719 15.5911V15.9596C12.4719 16.4205 12.3427 16.7801 12.0844 17.0384C11.8261 17.2967 11.4184 17.4258 10.8613 17.4258ZM9.75212 18.9832H9V14.1287H9.74832V16.9814L9.75212 17.3233V18.9832Z" fill="white"/>
</svg>
