<svg width="40" height="40" viewBox="0 0 40 40" fill="none" xmlns="http://www.w3.org/2000/svg">
<g clip-path="url(#clip0_287_4295)">
<path d="M6.35935 35.9867C4.28602 35.82 2.37935 35.62 0.666016 35.3733L2.29268 33.02L0.666016 30.5267C2.41935 30.8133 5.94602 31.1133 8.33935 31.3067V36.06L6.35935 35.9933V35.9867Z" fill="#A7913A" stroke="white" stroke-linecap="round" stroke-linejoin="round"/>
<path d="M4.69336 32.62C4.69336 32.62 6.53336 32.5267 8.34003 31.3V33.58L4.69336 32.62Z" stroke="white" stroke-linecap="round" stroke-linejoin="round"/>
<path d="M33.6402 35.9867C35.7135 35.82 37.6202 35.62 39.3335 35.3733L37.7068 33.02L39.3335 30.5267C37.5802 30.8133 34.0535 31.1133 31.6602 31.3067V36.06L33.6402 35.9933V35.9867Z" stroke="white" stroke-linecap="round" stroke-linejoin="round"/>
<path d="M35.3068 32.62C35.3068 32.62 33.4668 32.5267 31.6602 31.3V33.58L35.3068 32.62Z" stroke="white" stroke-linecap="round" stroke-linejoin="round"/>
<path d="M20.0134 39.1667C23.7067 39.1667 27.1934 38.9933 30.2867 38.6933C32.12 38.5133 33.8134 38.2867 35.3334 38.0133V32.6267C33.78 32.94 31.8867 33.22 29.7667 33.4267C26.8734 33.7133 23.5467 33.8733 20.0134 33.8733C16.48 33.8733 13.1534 33.7067 10.26 33.4267C8.14003 33.22 6.24669 32.94 4.69336 32.6267V38.0133C6.21336 38.2867 7.90669 38.5133 9.74003 38.6933C12.8267 39 16.3134 39.1667 20.0134 39.1667Z" fill="#A7913A" stroke="white" stroke-linecap="round" stroke-linejoin="round"/>
<path d="M20.0134 33.16C20.0134 33.16 31.6134 30.0467 31.6134 22.2933V6.14001H8.38672V22.2933C8.38672 30.0467 19.9867 33.16 19.9867 33.16H20.0201H20.0134Z" stroke="white" stroke-linecap="round" stroke-linejoin="round"/>
<path d="M16.3398 18.1733L23.6598 10.8533H16.3398L23.6598 18.1733" stroke="white" stroke-linecap="round" stroke-linejoin="round"/>
<path d="M20 12.5933V27.8267" stroke="white" stroke-linecap="round" stroke-linejoin="round"/>
<path d="M25.2672 21.2067L27.6938 18.9333C27.6938 18.9333 27.9005 25.34 20.0005 27.8667C12.1005 25.3333 12.3072 18.9333 12.3072 18.9333L14.7338 21.2067" stroke="white" stroke-linecap="round" stroke-linejoin="round"/>
<path d="M28.2258 1.30666C28.1458 1.83332 28.0591 2.35332 27.9791 2.87999C27.6658 2.83332 27.3525 2.78666 27.0391 2.73999C27.1125 2.21332 27.1858 1.68666 27.2591 1.16666C25.8725 0.973323 24.4725 0.83999 23.0725 0.753323C23.0391 1.27999 23.0125 1.81332 22.9791 2.33999C22.6658 2.31999 22.3458 2.30666 22.0325 2.29332C22.0525 1.76666 22.0725 1.23332 22.0925 0.706656C20.6925 0.653323 19.2925 0.653323 17.8925 0.706656C17.9125 1.23332 17.9325 1.76666 17.9525 2.29332C17.6391 2.30666 17.3191 2.31999 17.0058 2.33999C16.9725 1.81332 16.9458 1.27999 16.9125 0.753323C15.5125 0.833323 14.1191 0.973323 12.7258 1.16666C12.7991 1.69332 12.8725 2.21999 12.9458 2.73999C12.6325 2.78666 12.3191 2.82666 12.0058 2.87999C11.9258 2.35332 11.8391 1.83332 11.7591 1.30666C10.3725 1.52666 8.99247 1.79999 7.61914 2.12666C7.74581 2.63999 7.86581 3.15999 7.99247 3.67332C7.99247 3.68666 7.99247 3.69332 7.99914 3.70666C8.12581 4.21999 8.24581 4.73999 8.37247 5.25332C16.0058 3.41999 23.9658 3.41999 31.6058 5.25332C31.7325 4.73999 31.8525 4.21999 31.9791 3.70666C31.9791 3.69332 31.9791 3.68666 31.9858 3.67332C32.1125 3.15999 32.2325 2.63999 32.3591 2.12666C30.9858 1.79999 29.6058 1.52666 28.2191 1.30666H28.2258Z" stroke="white" stroke-linecap="round" stroke-linejoin="round"/>
</g>
<defs>
<clipPath id="clip0_287_4295">
<rect width="40" height="40" fill="white"/>
</clipPath>
</defs>
</svg>
